<ttFont>
    <TTGlyph name=".notdef" xMin="54" yMin="0" xMax="706" yMax="759">
      <contour>
        <pt x="413" y="88" on="1"/>
        <pt x="430" y="88" on="0"/>
        <pt x="434" y="107" on="1"/>
        <pt x="435" y="113" on="0"/>
        <pt x="374" y="284" on="1"/>
        <pt x="371" y="293" on="0"/>
        <pt x="361" y="293" on="1"/>
        <pt x="353" y="293" on="0"/>
        <pt x="345" y="284" on="1"/>
        <pt x="212" y="113" on="0"/>
        <pt x="211" y="107" on="1"/>
        <pt x="207" y="88" on="0"/>
        <pt x="225" y="88" on="1"/>
      </contour>
      <contour>
        <pt x="192" y="224" on="1"/>
        <pt x="201" y="224" on="0"/>
        <pt x="208" y="231" on="1"/>
        <pt x="332" y="374" on="0"/>
        <pt x="334" y="380" on="1"/>
        <pt x="335" y="386" on="0"/>
        <pt x="271" y="528" on="1"/>
        <pt x="267" y="535" on="0"/>
        <pt x="258" y="535" on="1"/>
        <pt x="239" y="535" on="0"/>
        <pt x="235" y="518" on="1"/>
        <pt x="176" y="241" on="1"/>
        <pt x="173" y="224" on="0"/>
      </contour>
      <contour>
        <pt x="494" y="0" on="1"/>
        <pt x="104" y="0" on="1"/>
        <pt x="79" y="0" on="0"/>
        <pt x="54" y="38" on="0"/>
        <pt x="59" y="60" on="1"/>
        <pt x="194" y="698" on="1"/>
        <pt x="200" y="723" on="0"/>
        <pt x="240" y="759" on="0"/>
        <pt x="265" y="759" on="1"/>
        <pt x="655" y="759" on="1"/>
        <pt x="681" y="759" on="0"/>
        <pt x="706" y="722" on="0"/>
        <pt x="701" y="698" on="1"/>
        <pt x="566" y="60" on="1"/>
        <pt x="561" y="38" on="0"/>
        <pt x="520" y="0" on="0"/>
      </contour>
      <contour>
        <pt x="503" y="224" on="1"/>
        <pt x="522" y="224" on="0"/>
        <pt x="525" y="241" on="1"/>
        <pt x="584" y="518" on="1"/>
        <pt x="588" y="535" on="0"/>
        <pt x="569" y="535" on="1"/>
        <pt x="561" y="535" on="0"/>
        <pt x="552" y="528" on="1"/>
        <pt x="429" y="386" on="0"/>
        <pt x="428" y="380" on="1"/>
        <pt x="426" y="374" on="0"/>
        <pt x="489" y="231" on="1"/>
        <pt x="495" y="224" on="0"/>
      </contour>
      <contour>
        <pt x="398" y="468" on="1"/>
        <pt x="408" y="468" on="0"/>
        <pt x="415" y="476" on="1"/>
        <pt x="549" y="648" on="0"/>
        <pt x="550" y="653" on="1"/>
        <pt x="554" y="672" on="0"/>
        <pt x="537" y="672" on="1"/>
        <pt x="349" y="672" on="1"/>
        <pt x="331" y="672" on="0"/>
        <pt x="327" y="653" on="1"/>
        <pt x="326" y="648" on="0"/>
        <pt x="386" y="476" on="1"/>
        <pt x="390" y="468" on="0"/>
      </contour>
    </TTGlyph>
    <TTGlyph name="A" xMin="34" yMin="-5" xMax="584" yMax="755">
      <contour>
        <pt x="529" y="-5" on="1"/>
        <pt x="500" y="-5" on="0"/>
        <pt x="493" y="26" on="1"/>
        <pt x="478" y="167" on="1"/>
        <pt x="472" y="200" on="0"/>
        <pt x="441" y="200" on="1"/>
        <pt x="246" y="200" on="1"/>
        <pt x="214" y="200" on="0"/>
        <pt x="193" y="167" on="1"/>
        <pt x="120" y="26" on="1"/>
        <pt x="112" y="12" on="0"/>
        <pt x="84" y="-5" on="0"/>
        <pt x="70" y="-5" on="1"/>
        <pt x="51" y="-5" on="0"/>
        <pt x="41" y="8" on="1"/>
        <pt x="34" y="17" on="0"/>
        <pt x="34" y="29" on="1"/>
        <pt x="34" y="42" on="0"/>
        <pt x="40" y="53" on="1"/>
        <pt x="390" y="710" on="1"/>
        <pt x="414" y="751" on="0"/>
        <pt x="458" y="755" on="1"/>
        <pt x="505" y="755" on="0"/>
        <pt x="513" y="710" on="1"/>
        <pt x="584" y="46" on="1"/>
        <pt x="584" y="25" on="0"/>
        <pt x="563" y="8" on="1"/>
        <pt x="548" y="-5" on="0"/>
      </contour>
      <contour>
        <pt x="433" y="290" on="1"/>
        <pt x="443" y="290" on="0"/>
        <pt x="458" y="303" on="0"/>
        <pt x="461" y="313" on="1"/>
        <pt x="461" y="320" on="0"/>
        <pt x="435" y="565" on="1"/>
        <pt x="435" y="570" on="0"/>
        <pt x="428" y="576" on="0"/>
        <pt x="423" y="576" on="1"/>
        <pt x="413" y="576" on="0"/>
        <pt x="406" y="565" on="1"/>
        <pt x="276" y="320" on="1"/>
        <pt x="273" y="312" on="0"/>
        <pt x="273" y="308" on="1"/>
        <pt x="273" y="302" on="0"/>
        <pt x="282" y="290" on="0"/>
        <pt x="292" y="290" on="1"/>
      </contour>
    </TTGlyph>
    <TTGlyph name="B" xMin="101" yMin="1" xMax="634" yMax="751">
      <contour>
        <pt x="316" y="1" on="1"/>
        <pt x="139" y="1" on="1"/>
        <pt x="120" y="1" on="0"/>
        <pt x="109" y="15" on="1"/>
        <pt x="101" y="25" on="0"/>
        <pt x="101" y="38" on="1"/>
        <pt x="101" y="43" on="0"/>
        <pt x="242" y="704" on="1"/>
        <pt x="246" y="724" on="0"/>
        <pt x="279" y="751" on="0"/>
        <pt x="299" y="751" on="1"/>
        <pt x="476" y="751" on="1"/>
        <pt x="559" y="751" on="0"/>
        <pt x="602" y="694" on="1"/>
        <pt x="634" y="651" on="0"/>
        <pt x="634" y="595" on="1"/>
        <pt x="634" y="575" on="0"/>
        <pt x="630" y="553" on="1"/>
        <pt x="614" y="472" on="0"/>
        <pt x="548" y="417" on="1"/>
        <pt x="540" y="409" on="0"/>
        <pt x="540" y="400" on="1"/>
        <pt x="540" y="396" on="0"/>
        <pt x="543" y="394" on="1"/>
        <pt x="592" y="339" on="0"/>
        <pt x="592" y="276" on="1"/>
        <pt x="592" y="252" on="0"/>
        <pt x="586" y="223" on="1"/>
        <pt x="564" y="127" on="0"/>
        <pt x="408" y="1" on="0"/>
      </contour>
      <contour>
        <pt x="411" y="446" on="1"/>
        <pt x="453" y="446" on="0"/>
        <pt x="529" y="506" on="0"/>
        <pt x="540" y="553" on="1"/>
        <pt x="542" y="566" on="0"/>
        <pt x="542" y="578" on="1"/>
        <pt x="542" y="609" on="0"/>
        <pt x="500" y="661" on="0"/>
        <pt x="457" y="661" on="1"/>
        <pt x="346" y="661" on="1"/>
        <pt x="337" y="661" on="0"/>
        <pt x="320" y="647" on="0"/>
        <pt x="318" y="638" on="1"/>
        <pt x="282" y="467" on="0"/>
        <pt x="282" y="464" on="1"/>
        <pt x="282" y="458" on="0"/>
        <pt x="291" y="446" on="0"/>
        <pt x="301" y="446" on="1"/>
      </contour>
      <contour>
        <pt x="336" y="91" on="1"/>
        <pt x="391" y="91" on="0"/>
        <pt x="484" y="167" on="0"/>
        <pt x="497" y="223" on="1"/>
        <pt x="500" y="239" on="0"/>
        <pt x="500" y="253" on="1"/>
        <pt x="500" y="288" on="0"/>
        <pt x="453" y="353" on="0"/>
        <pt x="393" y="356" on="1"/>
        <pt x="282" y="356" on="1"/>
        <pt x="272" y="356" on="0"/>
        <pt x="256" y="342" on="0"/>
        <pt x="253" y="333" on="1"/>
        <pt x="206" y="109" on="1"/>
        <pt x="206" y="102" on="0"/>
        <pt x="216" y="91" on="0"/>
        <pt x="225" y="91" on="1"/>
      </contour>
    </TTGlyph>
    <TTGlyph name="C" xMin="127" yMin="-5" xMax="684" yMax="755">
      <contour>
        <pt x="368" y="-5" on="1"/>
        <pt x="239" y="-5" on="0"/>
        <pt x="182" y="97" on="1"/>
        <pt x="127" y="203" on="0"/>
        <pt x="164" y="375" on="1"/>
        <pt x="204" y="550" on="0"/>
        <pt x="300" y="653" on="1"/>
        <pt x="400" y="755" on="0"/>
        <pt x="530" y="755" on="1"/>
        <pt x="684" y="755" on="0"/>
        <pt x="671" y="693" on="1"/>
        <pt x="667" y="672" on="0"/>
        <pt x="649" y="659" on="1"/>
        <pt x="637" y="650" on="0"/>
        <pt x="624" y="650" on="1"/>
        <pt x="619" y="650" on="0"/>
        <pt x="612" y="654" on="1"/>
        <pt x="590" y="667" on="0"/>
        <pt x="514" y="667" on="1"/>
        <pt x="434" y="665" on="0"/>
        <pt x="284" y="518" on="0"/>
        <pt x="255" y="379" on="1"/>
        <pt x="224" y="233" on="0"/>
        <pt x="301" y="86" on="0"/>
        <pt x="391" y="84" on="1"/>
        <pt x="455" y="84" on="0"/>
        <pt x="494" y="102" on="1"/>
        <pt x="500" y="105" on="0"/>
        <pt x="506" y="105" on="1"/>
        <pt x="522" y="105" on="0"/>
        <pt x="530" y="97" on="1"/>
        <pt x="542" y="84" on="0"/>
        <pt x="536" y="58" on="1"/>
        <pt x="530" y="26" on="0"/>
        <pt x="493" y="15" on="1"/>
        <pt x="431" y="-5" on="0"/>
      </contour>
    </TTGlyph>
    <TTGlyph name="D" xMin="99" yMin="0" xMax="633" yMax="750">
      <contour>
        <pt x="239" y="90" on="1"/>
        <pt x="353" y="90" on="0"/>
        <pt x="485" y="207" on="0"/>
        <pt x="512" y="340" on="1"/>
        <pt x="542" y="472" on="0"/>
        <pt x="542" y="530" on="1"/>
        <pt x="542" y="582" on="0"/>
        <pt x="521" y="609" on="1"/>
        <pt x="490" y="645" on="0"/>
        <pt x="396" y="660" on="0"/>
        <pt x="344" y="660" on="1"/>
        <pt x="334" y="660" on="0"/>
        <pt x="318" y="646" on="0"/>
        <pt x="315" y="637" on="1"/>
        <pt x="204" y="111" on="0"/>
        <pt x="204" y="108" on="1"/>
        <pt x="204" y="102" on="0"/>
        <pt x="213" y="90" on="0"/>
        <pt x="223" y="90" on="1"/>
      </contour>
      <contour>
        <pt x="220" y="0" on="1"/>
        <pt x="137" y="0" on="1"/>
        <pt x="118" y="0" on="0"/>
        <pt x="107" y="13" on="1"/>
        <pt x="99" y="23" on="0"/>
        <pt x="99" y="37" on="1"/>
        <pt x="99" y="42" on="0"/>
        <pt x="240" y="703" on="1"/>
        <pt x="244" y="723" on="0"/>
        <pt x="277" y="750" on="0"/>
        <pt x="296" y="750" on="1"/>
        <pt x="390" y="750" on="1"/>
        <pt x="490" y="750" on="0"/>
        <pt x="550" y="717" on="1"/>
        <pt x="633" y="669" on="0"/>
        <pt x="633" y="540" on="1"/>
        <pt x="633" y="484" on="0"/>
        <pt x="617" y="410" on="1"/>
        <pt x="602" y="340" on="1"/>
        <pt x="564" y="156" on="0"/>
        <pt x="378" y="0" on="0"/>
      </contour>
    </TTGlyph>
    <TTGlyph name="E" xMin="109" yMin="0" xMax="680" yMax="750">
      <contour>
        <pt x="484" y="0" on="1"/>
        <pt x="147" y="0" on="1"/>
        <pt x="128" y="0" on="0"/>
        <pt x="117" y="14" on="1"/>
        <pt x="109" y="24" on="0"/>
        <pt x="109" y="37" on="1"/>
        <pt x="109" y="42" on="0"/>
        <pt x="250" y="703" on="1"/>
        <pt x="254" y="723" on="0"/>
        <pt x="287" y="750" on="0"/>
        <pt x="306" y="750" on="1"/>
        <pt x="644" y="750" on="1"/>
        <pt x="662" y="750" on="0"/>
        <pt x="680" y="727" on="0"/>
        <pt x="680" y="715" on="1"/>
        <pt x="680" y="691" on="0"/>
        <pt x="659" y="673" on="1"/>
        <pt x="643" y="660" on="0"/>
        <pt x="624" y="660" on="1"/>
        <pt x="354" y="660" on="1"/>
        <pt x="344" y="660" on="0"/>
        <pt x="328" y="647" on="0"/>
        <pt x="325" y="637" on="1"/>
        <pt x="289" y="464" on="1"/>
        <pt x="289" y="457" on="0"/>
        <pt x="298" y="445" on="0"/>
        <pt x="308" y="445" on="1"/>
        <pt x="550" y="445" on="1"/>
        <pt x="568" y="445" on="0"/>
        <pt x="579" y="432" on="1"/>
        <pt x="586" y="423" on="0"/>
        <pt x="586" y="410" on="1"/>
        <pt x="586" y="385" on="0"/>
        <pt x="565" y="368" on="1"/>
        <pt x="549" y="355" on="0"/>
        <pt x="531" y="355" on="1"/>
        <pt x="289" y="355" on="1"/>
        <pt x="279" y="355" on="0"/>
        <pt x="263" y="342" on="0"/>
        <pt x="261" y="332" on="1"/>
        <pt x="214" y="112" on="0"/>
        <pt x="214" y="109" on="1"/>
        <pt x="214" y="102" on="0"/>
        <pt x="223" y="90" on="0"/>
        <pt x="233" y="90" on="1"/>
        <pt x="503" y="90" on="1"/>
        <pt x="522" y="90" on="0"/>
        <pt x="540" y="67" on="0"/>
        <pt x="540" y="53" on="1"/>
        <pt x="540" y="31" on="0"/>
        <pt x="519" y="13" on="1"/>
        <pt x="503" y="0" on="0"/>
      </contour>
    </TTGlyph>
    <TTGlyph name="F" xMin="107" yMin="-5" xMax="680" yMax="750">
      <contour>
        <pt x="143" y="-5" on="1"/>
        <pt x="124" y="-5" on="0"/>
        <pt x="114" y="8" on="1"/>
        <pt x="107" y="17" on="0"/>
        <pt x="107" y="30" on="1"/>
        <pt x="107" y="35" on="0"/>
        <pt x="249" y="703" on="1"/>
        <pt x="253" y="723" on="0"/>
        <pt x="286" y="750" on="0"/>
        <pt x="305" y="750" on="1"/>
        <pt x="644" y="750" on="1"/>
        <pt x="662" y="750" on="0"/>
        <pt x="680" y="727" on="0"/>
        <pt x="680" y="715" on="1"/>
        <pt x="680" y="691" on="0"/>
        <pt x="659" y="673" on="1"/>
        <pt x="643" y="660" on="0"/>
        <pt x="624" y="660" on="1"/>
        <pt x="353" y="660" on="1"/>
        <pt x="343" y="660" on="0"/>
        <pt x="327" y="647" on="0"/>
        <pt x="324" y="637" on="1"/>
        <pt x="288" y="464" on="1"/>
        <pt x="288" y="457" on="0"/>
        <pt x="297" y="445" on="0"/>
        <pt x="307" y="445" on="1"/>
        <pt x="550" y="445" on="1"/>
        <pt x="568" y="445" on="0"/>
        <pt x="579" y="432" on="1"/>
        <pt x="586" y="423" on="0"/>
        <pt x="586" y="410" on="1"/>
        <pt x="586" y="385" on="0"/>
        <pt x="565" y="368" on="1"/>
        <pt x="549" y="355" on="0"/>
        <pt x="531" y="355" on="1"/>
        <pt x="288" y="355" on="1"/>
        <pt x="278" y="355" on="0"/>
        <pt x="262" y="342" on="0"/>
        <pt x="260" y="332" on="1"/>
        <pt x="198" y="40" on="1"/>
        <pt x="193" y="21" on="0"/>
        <pt x="162" y="-5" on="0"/>
      </contour>
    </TTGlyph>
    <TTGlyph name="G" xMin="127" yMin="-5" xMax="637" yMax="755">
      <contour>
        <pt x="312" y="-5" on="1"/>
        <pt x="234" y="-5" on="0"/>
        <pt x="149" y="90" on="0"/>
        <pt x="127" y="242" on="0"/>
        <pt x="145" y="333" on="1"/>
        <pt x="163" y="417" on="1"/>
        <pt x="207" y="612" on="0"/>
        <pt x="322" y="705" on="1"/>
        <pt x="384" y="755" on="0"/>
        <pt x="475" y="755" on="1"/>
        <pt x="628" y="755" on="0"/>
        <pt x="636" y="588" on="1"/>
        <pt x="637" y="578" on="0"/>
        <pt x="636" y="573" on="1"/>
        <pt x="632" y="553" on="0"/>
        <pt x="602" y="528" on="0"/>
        <pt x="584" y="528" on="1"/>
        <pt x="550" y="528" on="0"/>
        <pt x="548" y="560" on="1"/>
        <pt x="541" y="666" on="0"/>
        <pt x="456" y="666" on="1"/>
        <pt x="406" y="666" on="0"/>
        <pt x="321" y="601" on="0"/>
        <pt x="291" y="535" on="1"/>
        <pt x="266" y="483" on="0"/>
        <pt x="253" y="418" on="1"/>
        <pt x="235" y="333" on="1"/>
        <pt x="211" y="214" on="0"/>
        <pt x="262" y="84" on="0"/>
        <pt x="341" y="84" on="1"/>
        <pt x="391" y="84" on="0"/>
        <pt x="437" y="115" on="1"/>
        <pt x="452" y="125" on="0"/>
        <pt x="456" y="143" on="1"/>
        <pt x="484" y="277" on="1"/>
        <pt x="489" y="300" on="0"/>
        <pt x="467" y="300" on="1"/>
        <pt x="415" y="300" on="1"/>
        <pt x="399" y="300" on="0"/>
        <pt x="376" y="326" on="0"/>
        <pt x="381" y="349" on="1"/>
        <pt x="385" y="368" on="0"/>
        <pt x="416" y="390" on="0"/>
        <pt x="431" y="390" on="1"/>
        <pt x="576" y="390" on="1"/>
        <pt x="585" y="390" on="0"/>
        <pt x="594" y="377" on="0"/>
        <pt x="592" y="367" on="1"/>
        <pt x="541" y="129" on="1"/>
        <pt x="535" y="99" on="0"/>
        <pt x="512" y="78" on="1"/>
        <pt x="419" y="-5" on="0"/>
      </contour>
    </TTGlyph>
    <TTGlyph name="H" xMin="88" yMin="-5" xMax="672" yMax="755">
      <contour>
        <pt x="474" y="-5" on="1"/>
        <pt x="455" y="-5" on="0"/>
        <pt x="445" y="8" on="1"/>
        <pt x="438" y="17" on="0"/>
        <pt x="438" y="30" on="1"/>
        <pt x="438" y="35" on="0"/>
        <pt x="496" y="310" on="0"/>
        <pt x="496" y="312" on="1"/>
        <pt x="496" y="330" on="0"/>
        <pt x="477" y="330" on="1"/>
        <pt x="264" y="330" on="1"/>
        <pt x="254" y="330" on="0"/>
        <pt x="238" y="317" on="0"/>
        <pt x="235" y="307" on="1"/>
        <pt x="179" y="40" on="1"/>
        <pt x="174" y="21" on="0"/>
        <pt x="143" y="-5" on="0"/>
        <pt x="124" y="-5" on="1"/>
        <pt x="105" y="-5" on="0"/>
        <pt x="95" y="8" on="1"/>
        <pt x="88" y="17" on="0"/>
        <pt x="88" y="30" on="1"/>
        <pt x="88" y="35" on="0"/>
        <pt x="231" y="710" on="1"/>
        <pt x="236" y="730" on="0"/>
        <pt x="267" y="755" on="0"/>
        <pt x="286" y="755" on="1"/>
        <pt x="304" y="755" on="0"/>
        <pt x="322" y="733" on="0"/>
        <pt x="322" y="720" on="1"/>
        <pt x="322" y="715" on="0"/>
        <pt x="264" y="442" on="0"/>
        <pt x="264" y="441" on="1"/>
        <pt x="264" y="433" on="0"/>
        <pt x="273" y="420" on="0"/>
        <pt x="283" y="420" on="1"/>
        <pt x="496" y="420" on="1"/>
        <pt x="506" y="420" on="0"/>
        <pt x="522" y="434" on="0"/>
        <pt x="524" y="444" on="1"/>
        <pt x="581" y="710" on="1"/>
        <pt x="586" y="730" on="0"/>
        <pt x="617" y="755" on="0"/>
        <pt x="636" y="755" on="1"/>
        <pt x="654" y="755" on="0"/>
        <pt x="672" y="733" on="0"/>
        <pt x="672" y="720" on="1"/>
        <pt x="672" y="715" on="0"/>
        <pt x="529" y="40" on="1"/>
        <pt x="524" y="21" on="0"/>
        <pt x="493" y="-5" on="0"/>
      </contour>
    </TTGlyph>
    <TTGlyph name="I" xMin="99" yMin="0" xMax="661" yMax="750">
      <contour>
        <pt x="465" y="0" on="1"/>
        <pt x="135" y="0" on="1"/>
        <pt x="117" y="0" on="0"/>
        <pt x="106" y="13" on="1"/>
        <pt x="99" y="22" on="0"/>
        <pt x="99" y="35" on="1"/>
        <pt x="99" y="61" on="0"/>
        <pt x="120" y="78" on="1"/>
        <pt x="136" y="90" on="0"/>
        <pt x="154" y="90" on="1"/>
        <pt x="251" y="90" on="1"/>
        <pt x="261" y="90" on="0"/>
        <pt x="277" y="104" on="0"/>
        <pt x="279" y="114" on="1"/>
        <pt x="391" y="642" on="1"/>
        <pt x="391" y="660" on="0"/>
        <pt x="372" y="660" on="1"/>
        <pt x="275" y="660" on="1"/>
        <pt x="257" y="660" on="0"/>
        <pt x="239" y="683" on="0"/>
        <pt x="239" y="695" on="1"/>
        <pt x="239" y="720" on="0"/>
        <pt x="261" y="738" on="1"/>
        <pt x="276" y="750" on="0"/>
        <pt x="295" y="750" on="1"/>
        <pt x="625" y="750" on="1"/>
        <pt x="643" y="750" on="0"/>
        <pt x="661" y="728" on="0"/>
        <pt x="661" y="715" on="1"/>
        <pt x="661" y="691" on="0"/>
        <pt x="640" y="673" on="1"/>
        <pt x="624" y="660" on="0"/>
        <pt x="605" y="660" on="1"/>
        <pt x="509" y="660" on="1"/>
        <pt x="499" y="660" on="0"/>
        <pt x="483" y="647" on="0"/>
        <pt x="480" y="637" on="1"/>
        <pt x="369" y="112" on="0"/>
        <pt x="369" y="109" on="1"/>
        <pt x="369" y="102" on="0"/>
        <pt x="378" y="90" on="0"/>
        <pt x="388" y="90" on="1"/>
        <pt x="484" y="90" on="1"/>
        <pt x="503" y="90" on="0"/>
        <pt x="521" y="68" on="0"/>
        <pt x="521" y="54" on="1"/>
        <pt x="521" y="31" on="0"/>
        <pt x="500" y="13" on="1"/>
        <pt x="484" y="0" on="0"/>
      </contour>
    </TTGlyph>
    <TTGlyph name="J" xMin="101" yMin="-5" xMax="651" yMax="750">
      <contour>
        <pt x="299" y="-5" on="1"/>
        <pt x="243" y="-5" on="0"/>
        <pt x="163" y="18" on="0"/>
        <pt x="105" y="90" on="0"/>
        <pt x="101" y="137" on="1"/>
        <pt x="102" y="149" on="1"/>
        <pt x="106" y="168" on="0"/>
        <pt x="138" y="195" on="0"/>
        <pt x="157" y="195" on="1"/>
        <pt x="189" y="195" on="0"/>
        <pt x="195" y="163" on="1"/>
        <pt x="197" y="138" on="0"/>
        <pt x="212" y="117" on="1"/>
        <pt x="238" y="82" on="0"/>
        <pt x="298" y="82" on="1"/>
        <pt x="327" y="82" on="0"/>
        <pt x="376" y="95" on="0"/>
        <pt x="403" y="117" on="1"/>
        <pt x="442" y="150" on="0"/>
        <pt x="451" y="195" on="1"/>
        <pt x="546" y="642" on="1"/>
        <pt x="546" y="649" on="0"/>
        <pt x="537" y="660" on="0"/>
        <pt x="527" y="660" on="1"/>
        <pt x="385" y="660" on="1"/>
        <pt x="367" y="660" on="0"/>
        <pt x="356" y="673" on="1"/>
        <pt x="349" y="682" on="0"/>
        <pt x="349" y="695" on="1"/>
        <pt x="349" y="720" on="0"/>
        <pt x="370" y="737" on="1"/>
        <pt x="386" y="750" on="0"/>
        <pt x="404" y="750" on="1"/>
        <pt x="612" y="750" on="1"/>
        <pt x="632" y="750" on="0"/>
        <pt x="651" y="726" on="0"/>
        <pt x="651" y="713" on="1"/>
        <pt x="651" y="707" on="0"/>
        <pt x="541" y="195" on="1"/>
        <pt x="524" y="113" on="0"/>
        <pt x="381" y="-5" on="0"/>
      </contour>
    </TTGlyph>
    <TTGlyph name="K" xMin="91" yMin="-5" xMax="666" yMax="755">
      <contour>
        <pt x="495" y="-5" on="1"/>
        <pt x="469" y="-5" on="0"/>
        <pt x="460" y="18" on="1"/>
        <pt x="340" y="330" on="1"/>
        <pt x="334" y="342" on="0"/>
        <pt x="322" y="342" on="1"/>
        <pt x="312" y="342" on="0"/>
        <pt x="302" y="333" on="1"/>
        <pt x="243" y="276" on="1"/>
        <pt x="230" y="263" on="0"/>
        <pt x="226" y="246" on="1"/>
        <pt x="182" y="39" on="1"/>
        <pt x="178" y="21" on="0"/>
        <pt x="147" y="-5" on="0"/>
        <pt x="128" y="-5" on="1"/>
        <pt x="109" y="-5" on="0"/>
        <pt x="91" y="18" on="0"/>
        <pt x="91" y="31" on="1"/>
        <pt x="91" y="36" on="0"/>
        <pt x="235" y="710" on="1"/>
        <pt x="239" y="729" on="0"/>
        <pt x="271" y="755" on="0"/>
        <pt x="289" y="755" on="1"/>
        <pt x="308" y="755" on="0"/>
        <pt x="326" y="732" on="0"/>
        <pt x="326" y="720" on="1"/>
        <pt x="326" y="715" on="0"/>
        <pt x="274" y="469" on="0"/>
        <pt x="274" y="467" on="1"/>
        <pt x="274" y="460" on="0"/>
        <pt x="284" y="448" on="0"/>
        <pt x="293" y="448" on="1"/>
        <pt x="303" y="448" on="0"/>
        <pt x="313" y="457" on="1"/>
        <pt x="592" y="738" on="1"/>
        <pt x="609" y="755" on="0"/>
        <pt x="630" y="755" on="1"/>
        <pt x="650" y="755" on="0"/>
        <pt x="660" y="741" on="1"/>
        <pt x="666" y="732" on="0"/>
        <pt x="666" y="720" on="1"/>
        <pt x="666" y="700" on="0"/>
        <pt x="650" y="682" on="1"/>
        <pt x="419" y="449" on="1"/>
        <pt x="411" y="439" on="0"/>
        <pt x="411" y="430" on="1"/>
        <pt x="411" y="427" on="0"/>
        <pt x="548" y="61" on="1"/>
        <pt x="550" y="55" on="0"/>
        <pt x="550" y="48" on="1"/>
        <pt x="550" y="25" on="0"/>
        <pt x="530" y="8" on="1"/>
        <pt x="514" y="-5" on="0"/>
      </contour>
    </TTGlyph>
    <TTGlyph name="L" xMin="127" yMin="0" xMax="545" yMax="755">
      <contour>
        <pt x="490" y="0" on="1"/>
        <pt x="184" y="0" on="1"/>
        <pt x="155" y="0" on="0"/>
        <pt x="139" y="20" on="1"/>
        <pt x="127" y="35" on="0"/>
        <pt x="127" y="54" on="1"/>
        <pt x="127" y="62" on="0"/>
        <pt x="265" y="710" on="1"/>
        <pt x="269" y="729" on="0"/>
        <pt x="299" y="755" on="0"/>
        <pt x="320" y="755" on="1"/>
        <pt x="356" y="753" on="0"/>
        <pt x="356" y="719" on="1"/>
        <pt x="355" y="709" on="1"/>
        <pt x="232" y="132" on="0"/>
        <pt x="232" y="126" on="1"/>
        <pt x="232" y="113" on="0"/>
        <pt x="250" y="90" on="0"/>
        <pt x="269" y="90" on="1"/>
        <pt x="507" y="90" on="1"/>
        <pt x="526" y="90" on="0"/>
        <pt x="545" y="68" on="0"/>
        <pt x="545" y="54" on="1"/>
        <pt x="545" y="47" on="0"/>
        <pt x="543" y="44" on="1"/>
        <pt x="539" y="26" on="0"/>
        <pt x="508" y="0" on="0"/>
      </contour>
    </TTGlyph>
    <TTGlyph name="M" xMin="78" yMin="-5" xMax="680" yMax="755">
      <contour>
        <pt x="484" y="-5" on="1"/>
        <pt x="465" y="-5" on="0"/>
        <pt x="455" y="8" on="1"/>
        <pt x="448" y="17" on="0"/>
        <pt x="448" y="30" on="1"/>
        <pt x="448" y="35" on="0"/>
        <pt x="496" y="260" on="1"/>
        <pt x="542" y="483" on="1"/>
        <pt x="542" y="492" on="0"/>
        <pt x="532" y="492" on="1"/>
        <pt x="526" y="492" on="0"/>
        <pt x="520" y="485" on="1"/>
        <pt x="424" y="331" on="1"/>
        <pt x="398" y="296" on="0"/>
        <pt x="362" y="296" on="1"/>
        <pt x="327" y="296" on="0"/>
        <pt x="315" y="331" on="1"/>
        <pt x="285" y="485" on="1"/>
        <pt x="283" y="492" on="0"/>
        <pt x="276" y="492" on="1"/>
        <pt x="272" y="492" on="0"/>
        <pt x="263" y="486" on="0"/>
        <pt x="262" y="480" on="1"/>
        <pt x="169" y="40" on="1"/>
        <pt x="164" y="21" on="0"/>
        <pt x="132" y="-5" on="0"/>
        <pt x="114" y="-5" on="1"/>
        <pt x="95" y="-5" on="0"/>
        <pt x="85" y="8" on="1"/>
        <pt x="78" y="17" on="0"/>
        <pt x="78" y="30" on="1"/>
        <pt x="78" y="35" on="0"/>
        <pt x="219" y="700" on="1"/>
        <pt x="224" y="723" on="0"/>
        <pt x="262" y="755" on="0"/>
        <pt x="284" y="755" on="1"/>
        <pt x="317" y="755" on="0"/>
        <pt x="327" y="722" on="1"/>
        <pt x="381" y="484" on="1"/>
        <pt x="386" y="470" on="0"/>
        <pt x="399" y="470" on="1"/>
        <pt x="412" y="470" on="0"/>
        <pt x="424" y="484" on="1"/>
        <pt x="578" y="722" on="1"/>
        <pt x="602" y="755" on="0"/>
        <pt x="635" y="755" on="1"/>
        <pt x="658" y="755" on="0"/>
        <pt x="671" y="739" on="1"/>
        <pt x="680" y="727" on="0"/>
        <pt x="680" y="711" on="1"/>
        <pt x="680" y="705" on="0"/>
        <pt x="539" y="40" on="1"/>
        <pt x="534" y="21" on="0"/>
        <pt x="502" y="-5" on="0"/>
      </contour>
    </TTGlyph>
    <TTGlyph name="N" xMin="88" yMin="-5" xMax="672" yMax="755">
      <contour>
        <pt x="464" y="-5" on="1"/>
        <pt x="432" y="-5" on="0"/>
        <pt x="421" y="27" on="1"/>
        <pt x="301" y="514" on="1"/>
        <pt x="298" y="521" on="0"/>
        <pt x="292" y="521" on="1"/>
        <pt x="282" y="521" on="0"/>
        <pt x="278" y="509" on="1"/>
        <pt x="179" y="40" on="1"/>
        <pt x="174" y="21" on="0"/>
        <pt x="143" y="-5" on="0"/>
        <pt x="124" y="-5" on="1"/>
        <pt x="105" y="-5" on="0"/>
        <pt x="95" y="8" on="1"/>
        <pt x="88" y="17" on="0"/>
        <pt x="88" y="30" on="1"/>
        <pt x="88" y="35" on="0"/>
        <pt x="229" y="700" on="1"/>
        <pt x="234" y="723" on="0"/>
        <pt x="273" y="755" on="0"/>
        <pt x="295" y="755" on="1"/>
        <pt x="327" y="755" on="0"/>
        <pt x="339" y="723" on="1"/>
        <pt x="458" y="236" on="1"/>
        <pt x="461" y="229" on="0"/>
        <pt x="467" y="229" on="1"/>
        <pt x="471" y="229" on="0"/>
        <pt x="480" y="235" on="0"/>
        <pt x="481" y="241" on="1"/>
        <pt x="581" y="710" on="1"/>
        <pt x="585" y="729" on="0"/>
        <pt x="617" y="755" on="0"/>
        <pt x="635" y="755" on="1"/>
        <pt x="654" y="755" on="0"/>
        <pt x="672" y="732" on="0"/>
        <pt x="672" y="720" on="1"/>
        <pt x="672" y="715" on="0"/>
        <pt x="531" y="50" on="1"/>
        <pt x="525" y="26" on="0"/>
        <pt x="486" y="-5" on="0"/>
      </contour>
    </TTGlyph>
    <TTGlyph name="O" xMin="129" yMin="-5" xMax="629" yMax="755">
      <contour>
        <pt x="299" y="-5" on="1"/>
        <pt x="229" y="-5" on="0"/>
        <pt x="191" y="29" on="1"/>
        <pt x="129" y="83" on="0"/>
        <pt x="129" y="211" on="1"/>
        <pt x="129" y="285" on="0"/>
        <pt x="149" y="375" on="1"/>
        <pt x="181" y="529" on="0"/>
        <pt x="250" y="632" on="1"/>
        <pt x="333" y="755" on="0"/>
        <pt x="460" y="755" on="1"/>
        <pt x="629" y="755" on="0"/>
        <pt x="629" y="541" on="1"/>
        <pt x="629" y="465" on="0"/>
        <pt x="609" y="375" on="1"/>
        <pt x="577" y="219" on="0"/>
        <pt x="509" y="118" on="1"/>
        <pt x="426" y="-5" on="0"/>
      </contour>
      <contour>
        <pt x="322" y="104" on="1"/>
        <pt x="379" y="104" on="0"/>
        <pt x="418" y="146" on="1"/>
        <pt x="488" y="220" on="0"/>
        <pt x="519" y="375" on="1"/>
        <pt x="534" y="449" on="0"/>
        <pt x="534" y="504" on="1"/>
        <pt x="534" y="532" on="0"/>
        <pt x="524" y="597" on="0"/>
        <pt x="480" y="645" on="0"/>
        <pt x="437" y="645" on="1"/>
        <pt x="296" y="645" on="0"/>
        <pt x="240" y="375" on="1"/>
        <pt x="223" y="297" on="0"/>
        <pt x="223" y="239" on="1"/>
        <pt x="223" y="181" on="0"/>
        <pt x="265" y="104" on="0"/>
      </contour>
    </TTGlyph>
    <TTGlyph name="P" xMin="128" yMin="-5" xMax="663" yMax="750">
      <contour>
        <pt x="164" y="-5" on="1"/>
        <pt x="145" y="-5" on="0"/>
        <pt x="135" y="8" on="1"/>
        <pt x="128" y="17" on="0"/>
        <pt x="128" y="30" on="1"/>
        <pt x="128" y="35" on="0"/>
        <pt x="270" y="703" on="1"/>
        <pt x="274" y="723" on="0"/>
        <pt x="307" y="750" on="0"/>
        <pt x="326" y="750" on="1"/>
        <pt x="504" y="750" on="1"/>
        <pt x="585" y="750" on="0"/>
        <pt x="630" y="692" on="1"/>
        <pt x="663" y="650" on="0"/>
        <pt x="663" y="595" on="1"/>
        <pt x="663" y="574" on="0"/>
        <pt x="658" y="552" on="1"/>
        <pt x="634" y="452" on="0"/>
        <pt x="495" y="335" on="0"/>
        <pt x="415" y="335" on="1"/>
        <pt x="305" y="335" on="1"/>
        <pt x="295" y="335" on="0"/>
        <pt x="279" y="321" on="0"/>
        <pt x="276" y="311" on="1"/>
        <pt x="219" y="40" on="1"/>
        <pt x="214" y="21" on="0"/>
        <pt x="183" y="-5" on="0"/>
      </contour>
      <contour>
        <pt x="435" y="425" on="1"/>
        <pt x="478" y="425" on="0"/>
        <pt x="516" y="457" on="1"/>
        <pt x="553" y="483" on="0"/>
        <pt x="568" y="552" on="1"/>
        <pt x="570" y="564" on="0"/>
        <pt x="570" y="575" on="1"/>
        <pt x="570" y="608" on="0"/>
        <pt x="528" y="660" on="0"/>
        <pt x="484" y="660" on="1"/>
        <pt x="374" y="660" on="1"/>
        <pt x="364" y="660" on="0"/>
        <pt x="348" y="646" on="0"/>
        <pt x="346" y="636" on="1"/>
        <pt x="305" y="443" on="1"/>
        <pt x="305" y="436" on="0"/>
        <pt x="314" y="425" on="0"/>
        <pt x="324" y="425" on="1"/>
      </contour>
    </TTGlyph>
    <TTGlyph name="Q" xMin="129" yMin="-200" xMax="629" yMax="755">
      <contour>
        <pt x="299" y="-5" on="1"/>
        <pt x="229" y="-5" on="0"/>
        <pt x="191" y="29" on="1"/>
        <pt x="129" y="83" on="0"/>
        <pt x="129" y="211" on="1"/>
        <pt x="129" y="285" on="0"/>
        <pt x="149" y="375" on="1"/>
        <pt x="181" y="529" on="0"/>
        <pt x="250" y="632" on="1"/>
        <pt x="333" y="755" on="0"/>
        <pt x="460" y="755" on="1"/>
        <pt x="629" y="755" on="0"/>
        <pt x="629" y="541" on="1"/>
        <pt x="629" y="465" on="0"/>
        <pt x="609" y="375" on="1"/>
        <pt x="577" y="219" on="0"/>
        <pt x="509" y="118" on="1"/>
        <pt x="426" y="-5" on="0"/>
      </contour>
      <contour>
        <pt x="322" y="104" on="1"/>
        <pt x="379" y="104" on="0"/>
        <pt x="418" y="146" on="1"/>
        <pt x="488" y="220" on="0"/>
        <pt x="519" y="375" on="1"/>
        <pt x="534" y="449" on="0"/>
        <pt x="534" y="504" on="1"/>
        <pt x="534" y="532" on="0"/>
        <pt x="524" y="597" on="0"/>
        <pt x="480" y="645" on="0"/>
        <pt x="437" y="645" on="1"/>
        <pt x="296" y="645" on="0"/>
        <pt x="240" y="375" on="1"/>
        <pt x="223" y="297" on="0"/>
        <pt x="223" y="239" on="1"/>
        <pt x="223" y="181" on="0"/>
        <pt x="265" y="104" on="0"/>
      </contour>
      <contour>
        <pt x="475" y="-200" on="1"/>
        <pt x="468" y="-200" on="0"/>
        <pt x="461" y="-198" on="1"/>
        <pt x="270" y="-123" on="1"/>
        <pt x="248" y="-113" on="0"/>
        <pt x="248" y="-90" on="1"/>
        <pt x="248" y="-77" on="0"/>
        <pt x="255" y="-66" on="1"/>
        <pt x="276" y="-36" on="0"/>
        <pt x="303" y="-36" on="1"/>
        <pt x="310" y="-36" on="0"/>
        <pt x="318" y="-39" on="1"/>
        <pt x="509" y="-113" on="1"/>
        <pt x="531" y="-123" on="0"/>
        <pt x="531" y="-146" on="1"/>
        <pt x="531" y="-158" on="0"/>
        <pt x="524" y="-171" on="1"/>
        <pt x="503" y="-200" on="0"/>
      </contour>
    </TTGlyph>
    <TTGlyph name="R" xMin="101" yMin="-5" xMax="636" yMax="750">
      <contour>
        <pt x="506" y="-5" on="1"/>
        <pt x="482" y="-5" on="0"/>
        <pt x="472" y="18" on="1"/>
        <pt x="352" y="323" on="1"/>
        <pt x="346" y="335" on="0"/>
        <pt x="334" y="335" on="1"/>
        <pt x="278" y="335" on="1"/>
        <pt x="268" y="335" on="0"/>
        <pt x="252" y="321" on="0"/>
        <pt x="249" y="311" on="1"/>
        <pt x="192" y="40" on="1"/>
        <pt x="187" y="21" on="0"/>
        <pt x="156" y="-5" on="0"/>
        <pt x="138" y="-5" on="1"/>
        <pt x="119" y="-5" on="0"/>
        <pt x="108" y="8" on="1"/>
        <pt x="101" y="17" on="0"/>
        <pt x="101" y="29" on="1"/>
        <pt x="101" y="35" on="0"/>
        <pt x="242" y="703" on="1"/>
        <pt x="247" y="723" on="0"/>
        <pt x="280" y="750" on="0"/>
        <pt x="299" y="750" on="1"/>
        <pt x="476" y="750" on="1"/>
        <pt x="557" y="750" on="0"/>
        <pt x="603" y="692" on="1"/>
        <pt x="636" y="652" on="0"/>
        <pt x="636" y="603" on="1"/>
        <pt x="636" y="580" on="0"/>
        <pt x="630" y="552" on="1"/>
        <pt x="613" y="476" on="0"/>
        <pt x="529" y="374" on="0"/>
        <pt x="473" y="352" on="1"/>
        <pt x="454" y="343" on="0"/>
        <pt x="454" y="324" on="1"/>
        <pt x="454" y="321" on="0"/>
        <pt x="560" y="61" on="1"/>
        <pt x="562" y="55" on="0"/>
        <pt x="562" y="49" on="1"/>
        <pt x="562" y="26" on="0"/>
        <pt x="542" y="9" on="1"/>
        <pt x="526" y="-5" on="0"/>
      </contour>
      <contour>
        <pt x="408" y="425" on="1"/>
        <pt x="449" y="425" on="0"/>
        <pt x="528" y="497" on="0"/>
        <pt x="541" y="552" on="1"/>
        <pt x="544" y="567" on="0"/>
        <pt x="544" y="581" on="1"/>
        <pt x="544" y="614" on="0"/>
        <pt x="501" y="660" on="0"/>
        <pt x="458" y="660" on="1"/>
        <pt x="347" y="660" on="1"/>
        <pt x="337" y="660" on="0"/>
        <pt x="321" y="646" on="0"/>
        <pt x="319" y="636" on="1"/>
        <pt x="278" y="443" on="1"/>
        <pt x="278" y="436" on="0"/>
        <pt x="287" y="425" on="0"/>
        <pt x="297" y="425" on="1"/>
      </contour>
    </TTGlyph>
    <TTGlyph name="S" xMin="103" yMin="-5" xMax="645" yMax="755">
      <contour>
        <pt x="304" y="-5" on="1"/>
        <pt x="228" y="-5" on="0"/>
        <pt x="116" y="77" on="0"/>
        <pt x="105" y="122" on="1"/>
        <pt x="103" y="129" on="0"/>
        <pt x="105" y="138" on="1"/>
        <pt x="110" y="158" on="0"/>
        <pt x="139" y="187" on="0"/>
        <pt x="158" y="187" on="1"/>
        <pt x="179" y="187" on="0"/>
        <pt x="193" y="163" on="1"/>
        <pt x="241" y="86" on="0"/>
        <pt x="323" y="84" on="1"/>
        <pt x="361" y="84" on="0"/>
        <pt x="401" y="102" on="1"/>
        <pt x="463" y="132" on="0"/>
        <pt x="479" y="204" on="1"/>
        <pt x="493" y="271" on="0"/>
        <pt x="421" y="307" on="1"/>
        <pt x="392" y="323" on="0"/>
        <pt x="362" y="334" on="1"/>
        <pt x="174" y="402" on="0"/>
        <pt x="205" y="551" on="1"/>
        <pt x="220" y="621" on="0"/>
        <pt x="304" y="710" on="0"/>
        <pt x="404" y="755" on="0"/>
        <pt x="461" y="755" on="1"/>
        <pt x="549" y="755" on="0"/>
        <pt x="643" y="682" on="0"/>
        <pt x="644" y="627" on="1"/>
        <pt x="645" y="620" on="0"/>
        <pt x="643" y="612" on="1"/>
        <pt x="639" y="594" on="0"/>
        <pt x="615" y="570" on="0"/>
        <pt x="596" y="570" on="1"/>
        <pt x="566" y="570" on="0"/>
        <pt x="561" y="605" on="1"/>
        <pt x="556" y="633" on="0"/>
        <pt x="490" y="671" on="0"/>
        <pt x="443" y="671" on="1"/>
        <pt x="395" y="671" on="0"/>
        <pt x="304" y="607" on="0"/>
        <pt x="292" y="552" on="1"/>
        <pt x="281" y="492" on="0"/>
        <pt x="354" y="438" on="0"/>
        <pt x="397" y="422" on="1"/>
        <pt x="460" y="399" on="0"/>
        <pt x="496" y="375" on="1"/>
        <pt x="590" y="311" on="0"/>
        <pt x="566" y="196" on="1"/>
        <pt x="550" y="123" on="0"/>
        <pt x="463" y="37" on="0"/>
        <pt x="367" y="-5" on="0"/>
      </contour>
    </TTGlyph>
    <TTGlyph name="SF010000" xMin="250" yMin="-400" xMax="620" yMax="420">
      <contour>
        <pt x="250" y="-400" on="1"/>
        <pt x="250" y="420" on="1"/>
        <pt x="620" y="420" on="1"/>
        <pt x="620" y="320" on="1"/>
        <pt x="350" y="320" on="1"/>
        <pt x="350" y="-400" on="1"/>
      </contour>
    </TTGlyph>
    <TTGlyph name="SF020000" xMin="250" yMin="320" xMax="620" yMax="1120">
      <contour>
        <pt x="250" y="320" on="1"/>
        <pt x="250" y="1120" on="1"/>
        <pt x="350" y="1120" on="1"/>
        <pt x="350" y="420" on="1"/>
        <pt x="620" y="420" on="1"/>
        <pt x="620" y="320" on="1"/>
      </contour>
    </TTGlyph>
    <TTGlyph name="SF030000" xMin="-20" yMin="-400" xMax="350" yMax="420">
      <contour>
        <pt x="250" y="-400" on="1"/>
        <pt x="250" y="320" on="1"/>
        <pt x="-20" y="320" on="1"/>
        <pt x="-20" y="420" on="1"/>
        <pt x="350" y="420" on="1"/>
        <pt x="350" y="-400" on="1"/>
      </contour>
    </TTGlyph>
    <TTGlyph name="SF040000" xMin="-20" yMin="320" xMax="350" yMax="1120">
      <contour>
        <pt x="-20" y="320" on="1"/>
        <pt x="-20" y="420" on="1"/>
        <pt x="250" y="420" on="1"/>
        <pt x="250" y="1120" on="1"/>
        <pt x="350" y="1120" on="1"/>
        <pt x="350" y="320" on="1"/>
      </contour>
    </TTGlyph>
    <TTGlyph name="SF050000" xMin="-20" yMin="-400" xMax="620" yMax="1120">
      <contour>
        <pt x="250" y="-400" on="1"/>
        <pt x="250" y="320" on="1"/>
        <pt x="-20" y="320" on="1"/>
        <pt x="-20" y="420" on="1"/>
        <pt x="250" y="420" on="1"/>
        <pt x="250" y="1120" on="1"/>
        <pt x="350" y="1120" on="1"/>
        <pt x="350" y="420" on="1"/>
        <pt x="620" y="420" on="1"/>
        <pt x="620" y="320" on="1"/>
        <pt x="350" y="320" on="1"/>
        <pt x="350" y="-400" on="1"/>
      </contour>
    </TTGlyph>
    <TTGlyph name="SF060000" xMin="-20" yMin="-400" xMax="620" yMax="420">
      <contour>
        <pt x="250" y="-400" on="1"/>
        <pt x="250" y="320" on="1"/>
        <pt x="-20" y="320" on="1"/>
        <pt x="-20" y="420" on="1"/>
        <pt x="620" y="420" on="1"/>
        <pt x="620" y="320" on="1"/>
        <pt x="350" y="320" on="1"/>
        <pt x="350" y="-400" on="1"/>
      </contour>
    </TTGlyph>
    <TTGlyph name="SF070000" xMin="-20" yMin="320" xMax="620" yMax="1120">
      <contour>
        <pt x="-20" y="320" on="1"/>
        <pt x="-20" y="420" on="1"/>
        <pt x="250" y="420" on="1"/>
        <pt x="250" y="1120" on="1"/>
        <pt x="350" y="1120" on="1"/>
        <pt x="350" y="420" on="1"/>
        <pt x="620" y="420" on="1"/>
        <pt x="620" y="320" on="1"/>
      </contour>
    </TTGlyph>
    <TTGlyph name="SF080000" xMin="250" yMin="-400" xMax="620" yMax="1120">
      <contour>
        <pt x="250" y="-400" on="1"/>
        <pt x="250" y="1120" on="1"/>
        <pt x="350" y="1120" on="1"/>
        <pt x="350" y="420" on="1"/>
        <pt x="620" y="420" on="1"/>
        <pt x="620" y="320" on="1"/>
        <pt x="350" y="320" on="1"/>
        <pt x="350" y="-400" on="1"/>
      </contour>
    </TTGlyph>
    <TTGlyph name="SF090000" xMin="-20" yMin="-400" xMax="350" yMax="1120">
      <contour>
        <pt x="250" y="-400" on="1"/>
        <pt x="250" y="320" on="1"/>
        <pt x="-20" y="320" on="1"/>
        <pt x="-20" y="420" on="1"/>
        <pt x="250" y="420" on="1"/>
        <pt x="250" y="1120" on="1"/>
        <pt x="350" y="1120" on="1"/>
        <pt x="350" y="-400" on="1"/>
      </contour>
    </TTGlyph>
    <TTGlyph name="SF100000" xMin="-20" yMin="320" xMax="620" yMax="420">
      <contour>
        <pt x="-20" y="320" on="1"/>
        <pt x="-20" y="420" on="1"/>
        <pt x="620" y="420" on="1"/>
        <pt x="620" y="320" on="1"/>
      </contour>
    </TTGlyph>
    <TTGlyph name="SF110000" xMin="250" yMin="-400" xMax="350" yMax="1120">
      <contour>
        <pt x="250" y="-400" on="1"/>
        <pt x="250" y="1120" on="1"/>
        <pt x="350" y="1120" on="1"/>
        <pt x="350" y="-400" on="1"/>
      </contour>
    </TTGlyph>
    <TTGlyph name="SF190000" xMin="-20" yMin="-400" xMax="350" yMax="1120">
      <contour>
        <pt x="250" y="-400" on="1"/>
        <pt x="250" y="220" on="1"/>
        <pt x="-20" y="220" on="1"/>
        <pt x="-20" y="320" on="1"/>
        <pt x="250" y="320" on="1"/>
        <pt x="250" y="420" on="1"/>
        <pt x="-20" y="420" on="1"/>
        <pt x="-20" y="520" on="1"/>
        <pt x="250" y="520" on="1"/>
        <pt x="250" y="1120" on="1"/>
        <pt x="350" y="1120" on="1"/>
        <pt x="350" y="-400" on="1"/>
      </contour>
    </TTGlyph>
    <TTGlyph name="SF200000" xMin="-20" yMin="-400" xMax="450" yMax="1120">
      <contour>
        <pt x="150" y="-400" on="1"/>
        <pt x="150" y="320" on="1"/>
        <pt x="-20" y="320" on="1"/>
        <pt x="-20" y="420" on="1"/>
        <pt x="150" y="420" on="1"/>
        <pt x="150" y="1120" on="1"/>
        <pt x="250" y="1120" on="1"/>
        <pt x="250" y="-400" on="1"/>
      </contour>
      <contour>
        <pt x="350" y="-400" on="1"/>
        <pt x="350" y="1120" on="1"/>
        <pt x="450" y="1120" on="1"/>
        <pt x="450" y="-400" on="1"/>
      </contour>
    </TTGlyph>
    <TTGlyph name="SF210000" xMin="-20" yMin="-400" xMax="450" yMax="420">
      <contour>
        <pt x="150" y="-400" on="1"/>
        <pt x="150" y="320" on="1"/>
        <pt x="-20" y="320" on="1"/>
        <pt x="-20" y="420" on="1"/>
        <pt x="450" y="420" on="1"/>
        <pt x="450" y="-400" on="1"/>
        <pt x="350" y="-400" on="1"/>
        <pt x="350" y="320" on="1"/>
        <pt x="250" y="320" on="1"/>
        <pt x="250" y="-400" on="1"/>
      </contour>
    </TTGlyph>
    <TTGlyph name="SF220000" xMin="-20" yMin="-400" xMax="350" yMax="520">
      <contour>
        <pt x="250" y="-400" on="1"/>
        <pt x="250" y="220" on="1"/>
        <pt x="-20" y="220" on="1"/>
        <pt x="-20" y="320" on="1"/>
        <pt x="250" y="320" on="1"/>
        <pt x="250" y="420" on="1"/>
        <pt x="-20" y="420" on="1"/>
        <pt x="-20" y="520" on="1"/>
        <pt x="350" y="520" on="1"/>
        <pt x="350" y="-400" on="1"/>
      </contour>
    </TTGlyph>
    <TTGlyph name="SF230000" xMin="-20" yMin="-400" xMax="450" yMax="1120">
      <contour>
        <pt x="350" y="-400" on="1"/>
        <pt x="350" y="1120" on="1"/>
        <pt x="450" y="1120" on="1"/>
        <pt x="450" y="-400" on="1"/>
      </contour>
      <contour>
        <pt x="-20" y="420" on="1"/>
        <pt x="-20" y="520" on="1"/>
        <pt x="150" y="520" on="1"/>
        <pt x="150" y="1120" on="1"/>
        <pt x="250" y="1120" on="1"/>
        <pt x="250" y="420" on="1"/>
      </contour>
      <contour>
        <pt x="150" y="-400" on="1"/>
        <pt x="150" y="220" on="1"/>
        <pt x="-20" y="220" on="1"/>
        <pt x="-20" y="320" on="1"/>
        <pt x="250" y="320" on="1"/>
        <pt x="250" y="-400" on="1"/>
      </contour>
    </TTGlyph>
    <TTGlyph name="SF240000" xMin="150" yMin="-400" xMax="450" yMax="1120">
      <contour>
        <pt x="350" y="-400" on="1"/>
        <pt x="350" y="1120" on="1"/>
        <pt x="450" y="1120" on="1"/>
        <pt x="450" y="-400" on="1"/>
      </contour>
      <contour>
        <pt x="150" y="-400" on="1"/>
        <pt x="150" y="1120" on="1"/>
        <pt x="250" y="1120" on="1"/>
        <pt x="250" y="-400" on="1"/>
      </contour>
    </TTGlyph>
    <TTGlyph name="SF250000" xMin="-20" yMin="-400" xMax="450" yMax="520">
      <contour>
        <pt x="350" y="-400" on="1"/>
        <pt x="350" y="420" on="1"/>
        <pt x="-20" y="420" on="1"/>
        <pt x="-20" y="520" on="1"/>
        <pt x="450" y="520" on="1"/>
        <pt x="450" y="-400" on="1"/>
      </contour>
      <contour>
        <pt x="150" y="-400" on="1"/>
        <pt x="150" y="220" on="1"/>
        <pt x="-20" y="220" on="1"/>
        <pt x="-20" y="320" on="1"/>
        <pt x="250" y="320" on="1"/>
        <pt x="250" y="-400" on="1"/>
      </contour>
    </TTGlyph>
    <TTGlyph name="SF260000" xMin="-20" yMin="220" xMax="450" yMax="1120">
      <contour>
        <pt x="-20" y="220" on="1"/>
        <pt x="-20" y="320" on="1"/>
        <pt x="350" y="320" on="1"/>
        <pt x="350" y="1120" on="1"/>
        <pt x="450" y="1120" on="1"/>
        <pt x="450" y="220" on="1"/>
      </contour>
      <contour>
        <pt x="-20" y="420" on="1"/>
        <pt x="-20" y="520" on="1"/>
        <pt x="150" y="520" on="1"/>
        <pt x="150" y="1120" on="1"/>
        <pt x="250" y="1120" on="1"/>
        <pt x="250" y="420" on="1"/>
      </contour>
    </TTGlyph>
    <TTGlyph name="SF270000" xMin="-20" yMin="320" xMax="450" yMax="1120">
      <contour>
        <pt x="-20" y="320" on="1"/>
        <pt x="-20" y="420" on="1"/>
        <pt x="150" y="420" on="1"/>
        <pt x="150" y="1120" on="1"/>
        <pt x="250" y="1120" on="1"/>
        <pt x="250" y="420" on="1"/>
        <pt x="350" y="420" on="1"/>
        <pt x="350" y="1120" on="1"/>
        <pt x="450" y="1120" on="1"/>
        <pt x="450" y="320" on="1"/>
      </contour>
    </TTGlyph>
    <TTGlyph name="SF280000" xMin="-20" yMin="220" xMax="350" yMax="1120">
      <contour>
        <pt x="-20" y="220" on="1"/>
        <pt x="-20" y="320" on="1"/>
        <pt x="250" y="320" on="1"/>
        <pt x="250" y="420" on="1"/>
        <pt x="-20" y="420" on="1"/>
        <pt x="-20" y="520" on="1"/>
        <pt x="250" y="520" on="1"/>
        <pt x="250" y="1120" on="1"/>
        <pt x="350" y="1120" on="1"/>
        <pt x="350" y="220" on="1"/>
      </contour>
    </TTGlyph>
    <TTGlyph name="SF360000" xMin="250" yMin="-400" xMax="620" yMax="1120">
      <contour>
        <pt x="250" y="-400" on="1"/>
        <pt x="250" y="1120" on="1"/>
        <pt x="350" y="1120" on="1"/>
        <pt x="350" y="520" on="1"/>
        <pt x="620" y="520" on="1"/>
        <pt x="620" y="420" on="1"/>
        <pt x="350" y="420" on="1"/>
        <pt x="350" y="320" on="1"/>
        <pt x="620" y="320" on="1"/>
        <pt x="620" y="220" on="1"/>
        <pt x="350" y="220" on="1"/>
        <pt x="350" y="-400" on="1"/>
      </contour>
    </TTGlyph>
    <TTGlyph name="SF370000" xMin="150" yMin="-400" xMax="620" yMax="1120">
      <contour>
        <pt x="350" y="-400" on="1"/>
        <pt x="350" y="1120" on="1"/>
        <pt x="450" y="1120" on="1"/>
        <pt x="450" y="420" on="1"/>
        <pt x="620" y="420" on="1"/>
        <pt x="620" y="320" on="1"/>
        <pt x="450" y="320" on="1"/>
        <pt x="450" y="-400" on="1"/>
      </contour>
      <contour>
        <pt x="150" y="-400" on="1"/>
        <pt x="150" y="1120" on="1"/>
        <pt x="250" y="1120" on="1"/>
        <pt x="250" y="-400" on="1"/>
      </contour>
    </TTGlyph>
    <TTGlyph name="SF380000" xMin="150" yMin="220" xMax="620" yMax="1120">
      <contour>
        <pt x="150" y="220" on="1"/>
        <pt x="150" y="1120" on="1"/>
        <pt x="250" y="1120" on="1"/>
        <pt x="250" y="320" on="1"/>
        <pt x="620" y="320" on="1"/>
        <pt x="620" y="220" on="1"/>
      </contour>
      <contour>
        <pt x="350" y="420" on="1"/>
        <pt x="350" y="1120" on="1"/>
        <pt x="450" y="1120" on="1"/>
        <pt x="450" y="520" on="1"/>
        <pt x="620" y="520" on="1"/>
        <pt x="620" y="420" on="1"/>
      </contour>
    </TTGlyph>
    <TTGlyph name="SF390000" xMin="150" yMin="-400" xMax="620" yMax="520">
      <contour>
        <pt x="150" y="-400" on="1"/>
        <pt x="150" y="520" on="1"/>
        <pt x="620" y="520" on="1"/>
        <pt x="620" y="420" on="1"/>
        <pt x="250" y="420" on="1"/>
        <pt x="250" y="-400" on="1"/>
      </contour>
      <contour>
        <pt x="350" y="-400" on="1"/>
        <pt x="350" y="320" on="1"/>
        <pt x="620" y="320" on="1"/>
        <pt x="620" y="220" on="1"/>
        <pt x="450" y="220" on="1"/>
        <pt x="450" y="-400" on="1"/>
      </contour>
    </TTGlyph>
    <TTGlyph name="SF400000" xMin="-20" yMin="220" xMax="620" yMax="1120">
      <contour>
        <pt x="350" y="420" on="1"/>
        <pt x="350" y="1120" on="1"/>
        <pt x="450" y="1120" on="1"/>
        <pt x="450" y="520" on="1"/>
        <pt x="620" y="520" on="1"/>
        <pt x="620" y="420" on="1"/>
      </contour>
      <contour>
        <pt x="-20" y="420" on="1"/>
        <pt x="-20" y="520" on="1"/>
        <pt x="150" y="520" on="1"/>
        <pt x="150" y="1120" on="1"/>
        <pt x="250" y="1120" on="1"/>
        <pt x="250" y="420" on="1"/>
      </contour>
      <contour>
        <pt x="-20" y="220" on="1"/>
        <pt x="-20" y="320" on="1"/>
        <pt x="620" y="320" on="1"/>
        <pt x="620" y="220" on="1"/>
      </contour>
    </TTGlyph>
    <TTGlyph name="SF410000" xMin="-20" yMin="-400" xMax="620" yMax="520">
      <contour>
        <pt x="-20" y="420" on="1"/>
        <pt x="-20" y="520" on="1"/>
        <pt x="620" y="520" on="1"/>
        <pt x="620" y="420" on="1"/>
      </contour>
      <contour>
        <pt x="350" y="-400" on="1"/>
        <pt x="350" y="320" on="1"/>
        <pt x="620" y="320" on="1"/>
        <pt x="620" y="220" on="1"/>
        <pt x="450" y="220" on="1"/>
        <pt x="450" y="-400" on="1"/>
      </contour>
      <contour>
        <pt x="150" y="-400" on="1"/>
        <pt x="150" y="220" on="1"/>
        <pt x="-20" y="220" on="1"/>
        <pt x="-20" y="320" on="1"/>
        <pt x="250" y="320" on="1"/>
        <pt x="250" y="-400" on="1"/>
      </contour>
    </TTGlyph>
    <TTGlyph name="SF420000" xMin="150" yMin="-400" xMax="620" yMax="1120">
      <contour>
        <pt x="150" y="-400" on="1"/>
        <pt x="150" y="1120" on="1"/>
        <pt x="250" y="1120" on="1"/>
        <pt x="250" y="-400" on="1"/>
      </contour>
      <contour>
        <pt x="350" y="420" on="1"/>
        <pt x="350" y="1120" on="1"/>
        <pt x="450" y="1120" on="1"/>
        <pt x="450" y="520" on="1"/>
        <pt x="620" y="520" on="1"/>
        <pt x="620" y="420" on="1"/>
      </contour>
      <contour>
        <pt x="350" y="-400" on="1"/>
        <pt x="350" y="320" on="1"/>
        <pt x="620" y="320" on="1"/>
        <pt x="620" y="220" on="1"/>
        <pt x="450" y="220" on="1"/>
        <pt x="450" y="-400" on="1"/>
      </contour>
    </TTGlyph>
    <TTGlyph name="SF430000" xMin="-20" yMin="220" xMax="620" yMax="520">
      <contour>
        <pt x="-20" y="420" on="1"/>
        <pt x="-20" y="520" on="1"/>
        <pt x="620" y="520" on="1"/>
        <pt x="620" y="420" on="1"/>
      </contour>
      <contour>
        <pt x="-20" y="220" on="1"/>
        <pt x="-20" y="320" on="1"/>
        <pt x="620" y="320" on="1"/>
        <pt x="620" y="220" on="1"/>
      </contour>
    </TTGlyph>
    <TTGlyph name="SF440000" xMin="-20" yMin="-400" xMax="620" yMax="1120">
      <contour>
        <pt x="-20" y="420" on="1"/>
        <pt x="-20" y="520" on="1"/>
        <pt x="150" y="520" on="1"/>
        <pt x="150" y="1120" on="1"/>
        <pt x="250" y="1120" on="1"/>
        <pt x="250" y="420" on="1"/>
      </contour>
      <contour>
        <pt x="350" y="420" on="1"/>
        <pt x="350" y="1120" on="1"/>
        <pt x="450" y="1120" on="1"/>
        <pt x="450" y="520" on="1"/>
        <pt x="620" y="520" on="1"/>
        <pt x="620" y="420" on="1"/>
      </contour>
      <contour>
        <pt x="350" y="-400" on="1"/>
        <pt x="350" y="320" on="1"/>
        <pt x="620" y="320" on="1"/>
        <pt x="620" y="220" on="1"/>
        <pt x="450" y="220" on="1"/>
        <pt x="450" y="-400" on="1"/>
      </contour>
      <contour>
        <pt x="150" y="-400" on="1"/>
        <pt x="150" y="220" on="1"/>
        <pt x="-20" y="220" on="1"/>
        <pt x="-20" y="320" on="1"/>
        <pt x="250" y="320" on="1"/>
        <pt x="250" y="-400" on="1"/>
      </contour>
    </TTGlyph>
    <TTGlyph name="SF450000" xMin="-20" yMin="220" xMax="620" yMax="1120">
      <contour>
        <pt x="-20" y="420" on="1"/>
        <pt x="-20" y="520" on="1"/>
        <pt x="250" y="520" on="1"/>
        <pt x="250" y="1120" on="1"/>
        <pt x="350" y="1120" on="1"/>
        <pt x="350" y="520" on="1"/>
        <pt x="620" y="520" on="1"/>
        <pt x="620" y="420" on="1"/>
      </contour>
      <contour>
        <pt x="-20" y="220" on="1"/>
        <pt x="-20" y="320" on="1"/>
        <pt x="620" y="320" on="1"/>
        <pt x="620" y="220" on="1"/>
      </contour>
    </TTGlyph>
    <TTGlyph name="SF460000" xMin="-20" yMin="320" xMax="620" yMax="1120">
      <contour>
        <pt x="-20" y="320" on="1"/>
        <pt x="-20" y="420" on="1"/>
        <pt x="150" y="420" on="1"/>
        <pt x="150" y="1120" on="1"/>
        <pt x="250" y="1120" on="1"/>
        <pt x="250" y="420" on="1"/>
        <pt x="350" y="420" on="1"/>
        <pt x="350" y="1120" on="1"/>
        <pt x="450" y="1120" on="1"/>
        <pt x="450" y="420" on="1"/>
        <pt x="620" y="420" on="1"/>
        <pt x="620" y="320" on="1"/>
      </contour>
    </TTGlyph>
    <TTGlyph name="SF470000" xMin="-20" yMin="-400" xMax="620" yMax="520">
      <contour>
        <pt x="-20" y="420" on="1"/>
        <pt x="-20" y="520" on="1"/>
        <pt x="620" y="520" on="1"/>
        <pt x="620" y="420" on="1"/>
      </contour>
      <contour>
        <pt x="250" y="-400" on="1"/>
        <pt x="250" y="220" on="1"/>
        <pt x="-20" y="220" on="1"/>
        <pt x="-20" y="320" on="1"/>
        <pt x="620" y="320" on="1"/>
        <pt x="620" y="220" on="1"/>
        <pt x="350" y="220" on="1"/>
        <pt x="350" y="-400" on="1"/>
      </contour>
    </TTGlyph>
    <TTGlyph name="SF480000" xMin="-20" yMin="-400" xMax="620" yMax="420">
      <contour>
        <pt x="150" y="-400" on="1"/>
        <pt x="150" y="320" on="1"/>
        <pt x="-20" y="320" on="1"/>
        <pt x="-20" y="420" on="1"/>
        <pt x="620" y="420" on="1"/>
        <pt x="620" y="320" on="1"/>
        <pt x="450" y="320" on="1"/>
        <pt x="450" y="-400" on="1"/>
        <pt x="350" y="-400" on="1"/>
        <pt x="350" y="320" on="1"/>
        <pt x="250" y="320" on="1"/>
        <pt x="250" y="-400" on="1"/>
      </contour>
    </TTGlyph>
    <TTGlyph name="SF490000" xMin="150" yMin="320" xMax="620" yMax="1120">
      <contour>
        <pt x="150" y="320" on="1"/>
        <pt x="150" y="1120" on="1"/>
        <pt x="250" y="1120" on="1"/>
        <pt x="250" y="420" on="1"/>
        <pt x="350" y="420" on="1"/>
        <pt x="350" y="1120" on="1"/>
        <pt x="450" y="1120" on="1"/>
        <pt x="450" y="420" on="1"/>
        <pt x="620" y="420" on="1"/>
        <pt x="620" y="320" on="1"/>
      </contour>
    </TTGlyph>
    <TTGlyph name="SF500000" xMin="250" yMin="220" xMax="620" yMax="1120">
      <contour>
        <pt x="250" y="220" on="1"/>
        <pt x="250" y="1120" on="1"/>
        <pt x="350" y="1120" on="1"/>
        <pt x="350" y="520" on="1"/>
        <pt x="620" y="520" on="1"/>
        <pt x="620" y="420" on="1"/>
        <pt x="350" y="420" on="1"/>
        <pt x="350" y="320" on="1"/>
        <pt x="620" y="320" on="1"/>
        <pt x="620" y="220" on="1"/>
      </contour>
    </TTGlyph>
    <TTGlyph name="SF510000" xMin="250" yMin="-400" xMax="620" yMax="520">
      <contour>
        <pt x="250" y="-400" on="1"/>
        <pt x="250" y="520" on="1"/>
        <pt x="620" y="520" on="1"/>
        <pt x="620" y="420" on="1"/>
        <pt x="350" y="420" on="1"/>
        <pt x="350" y="320" on="1"/>
        <pt x="620" y="320" on="1"/>
        <pt x="620" y="220" on="1"/>
        <pt x="350" y="220" on="1"/>
        <pt x="350" y="-400" on="1"/>
      </contour>
    </TTGlyph>
    <TTGlyph name="SF520000" xMin="150" yMin="-400" xMax="620" yMax="420">
      <contour>
        <pt x="150" y="-400" on="1"/>
        <pt x="150" y="420" on="1"/>
        <pt x="620" y="420" on="1"/>
        <pt x="620" y="320" on="1"/>
        <pt x="450" y="320" on="1"/>
        <pt x="450" y="-400" on="1"/>
        <pt x="350" y="-400" on="1"/>
        <pt x="350" y="320" on="1"/>
        <pt x="250" y="320" on="1"/>
        <pt x="250" y="-400" on="1"/>
      </contour>
    </TTGlyph>
    <TTGlyph name="SF530000" xMin="-20" yMin="-400" xMax="620" yMax="1120">
      <contour>
        <pt x="150" y="-400" on="1"/>
        <pt x="150" y="320" on="1"/>
        <pt x="-20" y="320" on="1"/>
        <pt x="-20" y="420" on="1"/>
        <pt x="150" y="420" on="1"/>
        <pt x="150" y="1120" on="1"/>
        <pt x="250" y="1120" on="1"/>
        <pt x="250" y="420" on="1"/>
        <pt x="350" y="420" on="1"/>
        <pt x="350" y="1120" on="1"/>
        <pt x="450" y="1120" on="1"/>
        <pt x="450" y="420" on="1"/>
        <pt x="620" y="420" on="1"/>
        <pt x="620" y="320" on="1"/>
        <pt x="450" y="320" on="1"/>
        <pt x="450" y="-400" on="1"/>
        <pt x="350" y="-400" on="1"/>
        <pt x="350" y="320" on="1"/>
        <pt x="250" y="320" on="1"/>
        <pt x="250" y="-400" on="1"/>
      </contour>
    </TTGlyph>
    <TTGlyph name="SF540000" xMin="-20" yMin="-400" xMax="620" yMax="1120">
      <contour>
        <pt x="250" y="-400" on="1"/>
        <pt x="250" y="220" on="1"/>
        <pt x="-20" y="220" on="1"/>
        <pt x="-20" y="320" on="1"/>
        <pt x="250" y="320" on="1"/>
        <pt x="250" y="420" on="1"/>
        <pt x="-20" y="420" on="1"/>
        <pt x="-20" y="520" on="1"/>
        <pt x="250" y="520" on="1"/>
        <pt x="250" y="1120" on="1"/>
        <pt x="350" y="1120" on="1"/>
        <pt x="350" y="520" on="1"/>
        <pt x="620" y="520" on="1"/>
        <pt x="620" y="420" on="1"/>
        <pt x="350" y="420" on="1"/>
        <pt x="350" y="320" on="1"/>
        <pt x="620" y="320" on="1"/>
        <pt x="620" y="220" on="1"/>
        <pt x="350" y="220" on="1"/>
        <pt x="350" y="-400" on="1"/>
      </contour>
    </TTGlyph>
    <TTGlyph name="T" xMin="209" yMin="-5" xMax="691" yMax="750">
      <contour>
        <pt x="299" y="-5" on="1"/>
        <pt x="280" y="-5" on="0"/>
        <pt x="270" y="8" on="1"/>
        <pt x="263" y="17" on="0"/>
        <pt x="263" y="30" on="1"/>
        <pt x="263" y="35" on="0"/>
        <pt x="391" y="638" on="0"/>
        <pt x="391" y="639" on="1"/>
        <pt x="391" y="647" on="0"/>
        <pt x="382" y="660" on="0"/>
        <pt x="372" y="660" on="1"/>
        <pt x="245" y="660" on="1"/>
        <pt x="227" y="660" on="0"/>
        <pt x="209" y="683" on="0"/>
        <pt x="209" y="695" on="1"/>
        <pt x="209" y="719" on="0"/>
        <pt x="231" y="737" on="1"/>
        <pt x="246" y="750" on="0"/>
        <pt x="265" y="750" on="1"/>
        <pt x="655" y="750" on="1"/>
        <pt x="673" y="750" on="0"/>
        <pt x="691" y="727" on="0"/>
        <pt x="691" y="715" on="1"/>
        <pt x="691" y="691" on="0"/>
        <pt x="670" y="673" on="1"/>
        <pt x="654" y="660" on="0"/>
        <pt x="635" y="660" on="1"/>
        <pt x="509" y="660" on="1"/>
        <pt x="499" y="660" on="0"/>
        <pt x="483" y="646" on="0"/>
        <pt x="481" y="636" on="1"/>
        <pt x="354" y="40" on="1"/>
        <pt x="349" y="21" on="0"/>
        <pt x="318" y="-5" on="0"/>
      </contour>
    </TTGlyph>
    <TTGlyph name="U" xMin="119" yMin="-5" xMax="670" yMax="755">
      <contour>
        <pt x="297" y="-5" on="1"/>
        <pt x="206" y="-5" on="0"/>
        <pt x="156" y="57" on="1"/>
        <pt x="119" y="103" on="0"/>
        <pt x="119" y="167" on="1"/>
        <pt x="119" y="190" on="0"/>
        <pt x="124" y="215" on="1"/>
        <pt x="229" y="710" on="1"/>
        <pt x="234" y="729" on="0"/>
        <pt x="265" y="755" on="0"/>
        <pt x="284" y="755" on="1"/>
        <pt x="302" y="755" on="0"/>
        <pt x="313" y="742" on="1"/>
        <pt x="320" y="733" on="0"/>
        <pt x="320" y="720" on="1"/>
        <pt x="320" y="715" on="0"/>
        <pt x="214" y="215" on="1"/>
        <pt x="211" y="200" on="0"/>
        <pt x="211" y="186" on="1"/>
        <pt x="211" y="149" on="0"/>
        <pt x="262" y="85" on="0"/>
        <pt x="316" y="85" on="1"/>
        <pt x="371" y="85" on="0"/>
        <pt x="461" y="159" on="0"/>
        <pt x="474" y="215" on="1"/>
        <pt x="579" y="710" on="1"/>
        <pt x="584" y="729" on="0"/>
        <pt x="615" y="755" on="0"/>
        <pt x="634" y="755" on="1"/>
        <pt x="652" y="755" on="0"/>
        <pt x="663" y="742" on="1"/>
        <pt x="670" y="733" on="0"/>
        <pt x="670" y="720" on="1"/>
        <pt x="670" y="715" on="0"/>
        <pt x="564" y="215" on="1"/>
        <pt x="541" y="119" on="0"/>
        <pt x="388" y="-5" on="0"/>
      </contour>
    </TTGlyph>
    <TTGlyph name="V" xMin="213" yMin="-5" xMax="689" yMax="755">
      <contour>
        <pt x="302" y="-5" on="1"/>
        <pt x="252" y="-5" on="0"/>
        <pt x="250" y="40" on="1"/>
        <pt x="213" y="698" on="1"/>
        <pt x="213" y="706" on="0"/>
        <pt x="214" y="709" on="0"/>
        <pt x="214" y="713" on="1"/>
        <pt x="215" y="714" on="1"/>
        <pt x="219" y="731" on="0"/>
        <pt x="251" y="755" on="0"/>
        <pt x="269" y="755" on="1"/>
        <pt x="284" y="755" on="0"/>
        <pt x="304" y="736" on="0"/>
        <pt x="305" y="721" on="1"/>
        <pt x="333" y="209" on="1"/>
        <pt x="335" y="201" on="0"/>
        <pt x="343" y="201" on="1"/>
        <pt x="350" y="201" on="0"/>
        <pt x="356" y="209" on="1"/>
        <pt x="601" y="721" on="1"/>
        <pt x="609" y="736" on="0"/>
        <pt x="637" y="755" on="0"/>
        <pt x="652" y="755" on="1"/>
        <pt x="672" y="755" on="0"/>
        <pt x="682" y="741" on="1"/>
        <pt x="689" y="731" on="0"/>
        <pt x="689" y="718" on="1"/>
        <pt x="689" y="714" on="0"/>
        <pt x="687" y="706" on="0"/>
        <pt x="686" y="703" on="0"/>
        <pt x="369" y="40" on="1"/>
        <pt x="359" y="20" on="0"/>
        <pt x="322" y="-5" on="0"/>
      </contour>
    </TTGlyph>
    <TTGlyph name="W" xMin="97" yMin="-5" xMax="699" yMax="755">
      <contour>
        <pt x="457" y="-5" on="1"/>
        <pt x="422" y="-5" on="0"/>
        <pt x="414" y="32" on="1"/>
        <pt x="384" y="339" on="1"/>
        <pt x="382" y="347" on="0"/>
        <pt x="375" y="347" on="1"/>
        <pt x="367" y="347" on="0"/>
        <pt x="362" y="339" on="1"/>
        <pt x="200" y="31" on="1"/>
        <pt x="175" y="-5" on="0"/>
        <pt x="141" y="-5" on="1"/>
        <pt x="119" y="-5" on="0"/>
        <pt x="97" y="20" on="0"/>
        <pt x="97" y="36" on="1"/>
        <pt x="97" y="40" on="0"/>
        <pt x="204" y="713" on="1"/>
        <pt x="209" y="731" on="0"/>
        <pt x="240" y="755" on="0"/>
        <pt x="258" y="755" on="1"/>
        <pt x="276" y="755" on="0"/>
        <pt x="294" y="733" on="0"/>
        <pt x="294" y="720" on="1"/>
        <pt x="218" y="250" on="1"/>
        <pt x="218" y="242" on="0"/>
        <pt x="226" y="242" on="1"/>
        <pt x="234" y="242" on="0"/>
        <pt x="239" y="250" on="1"/>
        <pt x="353" y="476" on="1"/>
        <pt x="361" y="491" on="0"/>
        <pt x="393" y="510" on="0"/>
        <pt x="409" y="510" on="1"/>
        <pt x="442" y="510" on="0"/>
        <pt x="450" y="475" on="1"/>
        <pt x="467" y="252" on="1"/>
        <pt x="467" y="244" on="0"/>
        <pt x="476" y="244" on="1"/>
        <pt x="480" y="244" on="0"/>
        <pt x="489" y="250" on="0"/>
        <pt x="490" y="255" on="1"/>
        <pt x="608" y="712" on="1"/>
        <pt x="613" y="730" on="0"/>
        <pt x="644" y="755" on="0"/>
        <pt x="662" y="755" on="1"/>
        <pt x="681" y="755" on="0"/>
        <pt x="691" y="742" on="1"/>
        <pt x="699" y="733" on="0"/>
        <pt x="699" y="721" on="1"/>
        <pt x="699" y="716" on="0"/>
        <pt x="522" y="46" on="1"/>
        <pt x="516" y="24" on="0"/>
        <pt x="479" y="-5" on="0"/>
      </contour>
    </TTGlyph>
    <TTGlyph name="X" xMin="77" yMin="-5" xMax="671" yMax="756">
      <contour>
        <pt x="485" y="-5" on="1"/>
        <pt x="459" y="-5" on="0"/>
        <pt x="450" y="18" on="1"/>
        <pt x="369" y="273" on="1"/>
        <pt x="366" y="279" on="0"/>
        <pt x="360" y="279" on="1"/>
        <pt x="354" y="279" on="0"/>
        <pt x="349" y="273" on="1"/>
        <pt x="159" y="18" on="1"/>
        <pt x="139" y="-5" on="0"/>
        <pt x="115" y="-5" on="1"/>
        <pt x="95" y="-5" on="0"/>
        <pt x="77" y="18" on="0"/>
        <pt x="77" y="31" on="1"/>
        <pt x="78" y="46" on="0"/>
        <pt x="89" y="61" on="1"/>
        <pt x="323" y="375" on="1"/>
        <pt x="329" y="382" on="0"/>
        <pt x="329" y="393" on="1"/>
        <pt x="328" y="398" on="1"/>
        <pt x="233" y="694" on="0"/>
        <pt x="233" y="700" on="1"/>
        <pt x="233" y="724" on="0"/>
        <pt x="253" y="743" on="1"/>
        <pt x="268" y="756" on="0"/>
        <pt x="288" y="756" on="1"/>
        <pt x="314" y="756" on="0"/>
        <pt x="324" y="732" on="1"/>
        <pt x="397" y="500" on="1"/>
        <pt x="400" y="493" on="0"/>
        <pt x="406" y="493" on="1"/>
        <pt x="412" y="493" on="0"/>
        <pt x="417" y="500" on="1"/>
        <pt x="590" y="732" on="1"/>
        <pt x="609" y="756" on="0"/>
        <pt x="635" y="756" on="1"/>
        <pt x="654" y="756" on="0"/>
        <pt x="664" y="742" on="1"/>
        <pt x="671" y="732" on="0"/>
        <pt x="671" y="720" on="1"/>
        <pt x="670" y="705" on="0"/>
        <pt x="659" y="689" on="1"/>
        <pt x="443" y="398" on="1"/>
        <pt x="437" y="392" on="0"/>
        <pt x="437" y="383" on="1"/>
        <pt x="437" y="379" on="0"/>
        <pt x="538" y="61" on="1"/>
        <pt x="540" y="54" on="0"/>
        <pt x="540" y="48" on="1"/>
        <pt x="540" y="25" on="0"/>
        <pt x="520" y="8" on="1"/>
        <pt x="504" y="-5" on="0"/>
      </contour>
    </TTGlyph>
    <TTGlyph name="Y" xMin="230" yMin="-5" xMax="672" yMax="755">
      <contour>
        <pt x="300" y="-5" on="1"/>
        <pt x="281" y="-5" on="0"/>
        <pt x="271" y="8" on="1"/>
        <pt x="264" y="17" on="0"/>
        <pt x="264" y="30" on="1"/>
        <pt x="264" y="35" on="0"/>
        <pt x="336" y="379" on="0"/>
        <pt x="336" y="384" on="1"/>
        <pt x="336" y="391" on="0"/>
        <pt x="334" y="397" on="1"/>
        <pt x="232" y="688" on="1"/>
        <pt x="230" y="694" on="0"/>
        <pt x="230" y="701" on="1"/>
        <pt x="230" y="724" on="0"/>
        <pt x="250" y="742" on="1"/>
        <pt x="265" y="755" on="0"/>
        <pt x="284" y="755" on="1"/>
        <pt x="309" y="755" on="0"/>
        <pt x="320" y="733" on="1"/>
        <pt x="392" y="523" on="1"/>
        <pt x="398" y="512" on="0"/>
        <pt x="410" y="512" on="1"/>
        <pt x="421" y="512" on="0"/>
        <pt x="432" y="523" on="1"/>
        <pt x="593" y="733" on="1"/>
        <pt x="612" y="755" on="0"/>
        <pt x="636" y="755" on="1"/>
        <pt x="656" y="755" on="0"/>
        <pt x="665" y="742" on="1"/>
        <pt x="672" y="733" on="0"/>
        <pt x="672" y="720" on="1"/>
        <pt x="672" y="703" on="0"/>
        <pt x="660" y="688" on="1"/>
        <pt x="437" y="398" on="1"/>
        <pt x="428" y="387" on="0"/>
        <pt x="426" y="376" on="1"/>
        <pt x="355" y="40" on="1"/>
        <pt x="350" y="21" on="0"/>
        <pt x="319" y="-5" on="0"/>
      </contour>
    </TTGlyph>
    <TTGlyph name="Z" xMin="93" yMin="0" xMax="666" yMax="750">
      <contour>
        <pt x="475" y="0" on="1"/>
        <pt x="151" y="0" on="1"/>
        <pt x="122" y="0" on="0"/>
        <pt x="106" y="20" on="1"/>
        <pt x="93" y="36" on="0"/>
        <pt x="93" y="56" on="1"/>
        <pt x="93" y="83" on="0"/>
        <pt x="113" y="107" on="1"/>
        <pt x="528" y="625" on="1"/>
        <pt x="534" y="634" on="0"/>
        <pt x="534" y="640" on="1"/>
        <pt x="534" y="647" on="0"/>
        <pt x="525" y="660" on="0"/>
        <pt x="514" y="660" on="1"/>
        <pt x="265" y="660" on="1"/>
        <pt x="247" y="660" on="0"/>
        <pt x="229" y="683" on="0"/>
        <pt x="229" y="695" on="1"/>
        <pt x="229" y="720" on="0"/>
        <pt x="250" y="737" on="1"/>
        <pt x="266" y="750" on="0"/>
        <pt x="284" y="750" on="1"/>
        <pt x="609" y="750" on="1"/>
        <pt x="639" y="750" on="0"/>
        <pt x="654" y="730" on="1"/>
        <pt x="666" y="715" on="0"/>
        <pt x="666" y="694" on="1"/>
        <pt x="666" y="670" on="0"/>
        <pt x="648" y="644" on="1"/>
        <pt x="233" y="126" on="1"/>
        <pt x="226" y="118" on="0"/>
        <pt x="226" y="109" on="1"/>
        <pt x="226" y="102" on="0"/>
        <pt x="235" y="90" on="0"/>
        <pt x="245" y="90" on="1"/>
        <pt x="494" y="90" on="1"/>
        <pt x="513" y="90" on="0"/>
        <pt x="531" y="67" on="0"/>
        <pt x="531" y="53" on="1"/>
        <pt x="531" y="31" on="0"/>
        <pt x="510" y="13" on="1"/>
        <pt x="494" y="0" on="0"/>
      </contour>
    </TTGlyph>
    <TTGlyph name="a" xMin="89" yMin="-5" xMax="610" yMax="555">
      <contour>
        <pt x="243" y="90" on="1"/>
        <pt x="318" y="91" on="0"/>
        <pt x="383" y="160" on="1"/>
        <pt x="441" y="224" on="0"/>
        <pt x="464" y="335" on="1"/>
        <pt x="467" y="351" on="0"/>
        <pt x="467" y="365" on="1"/>
        <pt x="467" y="386" on="0"/>
        <pt x="461" y="405" on="1"/>
        <pt x="445" y="454" on="0"/>
        <pt x="400" y="454" on="1"/>
        <pt x="364" y="454" on="0"/>
        <pt x="281" y="395" on="0"/>
        <pt x="206" y="288" on="0"/>
        <pt x="189" y="217" on="1"/>
        <pt x="183" y="186" on="0"/>
        <pt x="183" y="162" on="1"/>
        <pt x="183" y="90" on="0"/>
      </contour>
      <contour>
        <pt x="498" y="-5" on="1"/>
        <pt x="436" y="-5" on="0"/>
        <pt x="433" y="71" on="1"/>
        <pt x="432" y="96" on="0"/>
        <pt x="423" y="96" on="1"/>
        <pt x="416" y="96" on="0"/>
        <pt x="410" y="88" on="1"/>
        <pt x="387" y="57" on="0"/>
        <pt x="273" y="-5" on="0"/>
        <pt x="218" y="-5" on="1"/>
        <pt x="145" y="-5" on="0"/>
        <pt x="110" y="50" on="1"/>
        <pt x="89" y="83" on="0"/>
        <pt x="89" y="135" on="1"/>
        <pt x="89" y="170" on="0"/>
        <pt x="98" y="212" on="1"/>
        <pt x="118" y="304" on="0"/>
        <pt x="223" y="457" on="0"/>
        <pt x="355" y="555" on="0"/>
        <pt x="421" y="555" on="1"/>
        <pt x="467" y="554" on="0"/>
        <pt x="492" y="514" on="1"/>
        <pt x="496" y="508" on="0"/>
        <pt x="503" y="508" on="1"/>
        <pt x="513" y="508" on="0"/>
        <pt x="517" y="520" on="1"/>
        <pt x="529" y="555" on="0"/>
        <pt x="567" y="555" on="1"/>
        <pt x="583" y="555" on="0"/>
        <pt x="597" y="541" on="1"/>
        <pt x="604" y="532" on="0"/>
        <pt x="604" y="523" on="1"/>
        <pt x="603" y="515" on="1"/>
        <pt x="564" y="400" on="0"/>
        <pt x="528" y="231" on="1"/>
        <pt x="513" y="161" on="0"/>
        <pt x="513" y="115" on="1"/>
        <pt x="513" y="98" on="0"/>
        <pt x="515" y="87" on="1"/>
        <pt x="521" y="51" on="0"/>
        <pt x="538" y="51" on="1"/>
        <pt x="549" y="51" on="0"/>
        <pt x="573" y="66" on="1"/>
        <pt x="584" y="73" on="0"/>
        <pt x="591" y="73" on="1"/>
        <pt x="598" y="73" on="0"/>
        <pt x="610" y="59" on="0"/>
        <pt x="610" y="52" on="1"/>
        <pt x="610" y="37" on="0"/>
        <pt x="558" y="9" on="1"/>
        <pt x="532" y="-5" on="0"/>
      </contour>
    </TTGlyph>
    <TTGlyph name="ampersand" xMin="87" yMin="-5" xMax="617" yMax="755">
      <contour>
        <pt x="395" y="232" on="1"/>
        <pt x="270" y="410" on="1"/>
        <pt x="202" y="498" on="0"/>
        <pt x="220" y="582" on="1"/>
        <pt x="236" y="658" on="0"/>
        <pt x="361" y="755" on="0"/>
        <pt x="432" y="755" on="1"/>
        <pt x="483" y="755" on="0"/>
        <pt x="562" y="700" on="0"/>
        <pt x="571" y="645" on="1"/>
        <pt x="574" y="632" on="0"/>
        <pt x="573" y="626" on="1"/>
        <pt x="569" y="608" on="0"/>
        <pt x="538" y="581" on="0"/>
        <pt x="520" y="581" on="1"/>
        <pt x="487" y="581" on="0"/>
        <pt x="473" y="636" on="0"/>
        <pt x="436" y="661" on="0"/>
        <pt x="410" y="661" on="1"/>
        <pt x="374" y="661" on="0"/>
        <pt x="322" y="615" on="0"/>
        <pt x="315" y="583" on="1"/>
        <pt x="304" y="531" on="0"/>
        <pt x="353" y="464" on="1"/>
        <pt x="463" y="311" on="1"/>
        <pt x="434" y="261" on="0"/>
      </contour>
      <contour>
        <pt x="254" y="-5" on="1"/>
        <pt x="162" y="-5" on="0"/>
        <pt x="87" y="113" on="0"/>
        <pt x="106" y="200" on="1"/>
        <pt x="128" y="307" on="0"/>
        <pt x="191" y="378" on="1"/>
        <pt x="213" y="345" on="0"/>
        <pt x="243" y="313" on="1"/>
        <pt x="211" y="263" on="0"/>
        <pt x="198" y="200" on="1"/>
        <pt x="175" y="93" on="0"/>
        <pt x="275" y="93" on="1"/>
        <pt x="345" y="93" on="0"/>
        <pt x="423" y="166" on="1"/>
        <pt x="488" y="229" on="0"/>
        <pt x="524" y="313" on="1"/>
        <pt x="542" y="358" on="0"/>
        <pt x="579" y="358" on="1"/>
        <pt x="599" y="358" on="0"/>
        <pt x="617" y="333" on="0"/>
        <pt x="614" y="318" on="1"/>
        <pt x="602" y="261" on="0"/>
        <pt x="481" y="94" on="0"/>
        <pt x="324" y="-5" on="0"/>
      </contour>
      <contour>
        <pt x="517" y="-5" on="1"/>
        <pt x="483" y="-5" on="0"/>
        <pt x="490" y="36" on="1"/>
        <pt x="526" y="65" on="0"/>
        <pt x="561" y="113" on="1"/>
        <pt x="576" y="67" on="0"/>
        <pt x="571" y="42" on="1"/>
        <pt x="567" y="22" on="0"/>
        <pt x="536" y="-5" on="0"/>
      </contour>
    </TTGlyph>
    <TTGlyph name="arrow" xMin="141" yMin="4" xMax="549" yMax="609">
      <contour>
        <pt x="179" y="4" on="1"/>
        <pt x="158" y="4" on="0"/>
        <pt x="148" y="18" on="1"/>
        <pt x="141" y="27" on="0"/>
        <pt x="141" y="40" on="1"/>
        <pt x="141" y="65" on="0"/>
        <pt x="159" y="79" on="1"/>
        <pt x="418" y="293" on="1"/>
        <pt x="430" y="302" on="0"/>
        <pt x="430" y="314" on="1"/>
        <pt x="430" y="321" on="0"/>
        <pt x="425" y="326" on="1"/>
        <pt x="262" y="534" on="1"/>
        <pt x="255" y="543" on="0"/>
        <pt x="255" y="554" on="1"/>
        <pt x="255" y="575" on="0"/>
        <pt x="279" y="595" on="1"/>
        <pt x="296" y="609" on="0"/>
        <pt x="314" y="609" on="1"/>
        <pt x="329" y="609" on="0"/>
        <pt x="338" y="598" on="1"/>
        <pt x="543" y="338" on="1"/>
        <pt x="549" y="329" on="0"/>
        <pt x="549" y="319" on="1"/>
        <pt x="549" y="297" on="0"/>
        <pt x="531" y="281" on="1"/>
        <pt x="208" y="16" on="1"/>
        <pt x="194" y="4" on="0"/>
      </contour>
    </TTGlyph>
    <TTGlyph name="asciicircum" xMin="134" yMin="310" xMax="617" yMax="668">
      <contour>
        <pt x="561" y="310" on="1"/>
        <pt x="538" y="310" on="0"/>
        <pt x="527" y="333" on="1"/>
        <pt x="425" y="528" on="1"/>
        <pt x="421" y="536" on="0"/>
        <pt x="413" y="536" on="1"/>
        <pt x="405" y="536" on="0"/>
        <pt x="398" y="528" on="1"/>
        <pt x="215" y="332" on="1"/>
        <pt x="194" y="310" on="0"/>
        <pt x="171" y="310" on="1"/>
        <pt x="159" y="310" on="0"/>
        <pt x="148" y="317" on="1"/>
        <pt x="134" y="328" on="0"/>
        <pt x="134" y="346" on="1"/>
        <pt x="134" y="364" on="0"/>
        <pt x="146" y="378" on="1"/>
        <pt x="397" y="645" on="1"/>
        <pt x="419" y="668" on="0"/>
        <pt x="443" y="668" on="1"/>
        <pt x="465" y="668" on="0"/>
        <pt x="477" y="645" on="1"/>
        <pt x="614" y="377" on="1"/>
        <pt x="617" y="370" on="0"/>
        <pt x="617" y="363" on="1"/>
        <pt x="616" y="354" on="1"/>
        <pt x="609" y="329" on="0"/>
        <pt x="583" y="315" on="1"/>
        <pt x="572" y="310" on="0"/>
      </contour>
    </TTGlyph>
    <TTGlyph name="asciitilde" xMin="114" yMin="200" xMax="617" yMax="422">
      <contour>
        <pt x="450" y="200" on="1"/>
        <pt x="391" y="200" on="0"/>
        <pt x="340" y="267" on="1"/>
        <pt x="294" y="329" on="0"/>
        <pt x="263" y="329" on="1"/>
        <pt x="217" y="329" on="0"/>
        <pt x="201" y="272" on="1"/>
        <pt x="196" y="253" on="0"/>
        <pt x="168" y="231" on="0"/>
        <pt x="149" y="231" on="1"/>
        <pt x="131" y="231" on="0"/>
        <pt x="114" y="256" on="0"/>
        <pt x="119" y="277" on="1"/>
        <pt x="129" y="327" on="0"/>
        <pt x="171" y="371" on="1"/>
        <pt x="220" y="422" on="0"/>
        <pt x="286" y="422" on="1"/>
        <pt x="348" y="422" on="0"/>
        <pt x="395" y="355" on="1"/>
        <pt x="422" y="319" on="0"/>
        <pt x="442" y="302" on="1"/>
        <pt x="451" y="294" on="0"/>
        <pt x="471" y="294" on="1"/>
        <pt x="510" y="294" on="0"/>
        <pt x="531" y="351" on="1"/>
        <pt x="538" y="371" on="0"/>
        <pt x="564" y="391" on="0"/>
        <pt x="581" y="391" on="1"/>
        <pt x="602" y="391" on="0"/>
        <pt x="617" y="363" on="0"/>
        <pt x="613" y="345" on="1"/>
        <pt x="603" y="296" on="0"/>
        <pt x="560" y="250" on="1"/>
        <pt x="513" y="200" on="0"/>
      </contour>
    </TTGlyph>
    <TTGlyph name="asterisk" xMin="129" yMin="61" xMax="601" yMax="560">
      <contour>
        <pt x="312" y="61" on="1"/>
        <pt x="293" y="61" on="0"/>
        <pt x="283" y="74" on="1"/>
        <pt x="276" y="83" on="0"/>
        <pt x="276" y="96" on="1"/>
        <pt x="276" y="100" on="0"/>
        <pt x="303" y="232" on="1"/>
        <pt x="190" y="174" on="1"/>
        <pt x="178" y="168" on="0"/>
        <pt x="166" y="168" on="1"/>
        <pt x="143" y="168" on="0"/>
        <pt x="131" y="190" on="1"/>
        <pt x="129" y="197" on="0"/>
        <pt x="129" y="204" on="1"/>
        <pt x="129" y="234" on="0"/>
        <pt x="162" y="252" on="1"/>
        <pt x="275" y="310" on="1"/>
        <pt x="186" y="369" on="1"/>
        <pt x="171" y="380" on="0"/>
        <pt x="171" y="398" on="1"/>
        <pt x="171" y="415" on="0"/>
        <pt x="182" y="430" on="1"/>
        <pt x="203" y="453" on="0"/>
        <pt x="227" y="453" on="1"/>
        <pt x="238" y="453" on="0"/>
        <pt x="248" y="447" on="1"/>
        <pt x="336" y="388" on="1"/>
        <pt x="363" y="515" on="1"/>
        <pt x="368" y="534" on="0"/>
        <pt x="399" y="560" on="0"/>
        <pt x="418" y="560" on="1"/>
        <pt x="437" y="560" on="0"/>
        <pt x="447" y="547" on="1"/>
        <pt x="454" y="538" on="0"/>
        <pt x="454" y="525" on="1"/>
        <pt x="454" y="520" on="0"/>
        <pt x="426" y="388" on="1"/>
        <pt x="540" y="447" on="1"/>
        <pt x="552" y="453" on="0"/>
        <pt x="564" y="453" on="1"/>
        <pt x="587" y="453" on="0"/>
        <pt x="598" y="430" on="1"/>
        <pt x="601" y="423" on="0"/>
        <pt x="601" y="415" on="1"/>
        <pt x="600" y="408" on="1"/>
        <pt x="594" y="383" on="0"/>
        <pt x="568" y="369" on="1"/>
        <pt x="455" y="310" on="1"/>
        <pt x="544" y="252" on="1"/>
        <pt x="559" y="241" on="0"/>
        <pt x="559" y="223" on="1"/>
        <pt x="559" y="205" on="0"/>
        <pt x="547" y="190" on="1"/>
        <pt x="527" y="168" on="0"/>
        <pt x="503" y="168" on="1"/>
        <pt x="492" y="168" on="0"/>
        <pt x="482" y="174" on="1"/>
        <pt x="393" y="232" on="1"/>
        <pt x="367" y="106" on="1"/>
        <pt x="362" y="87" on="0"/>
        <pt x="331" y="61" on="0"/>
      </contour>
    </TTGlyph>
    <TTGlyph name="at" xMin="62" yMin="-5" xMax="686" yMax="755">
      <contour>
        <pt x="430" y="-5" on="1"/>
        <pt x="347" y="-5" on="0"/>
        <pt x="355" y="93" on="1"/>
        <pt x="359" y="148" on="0"/>
        <pt x="370" y="202" on="1"/>
        <pt x="395" y="341" on="1"/>
        <pt x="401" y="372" on="0"/>
        <pt x="383" y="420" on="0"/>
        <pt x="355" y="420" on="1"/>
        <pt x="318" y="420" on="0"/>
        <pt x="257" y="368" on="0"/>
        <pt x="207" y="285" on="0"/>
        <pt x="192" y="220" on="1"/>
        <pt x="162" y="78" on="0"/>
        <pt x="220" y="78" on="1"/>
        <pt x="245" y="78" on="0"/>
        <pt x="289" y="93" on="1"/>
        <pt x="282" y="41" on="0"/>
        <pt x="294" y="21" on="1"/>
        <pt x="242" y="-5" on="0"/>
        <pt x="183" y="-5" on="1"/>
        <pt x="62" y="-5" on="0"/>
        <pt x="109" y="215" on="1"/>
        <pt x="124" y="285" on="0"/>
        <pt x="163" y="355" on="1"/>
        <pt x="253" y="513" on="0"/>
        <pt x="371" y="514" on="1"/>
        <pt x="444" y="513" on="0"/>
        <pt x="493" y="423" on="0"/>
        <pt x="481" y="360" on="1"/>
        <pt x="453" y="215" on="1"/>
        <pt x="425" y="85" on="0"/>
        <pt x="460" y="85" on="1"/>
        <pt x="488" y="85" on="0"/>
        <pt x="529" y="126" on="1"/>
        <pt x="540" y="138" on="0"/>
        <pt x="559" y="138" on="1"/>
        <pt x="568" y="138" on="0"/>
        <pt x="572" y="136" on="1"/>
        <pt x="594" y="124" on="0"/>
        <pt x="589" y="100" on="1"/>
        <pt x="579" y="52" on="0"/>
        <pt x="490" y="6" on="1"/>
        <pt x="468" y="-5" on="0"/>
      </contour>
      <contour>
        <pt x="597" y="248" on="1"/>
        <pt x="550" y="248" on="0"/>
        <pt x="559" y="307" on="1"/>
        <pt x="570" y="377" on="1"/>
        <pt x="615" y="655" on="0"/>
        <pt x="403" y="655" on="1"/>
        <pt x="363" y="655" on="0"/>
        <pt x="276" y="615" on="0"/>
        <pt x="211" y="554" on="1"/>
        <pt x="197" y="541" on="0"/>
        <pt x="178" y="541" on="1"/>
        <pt x="162" y="541" on="0"/>
        <pt x="141" y="568" on="0"/>
        <pt x="146" y="595" on="1"/>
        <pt x="150" y="613" on="0"/>
        <pt x="161" y="625" on="1"/>
        <pt x="278" y="754" on="0"/>
        <pt x="436" y="755" on="1"/>
        <pt x="562" y="755" on="0"/>
        <pt x="631" y="651" on="1"/>
        <pt x="686" y="572" on="0"/>
        <pt x="668" y="433" on="1"/>
        <pt x="660" y="366" on="0"/>
        <pt x="645" y="297" on="1"/>
        <pt x="634" y="248" on="0"/>
      </contour>
    </TTGlyph>
    <TTGlyph name="b" xMin="97" yMin="-5" xMax="594" yMax="800">
      <contour>
        <pt x="328" y="85" on="1"/>
        <pt x="449" y="88" on="0"/>
        <pt x="491" y="266" on="1"/>
        <pt x="499" y="305" on="0"/>
        <pt x="499" y="336" on="1"/>
        <pt x="499" y="449" on="0"/>
        <pt x="407" y="449" on="1"/>
        <pt x="353" y="449" on="0"/>
        <pt x="307" y="410" on="1"/>
        <pt x="258" y="366" on="0"/>
        <pt x="248" y="318" on="1"/>
        <pt x="222" y="201" on="0"/>
        <pt x="222" y="186" on="1"/>
        <pt x="222" y="147" on="0"/>
        <pt x="279" y="85" on="0"/>
      </contour>
      <contour>
        <pt x="326" y="-5" on="1"/>
        <pt x="249" y="-5" on="0"/>
        <pt x="212" y="44" on="1"/>
        <pt x="207" y="50" on="0"/>
        <pt x="201" y="50" on="1"/>
        <pt x="190" y="50" on="0"/>
        <pt x="183" y="31" on="1"/>
        <pt x="170" y="-5" on="0"/>
        <pt x="132" y="-5" on="1"/>
        <pt x="114" y="-5" on="0"/>
        <pt x="104" y="8" on="1"/>
        <pt x="97" y="16" on="0"/>
        <pt x="97" y="28" on="1"/>
        <pt x="97" y="33" on="0"/>
        <pt x="250" y="753" on="1"/>
        <pt x="254" y="773" on="0"/>
        <pt x="289" y="800" on="0"/>
        <pt x="306" y="800" on="1"/>
        <pt x="323" y="800" on="0"/>
        <pt x="334" y="787" on="1"/>
        <pt x="341" y="777" on="0"/>
        <pt x="341" y="764" on="1"/>
        <pt x="341" y="759" on="0"/>
        <pt x="292" y="528" on="0"/>
        <pt x="292" y="525" on="1"/>
        <pt x="292" y="511" on="0"/>
        <pt x="306" y="511" on="1"/>
        <pt x="315" y="511" on="0"/>
        <pt x="328" y="520" on="1"/>
        <pt x="379" y="555" on="0"/>
        <pt x="444" y="555" on="1"/>
        <pt x="530" y="555" on="0"/>
        <pt x="570" y="480" on="1"/>
        <pt x="594" y="435" on="0"/>
        <pt x="594" y="371" on="1"/>
        <pt x="594" y="330" on="0"/>
        <pt x="584" y="282" on="1"/>
        <pt x="523" y="-5" on="0"/>
      </contour>
    </TTGlyph>
    <TTGlyph name="backslash" xMin="227" yMin="-150" xMax="520" yMax="850">
      <contour>
        <pt x="464" y="-150" on="1"/>
        <pt x="438" y="-150" on="0"/>
        <pt x="429" y="-123" on="1"/>
        <pt x="227" y="792" on="0"/>
        <pt x="227" y="796" on="1"/>
        <pt x="228" y="805" on="1"/>
        <pt x="235" y="833" on="0"/>
        <pt x="264" y="846" on="1"/>
        <pt x="274" y="850" on="0"/>
        <pt x="283" y="850" on="1"/>
        <pt x="309" y="850" on="0"/>
        <pt x="319" y="823" on="1"/>
        <pt x="520" y="-89" on="0"/>
        <pt x="520" y="-93" on="1"/>
        <pt x="519" y="-105" on="1"/>
        <pt x="512" y="-134" on="0"/>
        <pt x="483" y="-146" on="1"/>
        <pt x="473" y="-150" on="0"/>
      </contour>
    </TTGlyph>
    <TTGlyph name="bar" xMin="238" yMin="-120" xMax="506" yMax="800">
      <contour>
        <pt x="274" y="-120" on="1"/>
        <pt x="255" y="-120" on="0"/>
        <pt x="245" y="-107" on="1"/>
        <pt x="238" y="-98" on="0"/>
        <pt x="238" y="-85" on="1"/>
        <pt x="238" y="-80" on="0"/>
        <pt x="415" y="755" on="1"/>
        <pt x="420" y="774" on="0"/>
        <pt x="451" y="800" on="0"/>
        <pt x="470" y="800" on="1"/>
        <pt x="488" y="800" on="0"/>
        <pt x="506" y="777" on="0"/>
        <pt x="506" y="765" on="1"/>
        <pt x="506" y="760" on="0"/>
        <pt x="329" y="-75" on="1"/>
        <pt x="324" y="-94" on="0"/>
        <pt x="293" y="-120" on="0"/>
      </contour>
    </TTGlyph>
    <TTGlyph name="bar_bar" xMin="-212" yMin="-120" xMax="356" yMax="800">
      <contour>
        <pt x="124" y="-120" on="1"/>
        <pt x="105" y="-120" on="0"/>
        <pt x="95" y="-107" on="1"/>
        <pt x="88" y="-98" on="0"/>
        <pt x="88" y="-85" on="1"/>
        <pt x="88" y="-80" on="0"/>
        <pt x="265" y="755" on="1"/>
        <pt x="270" y="774" on="0"/>
        <pt x="301" y="800" on="0"/>
        <pt x="320" y="800" on="1"/>
        <pt x="338" y="800" on="0"/>
        <pt x="356" y="777" on="0"/>
        <pt x="356" y="765" on="1"/>
        <pt x="356" y="760" on="0"/>
        <pt x="179" y="-75" on="1"/>
        <pt x="174" y="-94" on="0"/>
        <pt x="143" y="-120" on="0"/>
      </contour>
      <contour>
        <pt x="-176" y="-120" on="1"/>
        <pt x="-195" y="-120" on="0"/>
        <pt x="-205" y="-107" on="1"/>
        <pt x="-212" y="-98" on="0"/>
        <pt x="-212" y="-85" on="1"/>
        <pt x="-212" y="-80" on="0"/>
        <pt x="-35" y="755" on="1"/>
        <pt x="-30" y="774" on="0"/>
        <pt x="1" y="800" on="0"/>
        <pt x="20" y="800" on="1"/>
        <pt x="38" y="800" on="0"/>
        <pt x="56" y="777" on="0"/>
        <pt x="56" y="765" on="1"/>
        <pt x="56" y="760" on="0"/>
        <pt x="-121" y="-75" on="1"/>
        <pt x="-126" y="-94" on="0"/>
        <pt x="-157" y="-120" on="0"/>
      </contour>
    </TTGlyph>
    <TTGlyph name="braceleft" xMin="168" yMin="-165" xMax="680" yMax="849">
      <contour>
        <pt x="427" y="-165" on="1"/>
        <pt x="384" y="-165" on="1"/>
        <pt x="351" y="-165" on="0"/>
        <pt x="311" y="-162" on="0"/>
        <pt x="265" y="-147" on="0"/>
        <pt x="249" y="-131" on="1"/>
        <pt x="195" y="-82" on="0"/>
        <pt x="215" y="14" on="1"/>
        <pt x="220" y="35" on="0"/>
        <pt x="263" y="216" on="0"/>
        <pt x="266" y="231" on="1"/>
        <pt x="280" y="294" on="0"/>
        <pt x="257" y="321" on="1"/>
        <pt x="242" y="340" on="0"/>
        <pt x="215" y="340" on="1"/>
        <pt x="168" y="340" on="0"/>
        <pt x="177" y="381" on="1"/>
        <pt x="182" y="402" on="0"/>
        <pt x="209" y="425" on="0"/>
        <pt x="243" y="425" on="0"/>
        <pt x="272" y="434" on="0"/>
        <pt x="289" y="447" on="1"/>
        <pt x="321" y="475" on="0"/>
        <pt x="334" y="540" on="1"/>
        <pt x="337" y="552" on="0"/>
        <pt x="350" y="625" on="0"/>
        <pt x="353" y="639" on="1"/>
        <pt x="377" y="751" on="0"/>
        <pt x="444" y="803" on="1"/>
        <pt x="503" y="849" on="0"/>
        <pt x="616" y="849" on="1"/>
        <pt x="643" y="849" on="1"/>
        <pt x="660" y="849" on="0"/>
        <pt x="680" y="824" on="0"/>
        <pt x="676" y="805" on="1"/>
        <pt x="672" y="785" on="0"/>
        <pt x="641" y="760" on="0"/>
        <pt x="625" y="760" on="1"/>
        <pt x="574" y="761" on="1"/>
        <pt x="534" y="761" on="0"/>
        <pt x="508" y="747" on="1"/>
        <pt x="462" y="722" on="0"/>
        <pt x="447" y="651" on="1"/>
        <pt x="444" y="638" on="0"/>
        <pt x="432" y="564" on="0"/>
        <pt x="429" y="549" on="1"/>
        <pt x="416" y="491" on="0"/>
        <pt x="389" y="453" on="1"/>
        <pt x="368" y="421" on="0"/>
        <pt x="346" y="403" on="1"/>
        <pt x="337" y="394" on="0"/>
        <pt x="335" y="385" on="1"/>
        <pt x="333" y="374" on="0"/>
        <pt x="340" y="365" on="1"/>
        <pt x="379" y="325" on="0"/>
        <pt x="356" y="217" on="1"/>
        <pt x="320" y="58" on="1"/>
        <pt x="312" y="27" on="0"/>
        <pt x="309" y="15" on="1"/>
        <pt x="299" y="-33" on="0"/>
        <pt x="335" y="-61" on="1"/>
        <pt x="357" y="-79" on="0"/>
        <pt x="414" y="-79" on="1"/>
        <pt x="445" y="-79" on="1"/>
        <pt x="462" y="-79" on="0"/>
        <pt x="480" y="-103" on="0"/>
        <pt x="476" y="-121" on="1"/>
        <pt x="472" y="-143" on="0"/>
        <pt x="443" y="-165" on="0"/>
      </contour>
    </TTGlyph>
    <TTGlyph name="braceright" xMin="68" yMin="-165" xMax="591" yMax="849">
      <contour>
        <pt x="104" y="-165" on="1"/>
        <pt x="88" y="-165" on="0"/>
        <pt x="68" y="-143" on="0"/>
        <pt x="73" y="-121" on="1"/>
        <pt x="77" y="-103" on="0"/>
        <pt x="106" y="-79" on="0"/>
        <pt x="122" y="-79" on="1"/>
        <pt x="153" y="-79" on="1"/>
        <pt x="210" y="-79" on="0"/>
        <pt x="240" y="-61" on="1"/>
        <pt x="288" y="-33" on="0"/>
        <pt x="298" y="15" on="1"/>
        <pt x="301" y="27" on="0"/>
        <pt x="305" y="58" on="1"/>
        <pt x="338" y="217" on="1"/>
        <pt x="360" y="325" on="0"/>
        <pt x="417" y="365" on="1"/>
        <pt x="427" y="374" on="0"/>
        <pt x="429" y="385" on="1"/>
        <pt x="431" y="394" on="0"/>
        <pt x="426" y="403" on="1"/>
        <pt x="412" y="421" on="0"/>
        <pt x="405" y="453" on="1"/>
        <pt x="393" y="491" on="0"/>
        <pt x="406" y="549" on="1"/>
        <pt x="409" y="564" on="0"/>
        <pt x="428" y="638" on="0"/>
        <pt x="431" y="651" on="1"/>
        <pt x="446" y="722" on="0"/>
        <pt x="410" y="747" on="1"/>
        <pt x="390" y="761" on="0"/>
        <pt x="351" y="761" on="1"/>
        <pt x="300" y="760" on="1"/>
        <pt x="283" y="760" on="0"/>
        <pt x="263" y="785" on="0"/>
        <pt x="267" y="805" on="1"/>
        <pt x="271" y="824" on="0"/>
        <pt x="302" y="849" on="0"/>
        <pt x="318" y="849" on="1"/>
        <pt x="346" y="849" on="1"/>
        <pt x="459" y="849" on="0"/>
        <pt x="499" y="803" on="1"/>
        <pt x="543" y="751" on="0"/>
        <pt x="520" y="639" on="1"/>
        <pt x="517" y="625" on="0"/>
        <pt x="498" y="552" on="0"/>
        <pt x="496" y="540" on="1"/>
        <pt x="482" y="475" on="0"/>
        <pt x="503" y="447" on="1"/>
        <pt x="513" y="434" on="0"/>
        <pt x="539" y="425" on="0"/>
        <pt x="572" y="425" on="0"/>
        <pt x="591" y="402" on="0"/>
        <pt x="586" y="381" on="1"/>
        <pt x="577" y="340" on="0"/>
        <pt x="531" y="340" on="1"/>
        <pt x="504" y="340" on="0"/>
        <pt x="480" y="321" on="1"/>
        <pt x="446" y="294" on="0"/>
        <pt x="433" y="231" on="1"/>
        <pt x="430" y="216" on="0"/>
        <pt x="396" y="35" on="0"/>
        <pt x="392" y="14" on="1"/>
        <pt x="371" y="-82" on="0"/>
        <pt x="297" y="-131" on="1"/>
        <pt x="274" y="-147" on="0"/>
        <pt x="220" y="-162" on="0"/>
        <pt x="180" y="-165" on="0"/>
        <pt x="147" y="-165" on="1"/>
      </contour>
    </TTGlyph>
    <TTGlyph name="bracketleft" xMin="128" yMin="-166" xMax="634" yMax="848">
      <contour>
        <pt x="382" y="-166" on="1"/>
        <pt x="166" y="-166" on="1"/>
        <pt x="146" y="-166" on="0"/>
        <pt x="136" y="-152" on="1"/>
        <pt x="128" y="-142" on="0"/>
        <pt x="128" y="-129" on="1"/>
        <pt x="128" y="-124" on="0"/>
        <pt x="324" y="801" on="1"/>
        <pt x="329" y="821" on="0"/>
        <pt x="362" y="848" on="0"/>
        <pt x="381" y="848" on="1"/>
        <pt x="597" y="848" on="1"/>
        <pt x="616" y="848" on="0"/>
        <pt x="634" y="825" on="0"/>
        <pt x="634" y="811" on="1"/>
        <pt x="634" y="789" on="0"/>
        <pt x="613" y="771" on="1"/>
        <pt x="597" y="758" on="0"/>
        <pt x="578" y="758" on="1"/>
        <pt x="429" y="758" on="1"/>
        <pt x="419" y="758" on="0"/>
        <pt x="403" y="745" on="0"/>
        <pt x="400" y="735" on="1"/>
        <pt x="232" y="-57" on="1"/>
        <pt x="232" y="-64" on="0"/>
        <pt x="242" y="-76" on="0"/>
        <pt x="251" y="-76" on="1"/>
        <pt x="401" y="-76" on="1"/>
        <pt x="420" y="-76" on="0"/>
        <pt x="430" y="-89" on="1"/>
        <pt x="437" y="-98" on="0"/>
        <pt x="437" y="-111" on="1"/>
        <pt x="437" y="-136" on="0"/>
        <pt x="417" y="-153" on="1"/>
        <pt x="401" y="-166" on="0"/>
      </contour>
    </TTGlyph>
    <TTGlyph name="bracketright" xMin="127" yMin="-166" xMax="634" yMax="848">
      <contour>
        <pt x="380" y="-166" on="1"/>
        <pt x="164" y="-166" on="1"/>
        <pt x="145" y="-166" on="0"/>
        <pt x="127" y="-143" on="0"/>
        <pt x="127" y="-129" on="1"/>
        <pt x="127" y="-107" on="0"/>
        <pt x="149" y="-89" on="1"/>
        <pt x="164" y="-76" on="0"/>
        <pt x="183" y="-76" on="1"/>
        <pt x="333" y="-76" on="1"/>
        <pt x="342" y="-76" on="0"/>
        <pt x="359" y="-62" on="0"/>
        <pt x="361" y="-52" on="1"/>
        <pt x="529" y="740" on="1"/>
        <pt x="529" y="747" on="0"/>
        <pt x="520" y="758" on="0"/>
        <pt x="510" y="758" on="1"/>
        <pt x="360" y="758" on="1"/>
        <pt x="342" y="758" on="0"/>
        <pt x="324" y="781" on="0"/>
        <pt x="324" y="793" on="1"/>
        <pt x="324" y="818" on="0"/>
        <pt x="345" y="835" on="1"/>
        <pt x="361" y="848" on="0"/>
        <pt x="379" y="848" on="1"/>
        <pt x="596" y="848" on="1"/>
        <pt x="615" y="848" on="0"/>
        <pt x="634" y="824" on="0"/>
        <pt x="634" y="810" on="1"/>
        <pt x="634" y="804" on="0"/>
        <pt x="437" y="-119" on="1"/>
        <pt x="432" y="-139" on="0"/>
        <pt x="399" y="-166" on="0"/>
      </contour>
    </TTGlyph>
    <TTGlyph name="c" xMin="133" yMin="-5" xMax="617" yMax="555">
      <contour>
        <pt x="340" y="-5" on="1"/>
        <pt x="267" y="-5" on="0"/>
        <pt x="215" y="29" on="1"/>
        <pt x="133" y="80" on="0"/>
        <pt x="133" y="196" on="1"/>
        <pt x="133" y="232" on="0"/>
        <pt x="142" y="275" on="1"/>
        <pt x="162" y="368" on="0"/>
        <pt x="260" y="490" on="0"/>
        <pt x="393" y="555" on="0"/>
        <pt x="464" y="555" on="1"/>
        <pt x="551" y="555" on="0"/>
        <pt x="600" y="500" on="1"/>
        <pt x="617" y="480" on="0"/>
        <pt x="617" y="452" on="1"/>
        <pt x="617" y="425" on="0"/>
        <pt x="602" y="407" on="1"/>
        <pt x="560" y="357" on="0"/>
        <pt x="499" y="356" on="1"/>
        <pt x="477" y="356" on="0"/>
        <pt x="477" y="378" on="1"/>
        <pt x="477" y="393" on="0"/>
        <pt x="494" y="397" on="1"/>
        <pt x="532" y="406" on="0"/>
        <pt x="532" y="421" on="1"/>
        <pt x="532" y="431" on="0"/>
        <pt x="524" y="436" on="1"/>
        <pt x="490" y="459" on="0"/>
        <pt x="445" y="459" on="1"/>
        <pt x="370" y="459" on="0"/>
        <pt x="261" y="361" on="0"/>
        <pt x="243" y="275" on="1"/>
        <pt x="236" y="242" on="0"/>
        <pt x="236" y="213" on="1"/>
        <pt x="236" y="85" on="0"/>
        <pt x="365" y="85" on="1"/>
        <pt x="421" y="85" on="0"/>
        <pt x="488" y="127" on="1"/>
        <pt x="498" y="133" on="0"/>
        <pt x="511" y="133" on="1"/>
        <pt x="540" y="133" on="0"/>
        <pt x="540" y="101" on="1"/>
        <pt x="540" y="71" on="0"/>
        <pt x="516" y="56" on="1"/>
        <pt x="424" y="-5" on="0"/>
      </contour>
    </TTGlyph>
    <TTGlyph name="colon" xMin="229" yMin="0" xMax="488" yMax="550">
      <contour>
        <pt x="302" y="0" on="1"/>
        <pt x="267" y="0" on="0"/>
        <pt x="229" y="49" on="0"/>
        <pt x="237" y="83" on="1"/>
        <pt x="244" y="118" on="0"/>
        <pt x="302" y="167" on="0"/>
        <pt x="337" y="167" on="1"/>
        <pt x="370" y="167" on="0"/>
        <pt x="407" y="118" on="0"/>
        <pt x="400" y="83" on="1"/>
        <pt x="392" y="49" on="0"/>
        <pt x="335" y="0" on="0"/>
      </contour>
      <contour>
        <pt x="383" y="383" on="1"/>
        <pt x="348" y="383" on="0"/>
        <pt x="311" y="432" on="0"/>
        <pt x="318" y="466" on="1"/>
        <pt x="325" y="501" on="0"/>
        <pt x="384" y="550" on="0"/>
        <pt x="419" y="550" on="1"/>
        <pt x="452" y="550" on="0"/>
        <pt x="488" y="501" on="0"/>
        <pt x="481" y="466" on="1"/>
        <pt x="474" y="432" on="0"/>
        <pt x="416" y="383" on="0"/>
      </contour>
    </TTGlyph>
    <TTGlyph name="colon_center" xMin="249" yMin="90" xMax="488" yMax="550">
      <contour>
        <pt x="321" y="90" on="1"/>
        <pt x="286" y="90" on="0"/>
        <pt x="249" y="139" on="0"/>
        <pt x="256" y="173" on="1"/>
        <pt x="263" y="208" on="0"/>
        <pt x="322" y="257" on="0"/>
        <pt x="357" y="257" on="1"/>
        <pt x="390" y="257" on="0"/>
        <pt x="426" y="208" on="0"/>
        <pt x="419" y="173" on="1"/>
        <pt x="412" y="139" on="0"/>
        <pt x="354" y="90" on="0"/>
      </contour>
      <contour>
        <pt x="383" y="383" on="1"/>
        <pt x="348" y="383" on="0"/>
        <pt x="311" y="432" on="0"/>
        <pt x="318" y="466" on="1"/>
        <pt x="325" y="501" on="0"/>
        <pt x="384" y="550" on="0"/>
        <pt x="419" y="550" on="1"/>
        <pt x="452" y="550" on="0"/>
        <pt x="488" y="501" on="0"/>
        <pt x="481" y="466" on="1"/>
        <pt x="474" y="432" on="0"/>
        <pt x="416" y="383" on="0"/>
      </contour>
    </TTGlyph>
    <TTGlyph name="colon_center_left" xMin="130" yMin="90" xMax="369" yMax="550">
      <contour>
        <pt x="202" y="90" on="1"/>
        <pt x="167" y="90" on="0"/>
        <pt x="130" y="139" on="0"/>
        <pt x="137" y="173" on="1"/>
        <pt x="144" y="208" on="0"/>
        <pt x="203" y="257" on="0"/>
        <pt x="238" y="257" on="1"/>
        <pt x="271" y="257" on="0"/>
        <pt x="307" y="208" on="0"/>
        <pt x="300" y="173" on="1"/>
        <pt x="293" y="139" on="0"/>
        <pt x="235" y="90" on="0"/>
      </contour>
      <contour>
        <pt x="264" y="383" on="1"/>
        <pt x="229" y="383" on="0"/>
        <pt x="192" y="432" on="0"/>
        <pt x="199" y="466" on="1"/>
        <pt x="206" y="501" on="0"/>
        <pt x="265" y="550" on="0"/>
        <pt x="300" y="550" on="1"/>
        <pt x="333" y="550" on="0"/>
        <pt x="369" y="501" on="0"/>
        <pt x="362" y="466" on="1"/>
        <pt x="355" y="432" on="0"/>
        <pt x="297" y="383" on="0"/>
      </contour>
    </TTGlyph>
    <TTGlyph name="colon_center_right" xMin="367" yMin="90" xMax="606" yMax="550">
      <contour>
        <pt x="439" y="90" on="1"/>
        <pt x="404" y="90" on="0"/>
        <pt x="367" y="139" on="0"/>
        <pt x="374" y="173" on="1"/>
        <pt x="381" y="208" on="0"/>
        <pt x="440" y="257" on="0"/>
        <pt x="475" y="257" on="1"/>
        <pt x="508" y="257" on="0"/>
        <pt x="544" y="208" on="0"/>
        <pt x="537" y="173" on="1"/>
        <pt x="530" y="139" on="0"/>
        <pt x="472" y="90" on="0"/>
      </contour>
      <contour>
        <pt x="501" y="383" on="1"/>
        <pt x="466" y="383" on="0"/>
        <pt x="429" y="432" on="0"/>
        <pt x="436" y="466" on="1"/>
        <pt x="443" y="501" on="0"/>
        <pt x="502" y="550" on="0"/>
        <pt x="537" y="550" on="1"/>
        <pt x="570" y="550" on="0"/>
        <pt x="606" y="501" on="0"/>
        <pt x="599" y="466" on="1"/>
        <pt x="592" y="432" on="0"/>
        <pt x="534" y="383" on="0"/>
      </contour>
    </TTGlyph>
    <TTGlyph name="comma" xMin="89" yMin="-192" xMax="413" yMax="173">
      <contour>
        <pt x="131" y="-192" on="1"/>
        <pt x="89" y="-192" on="0"/>
        <pt x="93" y="-153" on="1"/>
        <pt x="103" y="-110" on="0"/>
        <pt x="146" y="-105" on="1"/>
        <pt x="195" y="-99" on="0"/>
        <pt x="261" y="-54" on="0"/>
        <pt x="266" y="-26" on="1"/>
        <pt x="273" y="5" on="0"/>
        <pt x="226" y="63" on="0"/>
        <pt x="234" y="99" on="1"/>
        <pt x="239" y="122" on="0"/>
        <pt x="256" y="140" on="1"/>
        <pt x="283" y="173" on="0"/>
        <pt x="328" y="173" on="1"/>
        <pt x="361" y="173" on="0"/>
        <pt x="380" y="148" on="1"/>
        <pt x="413" y="107" on="0"/>
        <pt x="396" y="26" on="1"/>
        <pt x="380" y="-46" on="0"/>
        <pt x="324" y="-103" on="1"/>
        <pt x="247" y="-180" on="0"/>
      </contour>
    </TTGlyph>
    <TTGlyph name="d" xMin="123" yMin="-5" xMax="672" yMax="800">
      <contour>
        <pt x="315" y="85" on="1"/>
        <pt x="358" y="85" on="0"/>
        <pt x="453" y="157" on="0"/>
        <pt x="466" y="218" on="1"/>
        <pt x="490" y="329" on="0"/>
        <pt x="490" y="341" on="1"/>
        <pt x="490" y="376" on="0"/>
        <pt x="467" y="409" on="1"/>
        <pt x="438" y="448" on="0"/>
        <pt x="384" y="448" on="1"/>
        <pt x="330" y="448" on="0"/>
        <pt x="241" y="353" on="0"/>
        <pt x="223" y="266" on="1"/>
        <pt x="215" y="227" on="0"/>
        <pt x="215" y="196" on="1"/>
        <pt x="215" y="87" on="0"/>
        <pt x="309" y="85" on="1"/>
      </contour>
      <contour>
        <pt x="528" y="77" on="1"/>
        <pt x="528" y="56" on="0"/>
        <pt x="552" y="56" on="1"/>
        <pt x="569" y="56" on="0"/>
        <pt x="591" y="71" on="1"/>
        <pt x="601" y="78" on="0"/>
        <pt x="609" y="78" on="1"/>
        <pt x="617" y="78" on="0"/>
        <pt x="628" y="64" on="0"/>
        <pt x="628" y="57" on="1"/>
        <pt x="628" y="48" on="0"/>
        <pt x="622" y="43" on="1"/>
        <pt x="568" y="0" on="0"/>
        <pt x="516" y="0" on="1"/>
        <pt x="472" y="0" on="0"/>
        <pt x="454" y="47" on="1"/>
        <pt x="452" y="52" on="0"/>
        <pt x="445" y="52" on="1"/>
        <pt x="440" y="52" on="0"/>
        <pt x="431" y="46" on="1"/>
        <pt x="350" y="-5" on="0"/>
        <pt x="272" y="-5" on="1"/>
        <pt x="123" y="-5" on="0"/>
        <pt x="123" y="167" on="1"/>
        <pt x="123" y="218" on="0"/>
        <pt x="136" y="282" on="1"/>
        <pt x="162" y="405" on="0"/>
        <pt x="306" y="555" on="0"/>
        <pt x="392" y="555" on="1"/>
        <pt x="458" y="555" on="0"/>
        <pt x="494" y="520" on="1"/>
        <pt x="503" y="511" on="0"/>
        <pt x="512" y="511" on="1"/>
        <pt x="522" y="511" on="0"/>
        <pt x="531" y="522" on="0"/>
        <pt x="580" y="753" on="1"/>
        <pt x="585" y="778" on="0"/>
        <pt x="616" y="800" on="0"/>
        <pt x="635" y="800" on="1"/>
        <pt x="654" y="800" on="0"/>
        <pt x="664" y="787" on="1"/>
        <pt x="672" y="777" on="0"/>
        <pt x="672" y="763" on="1"/>
        <pt x="672" y="758" on="0"/>
        <pt x="600" y="418" on="1"/>
        <pt x="546" y="163" on="0"/>
        <pt x="532" y="98" on="1"/>
      </contour>
    </TTGlyph>
    <TTGlyph name="dagger" xMin="159" yMin="0" xMax="669" yMax="750">
      <contour>
        <pt x="304" y="0" on="1"/>
        <pt x="283" y="0" on="0"/>
        <pt x="263" y="26" on="0"/>
        <pt x="267" y="48" on="1"/>
        <pt x="342" y="400" on="1"/>
        <pt x="437" y="400" on="1"/>
        <pt x="362" y="48" on="1"/>
        <pt x="358" y="26" on="0"/>
        <pt x="326" y="0" on="0"/>
      </contour>
      <contour>
        <pt x="632" y="550" on="1"/>
        <pt x="652" y="550" on="0"/>
        <pt x="669" y="528" on="0"/>
        <pt x="665" y="508" on="1"/>
        <pt x="661" y="488" on="0"/>
        <pt x="634" y="465" on="0"/>
        <pt x="614" y="465" on="1"/>
        <pt x="196" y="465" on="1"/>
        <pt x="176" y="465" on="0"/>
        <pt x="159" y="488" on="0"/>
        <pt x="163" y="508" on="1"/>
        <pt x="167" y="528" on="0"/>
        <pt x="194" y="550" on="0"/>
        <pt x="214" y="550" on="1"/>
      </contour>
      <contour>
        <pt x="387" y="610" on="1"/>
        <pt x="406" y="702" on="1"/>
        <pt x="411" y="725" on="0"/>
        <pt x="442" y="750" on="0"/>
        <pt x="463" y="750" on="1"/>
        <pt x="485" y="750" on="0"/>
        <pt x="506" y="725" on="0"/>
        <pt x="501" y="702" on="1"/>
        <pt x="482" y="610" on="1"/>
      </contour>
    </TTGlyph>
    <TTGlyph name="dollar" xMin="80" yMin="-157" xMax="650" yMax="900">
      <contour>
        <pt x="452" y="505" on="1"/>
        <pt x="422" y="508" on="0"/>
        <pt x="368" y="533" on="1"/>
        <pt x="436" y="852" on="1"/>
        <pt x="440" y="870" on="0"/>
        <pt x="467" y="900" on="0"/>
        <pt x="490" y="900" on="1"/>
        <pt x="515" y="900" on="0"/>
        <pt x="531" y="869" on="0"/>
        <pt x="527" y="852" on="1"/>
      </contour>
      <contour>
        <pt x="210" y="7" on="1"/>
        <pt x="147" y="20" on="0"/>
        <pt x="93" y="65" on="1"/>
        <pt x="80" y="76" on="0"/>
        <pt x="86" y="103" on="1"/>
        <pt x="89" y="117" on="0"/>
        <pt x="99" y="129" on="1"/>
        <pt x="114" y="146" on="0"/>
        <pt x="136" y="146" on="1"/>
        <pt x="148" y="146" on="0"/>
        <pt x="159" y="138" on="1"/>
        <pt x="211" y="99" on="0"/>
        <pt x="229" y="95" on="1"/>
      </contour>
      <contour>
        <pt x="391" y="7" on="1"/>
        <pt x="410" y="95" on="1"/>
        <pt x="479" y="113" on="0"/>
        <pt x="499" y="208" on="1"/>
        <pt x="522" y="315" on="0"/>
        <pt x="417" y="340" on="1"/>
        <pt x="378" y="348" on="0"/>
        <pt x="333" y="365" on="1"/>
        <pt x="159" y="422" on="0"/>
        <pt x="189" y="565" on="1"/>
        <pt x="204" y="634" on="0"/>
        <pt x="265" y="687" on="1"/>
        <pt x="311" y="727" on="0"/>
        <pt x="367" y="744" on="1"/>
        <pt x="346" y="646" on="1"/>
        <pt x="297" y="625" on="0"/>
        <pt x="284" y="564" on="1"/>
        <pt x="270" y="498" on="0"/>
        <pt x="353" y="459" on="1"/>
        <pt x="400" y="438" on="0"/>
        <pt x="437" y="431" on="1"/>
        <pt x="492" y="419" on="0"/>
        <pt x="574" y="367" on="0"/>
        <pt x="598" y="275" on="0"/>
        <pt x="585" y="214" on="1"/>
        <pt x="558" y="84" on="0"/>
        <pt x="460" y="31" on="1"/>
        <pt x="413" y="7" on="0"/>
      </contour>
      <contour>
        <pt x="268" y="-157" on="1"/>
        <pt x="244" y="-157" on="0"/>
        <pt x="227" y="-127" on="0"/>
        <pt x="231" y="-109" on="1"/>
        <pt x="316" y="286" on="1"/>
        <pt x="362" y="270" on="0"/>
        <pt x="401" y="265" on="1"/>
        <pt x="323" y="-109" on="1"/>
        <pt x="319" y="-127" on="0"/>
        <pt x="291" y="-157" on="0"/>
      </contour>
      <contour>
        <pt x="600" y="612" on="1"/>
        <pt x="585" y="612" on="0"/>
        <pt x="576" y="621" on="1"/>
        <pt x="552" y="645" on="0"/>
        <pt x="530" y="652" on="1"/>
        <pt x="549" y="744" on="1"/>
        <pt x="587" y="736" on="0"/>
        <pt x="629" y="704" on="1"/>
        <pt x="650" y="688" on="0"/>
        <pt x="645" y="663" on="1"/>
        <pt x="640" y="642" on="0"/>
        <pt x="613" y="612" on="0"/>
      </contour>
    </TTGlyph>
    <TTGlyph name="e" xMin="118" yMin="-5" xMax="600" yMax="555">
      <contour>
        <pt x="311" y="-5" on="1"/>
        <pt x="120" y="-5" on="0"/>
        <pt x="118" y="191" on="1"/>
        <pt x="118" y="229" on="0"/>
        <pt x="138" y="329" on="0"/>
        <pt x="156" y="372" on="1"/>
        <pt x="246" y="555" on="0"/>
        <pt x="448" y="555" on="1"/>
        <pt x="511" y="555" on="0"/>
        <pt x="600" y="486" on="0"/>
        <pt x="600" y="436" on="1"/>
        <pt x="600" y="359" on="0"/>
        <pt x="525" y="270" on="0"/>
        <pt x="432" y="253" on="1"/>
        <pt x="369" y="242" on="0"/>
        <pt x="232" y="240" on="1"/>
        <pt x="214" y="240" on="0"/>
        <pt x="207" y="204" on="0"/>
        <pt x="207" y="179" on="1"/>
        <pt x="207" y="124" on="0"/>
        <pt x="282" y="74" on="0"/>
        <pt x="343" y="74" on="1"/>
        <pt x="376" y="74" on="0"/>
        <pt x="449" y="106" on="0"/>
        <pt x="484" y="141" on="1"/>
        <pt x="495" y="152" on="0"/>
        <pt x="511" y="152" on="1"/>
        <pt x="526" y="152" on="0"/>
        <pt x="549" y="130" on="0"/>
        <pt x="549" y="115" on="1"/>
        <pt x="549" y="102" on="0"/>
        <pt x="539" y="89" on="0"/>
        <pt x="530" y="80" on="1"/>
        <pt x="485" y="35" on="0"/>
        <pt x="391" y="-5" on="0"/>
      </contour>
      <contour>
        <pt x="276" y="317" on="1"/>
        <pt x="399" y="318" on="0"/>
        <pt x="520" y="361" on="0"/>
        <pt x="520" y="423" on="1"/>
        <pt x="520" y="441" on="0"/>
        <pt x="478" y="469" on="0"/>
        <pt x="435" y="469" on="1"/>
        <pt x="383" y="469" on="0"/>
        <pt x="275" y="399" on="0"/>
        <pt x="251" y="357" on="1"/>
        <pt x="245" y="346" on="0"/>
        <pt x="245" y="335" on="1"/>
        <pt x="245" y="330" on="0"/>
        <pt x="252" y="321" on="0"/>
        <pt x="264" y="319" on="1"/>
      </contour>
    </TTGlyph>
    <TTGlyph name="eight" xMin="111" yMin="-5" xMax="634" yMax="755">
      <contour>
        <pt x="299" y="-5" on="1"/>
        <pt x="191" y="-5" on="0"/>
        <pt x="145" y="50" on="1"/>
        <pt x="111" y="90" on="0"/>
        <pt x="111" y="148" on="1"/>
        <pt x="111" y="170" on="0"/>
        <pt x="116" y="195" on="1"/>
        <pt x="145" y="313" on="0"/>
        <pt x="267" y="379" on="1"/>
        <pt x="275" y="384" on="0"/>
        <pt x="275" y="392" on="1"/>
        <pt x="275" y="397" on="0"/>
        <pt x="272" y="399" on="1"/>
        <pt x="204" y="447" on="0"/>
        <pt x="204" y="520" on="1"/>
        <pt x="204" y="539" on="0"/>
        <pt x="209" y="560" on="1"/>
        <pt x="229" y="648" on="0"/>
        <pt x="363" y="755" on="0"/>
        <pt x="460" y="755" on="1"/>
        <pt x="558" y="755" on="0"/>
        <pt x="602" y="701" on="1"/>
        <pt x="634" y="663" on="0"/>
        <pt x="634" y="607" on="1"/>
        <pt x="634" y="585" on="0"/>
        <pt x="629" y="560" on="1"/>
        <pt x="607" y="459" on="0"/>
        <pt x="497" y="399" on="1"/>
        <pt x="490" y="395" on="0"/>
        <pt x="490" y="387" on="1"/>
        <pt x="490" y="382" on="0"/>
        <pt x="494" y="379" on="1"/>
        <pt x="569" y="327" on="0"/>
        <pt x="569" y="239" on="1"/>
        <pt x="569" y="218" on="0"/>
        <pt x="565" y="195" on="1"/>
        <pt x="544" y="99" on="0"/>
        <pt x="399" y="-5" on="0"/>
      </contour>
      <contour>
        <pt x="394" y="443" on="1"/>
        <pt x="411" y="443" on="0"/>
        <pt x="421" y="447" on="1"/>
        <pt x="541" y="485" on="0"/>
        <pt x="541" y="586" on="1"/>
        <pt x="541" y="615" on="0"/>
        <pt x="502" y="665" on="0"/>
        <pt x="441" y="665" on="1"/>
        <pt x="381" y="665" on="0"/>
        <pt x="308" y="605" on="0"/>
        <pt x="298" y="555" on="1"/>
        <pt x="295" y="541" on="0"/>
        <pt x="295" y="529" on="1"/>
        <pt x="295" y="472" on="0"/>
        <pt x="365" y="448" on="1"/>
        <pt x="380" y="443" on="0"/>
      </contour>
      <contour>
        <pt x="318" y="84" on="1"/>
        <pt x="391" y="84" on="0"/>
        <pt x="467" y="148" on="0"/>
        <pt x="479" y="207" on="1"/>
        <pt x="482" y="222" on="0"/>
        <pt x="482" y="235" on="1"/>
        <pt x="482" y="295" on="0"/>
        <pt x="418" y="323" on="1"/>
        <pt x="400" y="332" on="0"/>
        <pt x="371" y="333" on="1"/>
        <pt x="364" y="333" on="1"/>
        <pt x="347" y="331" on="0"/>
        <pt x="327" y="327" on="1"/>
        <pt x="204" y="284" on="0"/>
        <pt x="204" y="170" on="1"/>
        <pt x="204" y="137" on="0"/>
        <pt x="245" y="84" on="0"/>
      </contour>
    </TTGlyph>
    <TTGlyph name="equal" xMin="102" yMin="160" xMax="629" yMax="460">
      <contour>
        <pt x="573" y="370" on="1"/>
        <pt x="183" y="370" on="1"/>
        <pt x="165" y="370" on="0"/>
        <pt x="147" y="393" on="0"/>
        <pt x="147" y="405" on="1"/>
        <pt x="147" y="430" on="0"/>
        <pt x="168" y="447" on="1"/>
        <pt x="184" y="460" on="0"/>
        <pt x="202" y="460" on="1"/>
        <pt x="592" y="460" on="1"/>
        <pt x="611" y="460" on="0"/>
        <pt x="629" y="437" on="0"/>
        <pt x="629" y="423" on="1"/>
        <pt x="629" y="401" on="0"/>
        <pt x="608" y="383" on="1"/>
        <pt x="592" y="370" on="0"/>
      </contour>
      <contour>
        <pt x="529" y="160" on="1"/>
        <pt x="139" y="160" on="1"/>
        <pt x="120" y="160" on="0"/>
        <pt x="102" y="183" on="0"/>
        <pt x="102" y="197" on="1"/>
        <pt x="102" y="219" on="0"/>
        <pt x="124" y="237" on="1"/>
        <pt x="139" y="250" on="0"/>
        <pt x="158" y="250" on="1"/>
        <pt x="548" y="250" on="1"/>
        <pt x="566" y="250" on="0"/>
        <pt x="584" y="227" on="0"/>
        <pt x="584" y="215" on="1"/>
        <pt x="584" y="190" on="0"/>
        <pt x="563" y="173" on="1"/>
        <pt x="547" y="160" on="0"/>
      </contour>
    </TTGlyph>
    <TTGlyph name="exclam" xMin="228" yMin="-5" xMax="510" yMax="755">
      <contour>
        <pt x="301" y="-5" on="1"/>
        <pt x="266" y="-5" on="0"/>
        <pt x="228" y="44" on="0"/>
        <pt x="236" y="78" on="1"/>
        <pt x="243" y="113" on="0"/>
        <pt x="301" y="162" on="0"/>
        <pt x="336" y="162" on="1"/>
        <pt x="369" y="162" on="0"/>
        <pt x="406" y="113" on="0"/>
        <pt x="399" y="78" on="1"/>
        <pt x="391" y="44" on="0"/>
        <pt x="334" y="-5" on="0"/>
      </contour>
      <contour>
        <pt x="355" y="260" on="1"/>
        <pt x="317" y="260" on="0"/>
        <pt x="324" y="305" on="1"/>
        <pt x="387" y="686" on="1"/>
        <pt x="393" y="713" on="0"/>
        <pt x="429" y="755" on="0"/>
        <pt x="459" y="755" on="1"/>
        <pt x="490" y="755" on="0"/>
        <pt x="510" y="713" on="0"/>
        <pt x="504" y="686" on="1"/>
        <pt x="406" y="305" on="1"/>
        <pt x="394" y="260" on="0"/>
      </contour>
    </TTGlyph>
    <TTGlyph name="f" xMin="-6" yMin="-245" xMax="688" yMax="795">
      <contour>
        <pt x="38" y="-245" on="1"/>
        <pt x="-6" y="-245" on="0"/>
        <pt x="-6" y="-208" on="1"/>
        <pt x="-6" y="-166" on="0"/>
        <pt x="42" y="-166" on="1"/>
        <pt x="44" y="-166" on="1"/>
        <pt x="101" y="-166" on="0"/>
        <pt x="183" y="-71" on="0"/>
        <pt x="200" y="8" on="1"/>
        <pt x="229" y="139" on="1"/>
        <pt x="293" y="441" on="1"/>
        <pt x="293" y="460" on="0"/>
        <pt x="274" y="460" on="1"/>
        <pt x="189" y="460" on="1"/>
        <pt x="171" y="460" on="0"/>
        <pt x="153" y="483" on="0"/>
        <pt x="153" y="495" on="1"/>
        <pt x="153" y="520" on="0"/>
        <pt x="174" y="537" on="1"/>
        <pt x="190" y="550" on="0"/>
        <pt x="208" y="550" on="1"/>
        <pt x="293" y="550" on="1"/>
        <pt x="303" y="550" on="0"/>
        <pt x="319" y="563" on="0"/>
        <pt x="321" y="573" on="1"/>
        <pt x="332" y="624" on="1"/>
        <pt x="349" y="692" on="0"/>
        <pt x="473" y="795" on="0"/>
        <pt x="539" y="795" on="1"/>
        <pt x="651" y="795" on="1"/>
        <pt x="670" y="795" on="0"/>
        <pt x="688" y="772" on="0"/>
        <pt x="688" y="758" on="1"/>
        <pt x="688" y="736" on="0"/>
        <pt x="667" y="718" on="1"/>
        <pt x="651" y="705" on="0"/>
        <pt x="632" y="705" on="1"/>
        <pt x="540" y="705" on="1"/>
        <pt x="503" y="705" on="0"/>
        <pt x="428" y="643" on="0"/>
        <pt x="418" y="604" on="1"/>
        <pt x="411" y="571" on="0"/>
        <pt x="411" y="568" on="1"/>
        <pt x="411" y="550" on="0"/>
        <pt x="430" y="550" on="1"/>
        <pt x="598" y="550" on="1"/>
        <pt x="617" y="550" on="0"/>
        <pt x="635" y="527" on="0"/>
        <pt x="635" y="513" on="1"/>
        <pt x="635" y="491" on="0"/>
        <pt x="614" y="473" on="1"/>
        <pt x="598" y="460" on="0"/>
        <pt x="579" y="460" on="1"/>
        <pt x="411" y="460" on="1"/>
        <pt x="389" y="460" on="0"/>
        <pt x="382" y="436" on="1"/>
        <pt x="290" y="6" on="1"/>
        <pt x="260" y="-126" on="0"/>
        <pt x="190" y="-187" on="1"/>
        <pt x="126" y="-245" on="0"/>
      </contour>
    </TTGlyph>
    <TTGlyph name="five" xMin="96" yMin="-5" xMax="646" yMax="750">
      <contour>
        <pt x="231" y="-5" on="1"/>
        <pt x="213" y="-5" on="1"/>
        <pt x="161" y="-5" on="0"/>
        <pt x="131" y="0" on="1"/>
        <pt x="114" y="3" on="0"/>
        <pt x="96" y="27" on="0"/>
        <pt x="100" y="45" on="1"/>
        <pt x="103" y="63" on="0"/>
        <pt x="133" y="89" on="0"/>
        <pt x="151" y="89" on="1"/>
        <pt x="191" y="85" on="0"/>
        <pt x="243" y="84" on="1"/>
        <pt x="295" y="84" on="0"/>
        <pt x="387" y="118" on="0"/>
        <pt x="454" y="187" on="0"/>
        <pt x="465" y="240" on="1"/>
        <pt x="480" y="309" on="0"/>
        <pt x="398" y="369" on="0"/>
        <pt x="302" y="369" on="1"/>
        <pt x="218" y="369" on="1"/>
        <pt x="199" y="369" on="0"/>
        <pt x="177" y="397" on="0"/>
        <pt x="181" y="416" on="1"/>
        <pt x="242" y="703" on="1"/>
        <pt x="247" y="723" on="0"/>
        <pt x="280" y="750" on="0"/>
        <pt x="299" y="750" on="1"/>
        <pt x="608" y="750" on="1"/>
        <pt x="626" y="750" on="0"/>
        <pt x="646" y="725" on="0"/>
        <pt x="642" y="707" on="1"/>
        <pt x="638" y="689" on="0"/>
        <pt x="608" y="664" on="0"/>
        <pt x="590" y="664" on="1"/>
        <pt x="351" y="664" on="1"/>
        <pt x="341" y="664" on="0"/>
        <pt x="324" y="650" on="0"/>
        <pt x="322" y="640" on="1"/>
        <pt x="288" y="479" on="1"/>
        <pt x="286" y="469" on="0"/>
        <pt x="297" y="456" on="0"/>
        <pt x="307" y="456" on="1"/>
        <pt x="338" y="456" on="1"/>
        <pt x="605" y="456" on="0"/>
        <pt x="561" y="247" on="1"/>
        <pt x="534" y="123" on="0"/>
        <pt x="441" y="63" on="1"/>
        <pt x="339" y="-5" on="0"/>
      </contour>
    </TTGlyph>
    <TTGlyph name="four" xMin="85" yMin="-5" xMax="604" yMax="755">
      <contour>
        <pt x="400" y="240" on="1"/>
        <pt x="407" y="240" on="0"/>
        <pt x="418" y="249" on="0"/>
        <pt x="419" y="256" on="1"/>
        <pt x="482" y="552" on="1"/>
        <pt x="482" y="561" on="0"/>
        <pt x="473" y="561" on="1"/>
        <pt x="466" y="561" on="0"/>
        <pt x="459" y="554" on="1"/>
        <pt x="226" y="264" on="1"/>
        <pt x="221" y="258" on="0"/>
        <pt x="221" y="251" on="1"/>
        <pt x="221" y="240" on="0"/>
        <pt x="234" y="240" on="1"/>
      </contour>
      <contour>
        <pt x="409" y="-5" on="1"/>
        <pt x="390" y="-5" on="0"/>
        <pt x="372" y="18" on="0"/>
        <pt x="372" y="32" on="1"/>
        <pt x="373" y="40" on="1"/>
        <pt x="394" y="137" on="1"/>
        <pt x="394" y="150" on="0"/>
        <pt x="381" y="150" on="1"/>
        <pt x="142" y="150" on="1"/>
        <pt x="113" y="150" on="0"/>
        <pt x="97" y="170" on="1"/>
        <pt x="85" y="185" on="0"/>
        <pt x="85" y="204" on="1"/>
        <pt x="85" y="235" on="0"/>
        <pt x="105" y="257" on="1"/>
        <pt x="501" y="728" on="1"/>
        <pt x="525" y="755" on="0"/>
        <pt x="558" y="755" on="1"/>
        <pt x="582" y="755" on="0"/>
        <pt x="595" y="738" on="1"/>
        <pt x="604" y="726" on="0"/>
        <pt x="604" y="710" on="1"/>
        <pt x="603" y="697" on="1"/>
        <pt x="509" y="253" on="1"/>
        <pt x="509" y="240" on="0"/>
        <pt x="522" y="240" on="1"/>
        <pt x="556" y="240" on="1"/>
        <pt x="575" y="240" on="0"/>
        <pt x="585" y="227" on="1"/>
        <pt x="592" y="218" on="0"/>
        <pt x="592" y="205" on="1"/>
        <pt x="592" y="180" on="0"/>
        <pt x="571" y="163" on="1"/>
        <pt x="555" y="150" on="0"/>
        <pt x="537" y="150" on="1"/>
        <pt x="502" y="150" on="1"/>
        <pt x="496" y="150" on="0"/>
        <pt x="485" y="141" on="0"/>
        <pt x="484" y="134" on="1"/>
        <pt x="463" y="40" on="1"/>
        <pt x="459" y="21" on="0"/>
        <pt x="428" y="-5" on="0"/>
      </contour>
    </TTGlyph>
    <TTGlyph name="g" xMin="28" yMin="-236" xMax="594" yMax="555">
      <contour>
        <pt x="284" y="101" on="1"/>
        <pt x="338" y="101" on="0"/>
        <pt x="384" y="140" on="1"/>
        <pt x="433" y="184" on="0"/>
        <pt x="443" y="232" on="1"/>
        <pt x="469" y="349" on="0"/>
        <pt x="469" y="364" on="1"/>
        <pt x="469" y="403" on="0"/>
        <pt x="413" y="465" on="0"/>
        <pt x="369" y="465" on="1"/>
        <pt x="249" y="465" on="0"/>
        <pt x="200" y="284" on="1"/>
        <pt x="192" y="240" on="0"/>
        <pt x="192" y="214" on="1"/>
        <pt x="192" y="101" on="0"/>
      </contour>
      <contour>
        <pt x="211" y="-236" on="1"/>
        <pt x="92" y="-236" on="0"/>
        <pt x="34" y="-152" on="1"/>
        <pt x="28" y="-143" on="0"/>
        <pt x="28" y="-133" on="1"/>
        <pt x="28" y="-112" on="0"/>
        <pt x="58" y="-84" on="0"/>
        <pt x="76" y="-84" on="1"/>
        <pt x="93" y="-84" on="0"/>
        <pt x="102" y="-95" on="1"/>
        <pt x="127" y="-126" on="0"/>
        <pt x="173" y="-155" on="0"/>
        <pt x="228" y="-155" on="1"/>
        <pt x="289" y="-154" on="0"/>
        <pt x="335" y="-118" on="1"/>
        <pt x="375" y="-87" on="0"/>
        <pt x="383" y="-49" on="1"/>
        <pt x="399" y="22" on="0"/>
        <pt x="399" y="27" on="1"/>
        <pt x="399" y="39" on="0"/>
        <pt x="385" y="39" on="1"/>
        <pt x="376" y="39" on="0"/>
        <pt x="363" y="30" on="1"/>
        <pt x="313" y="-5" on="0"/>
        <pt x="247" y="-5" on="1"/>
        <pt x="161" y="-5" on="0"/>
        <pt x="121" y="70" on="1"/>
        <pt x="97" y="115" on="0"/>
        <pt x="97" y="179" on="1"/>
        <pt x="97" y="220" on="0"/>
        <pt x="107" y="268" on="1"/>
        <pt x="171" y="555" on="0"/>
        <pt x="365" y="555" on="1"/>
        <pt x="446" y="555" on="0"/>
        <pt x="480" y="506" on="1"/>
        <pt x="484" y="500" on="0"/>
        <pt x="490" y="500" on="1"/>
        <pt x="500" y="500" on="0"/>
        <pt x="507" y="519" on="1"/>
        <pt x="521" y="555" on="0"/>
        <pt x="559" y="555" on="1"/>
        <pt x="594" y="555" on="0"/>
        <pt x="594" y="522" on="1"/>
        <pt x="594" y="517" on="0"/>
        <pt x="480" y="-19" on="1"/>
        <pt x="458" y="-120" on="0"/>
        <pt x="311" y="-236" on="0"/>
      </contour>
    </TTGlyph>
    <TTGlyph name="grave" xMin="335" yMin="550" xMax="552" yMax="800">
      <contour>
        <pt x="497" y="550" on="1"/>
        <pt x="479" y="550" on="0"/>
        <pt x="467" y="564" on="1"/>
        <pt x="342" y="722" on="1"/>
        <pt x="335" y="733" on="0"/>
        <pt x="335" y="745" on="1"/>
        <pt x="335" y="770" on="0"/>
        <pt x="373" y="800" on="0"/>
        <pt x="390" y="800" on="1"/>
        <pt x="407" y="800" on="0"/>
        <pt x="419" y="786" on="1"/>
        <pt x="544" y="627" on="1"/>
        <pt x="552" y="617" on="0"/>
        <pt x="552" y="604" on="1"/>
        <pt x="552" y="581" on="0"/>
        <pt x="531" y="563" on="1"/>
        <pt x="514" y="550" on="0"/>
      </contour>
    </TTGlyph>
    <TTGlyph name="greater" xMin="103" yMin="79" xMax="592" yMax="539">
      <contour>
        <pt x="140" y="79" on="1"/>
        <pt x="114" y="79" on="0"/>
        <pt x="104" y="106" on="1"/>
        <pt x="103" y="114" on="1"/>
        <pt x="104" y="123" on="1"/>
        <pt x="111" y="151" on="0"/>
        <pt x="139" y="165" on="1"/>
        <pt x="412" y="296" on="1"/>
        <pt x="424" y="302" on="0"/>
        <pt x="424" y="314" on="1"/>
        <pt x="424" y="321" on="0"/>
        <pt x="418" y="324" on="1"/>
        <pt x="201" y="453" on="1"/>
        <pt x="183" y="464" on="0"/>
        <pt x="183" y="485" on="1"/>
        <pt x="183" y="500" on="0"/>
        <pt x="192" y="512" on="1"/>
        <pt x="212" y="539" on="0"/>
        <pt x="238" y="539" on="1"/>
        <pt x="248" y="539" on="0"/>
        <pt x="257" y="534" on="1"/>
        <pt x="574" y="351" on="1"/>
        <pt x="592" y="340" on="0"/>
        <pt x="592" y="320" on="1"/>
        <pt x="591" y="311" on="1"/>
        <pt x="584" y="283" on="0"/>
        <pt x="557" y="270" on="1"/>
        <pt x="160" y="83" on="1"/>
        <pt x="150" y="79" on="0"/>
      </contour>
    </TTGlyph>
    <TTGlyph name="h" xMin="91" yMin="-5" xMax="645" yMax="800">
      <contour>
        <pt x="128" y="-5" on="1"/>
        <pt x="108" y="-5" on="0"/>
        <pt x="98" y="8" on="1"/>
        <pt x="91" y="16" on="0"/>
        <pt x="91" y="28" on="1"/>
        <pt x="91" y="33" on="0"/>
        <pt x="244" y="753" on="1"/>
        <pt x="248" y="773" on="0"/>
        <pt x="281" y="800" on="0"/>
        <pt x="299" y="800" on="1"/>
        <pt x="317" y="800" on="0"/>
        <pt x="328" y="787" on="1"/>
        <pt x="335" y="777" on="0"/>
        <pt x="335" y="764" on="1"/>
        <pt x="335" y="759" on="0"/>
        <pt x="278" y="488" on="0"/>
        <pt x="278" y="485" on="1"/>
        <pt x="278" y="477" on="0"/>
        <pt x="285" y="477" on="1"/>
        <pt x="290" y="477" on="0"/>
        <pt x="299" y="484" on="1"/>
        <pt x="381" y="554" on="0"/>
        <pt x="455" y="555" on="1"/>
        <pt x="600" y="555" on="0"/>
        <pt x="600" y="418" on="1"/>
        <pt x="600" y="397" on="0"/>
        <pt x="596" y="372" on="1"/>
        <pt x="594" y="358" on="0"/>
        <pt x="573" y="255" on="1"/>
        <pt x="544" y="118" on="0"/>
        <pt x="544" y="88" on="1"/>
        <pt x="544" y="49" on="0"/>
        <pt x="570" y="49" on="1"/>
        <pt x="580" y="49" on="0"/>
        <pt x="608" y="66" on="1"/>
        <pt x="619" y="73" on="0"/>
        <pt x="626" y="73" on="1"/>
        <pt x="633" y="73" on="0"/>
        <pt x="645" y="59" on="0"/>
        <pt x="645" y="52" on="1"/>
        <pt x="645" y="37" on="0"/>
        <pt x="593" y="9" on="1"/>
        <pt x="566" y="-5" on="0"/>
        <pt x="533" y="-5" on="1"/>
        <pt x="503" y="-5" on="0"/>
        <pt x="472" y="1" on="0"/>
        <pt x="462" y="11" on="1"/>
        <pt x="447" y="26" on="0"/>
        <pt x="447" y="47" on="1"/>
        <pt x="447" y="52" on="0"/>
        <pt x="501" y="336" on="1"/>
        <pt x="506" y="362" on="0"/>
        <pt x="506" y="384" on="1"/>
        <pt x="506" y="458" on="0"/>
        <pt x="421" y="458" on="1"/>
        <pt x="373" y="457" on="0"/>
        <pt x="317" y="416" on="1"/>
        <pt x="250" y="366" on="0"/>
        <pt x="239" y="315" on="1"/>
        <pt x="181" y="41" on="1"/>
        <pt x="170" y="-5" on="0"/>
      </contour>
    </TTGlyph>
    <TTGlyph name="hyphen" xMin="125" yMin="265" xMax="606" yMax="355">
      <contour>
        <pt x="551" y="265" on="1"/>
        <pt x="161" y="265" on="1"/>
        <pt x="142" y="265" on="0"/>
        <pt x="132" y="278" on="1"/>
        <pt x="125" y="287" on="0"/>
        <pt x="125" y="300" on="1"/>
        <pt x="125" y="325" on="0"/>
        <pt x="146" y="342" on="1"/>
        <pt x="162" y="355" on="0"/>
        <pt x="180" y="355" on="1"/>
        <pt x="570" y="355" on="1"/>
        <pt x="589" y="355" on="0"/>
        <pt x="599" y="342" on="1"/>
        <pt x="606" y="333" on="0"/>
        <pt x="606" y="320" on="1"/>
        <pt x="606" y="295" on="0"/>
        <pt x="585" y="278" on="1"/>
        <pt x="569" y="265" on="0"/>
      </contour>
    </TTGlyph>
    <TTGlyph name="i" xMin="149" yMin="-4" xMax="581" yMax="801">
      <contour>
        <pt x="424" y="652" on="1"/>
        <pt x="393" y="652" on="0"/>
        <pt x="377" y="673" on="1"/>
        <pt x="366" y="688" on="0"/>
        <pt x="366" y="708" on="1"/>
        <pt x="367" y="750" on="0"/>
        <pt x="402" y="779" on="1"/>
        <pt x="428" y="801" on="0"/>
        <pt x="459" y="801" on="1"/>
        <pt x="488" y="801" on="0"/>
        <pt x="505" y="779" on="1"/>
        <pt x="516" y="763" on="0"/>
        <pt x="516" y="743" on="1"/>
        <pt x="515" y="702" on="0"/>
        <pt x="481" y="674" on="1"/>
        <pt x="453" y="652" on="0"/>
      </contour>
      <contour>
        <pt x="331" y="-4" on="1"/>
        <pt x="246" y="-4" on="0"/>
        <pt x="246" y="81" on="1"/>
        <pt x="247" y="150" on="0"/>
        <pt x="293" y="297" on="1"/>
        <pt x="314" y="382" on="1"/>
        <pt x="328" y="436" on="0"/>
        <pt x="328" y="449" on="1"/>
        <pt x="328" y="466" on="0"/>
        <pt x="312" y="466" on="1"/>
        <pt x="307" y="466" on="0"/>
        <pt x="292" y="462" on="1"/>
        <pt x="259" y="452" on="0"/>
        <pt x="183" y="433" on="1"/>
        <pt x="169" y="433" on="0"/>
        <pt x="149" y="453" on="0"/>
        <pt x="149" y="469" on="1"/>
        <pt x="149" y="491" on="0"/>
        <pt x="184" y="522" on="0"/>
        <pt x="205" y="526" on="1"/>
        <pt x="363" y="556" on="1"/>
        <pt x="388" y="556" on="0"/>
        <pt x="428" y="513" on="0"/>
        <pt x="428" y="489" on="1"/>
        <pt x="428" y="485" on="0"/>
        <pt x="402" y="386" on="0"/>
        <pt x="387" y="321" on="1"/>
        <pt x="346" y="151" on="0"/>
        <pt x="346" y="137" on="1"/>
        <pt x="346" y="94" on="0"/>
        <pt x="379" y="94" on="1"/>
        <pt x="413" y="94" on="0"/>
        <pt x="482" y="137" on="0"/>
        <pt x="533" y="186" on="1"/>
        <pt x="543" y="194" on="0"/>
        <pt x="553" y="194" on="1"/>
        <pt x="565" y="194" on="0"/>
        <pt x="581" y="177" on="0"/>
        <pt x="581" y="166" on="1"/>
        <pt x="581" y="156" on="0"/>
        <pt x="574" y="147" on="1"/>
        <pt x="498" y="65" on="0"/>
        <pt x="396" y="-4" on="0"/>
      </contour>
    </TTGlyph>
    <TTGlyph name="j" xMin="52" yMin="-217" xMax="575" yMax="800">
      <contour>
        <pt x="155" y="-147" on="1"/>
        <pt x="195" y="-147" on="0"/>
        <pt x="270" y="-11" on="0"/>
        <pt x="296" y="96" on="1"/>
        <pt x="118" y="-56" on="0"/>
        <pt x="118" y="-122" on="1"/>
        <pt x="118" y="-147" on="0"/>
      </contour>
      <contour>
        <pt x="456" y="653" on="1"/>
        <pt x="404" y="653" on="0"/>
        <pt x="399" y="709" on="1"/>
        <pt x="399" y="744" on="0"/>
        <pt x="450" y="800" on="0"/>
        <pt x="487" y="800" on="1"/>
        <pt x="512" y="800" on="0"/>
        <pt x="545" y="765" on="0"/>
        <pt x="545" y="742" on="1"/>
        <pt x="545" y="706" on="0"/>
        <pt x="488" y="653" on="0"/>
      </contour>
      <contour>
        <pt x="138" y="-217" on="1"/>
        <pt x="52" y="-217" on="0"/>
        <pt x="52" y="-136" on="1"/>
        <pt x="52" y="-89" on="0"/>
        <pt x="147" y="56" on="0"/>
        <pt x="321" y="190" on="1"/>
        <pt x="374" y="437" on="0"/>
        <pt x="374" y="444" on="1"/>
        <pt x="374" y="465" on="0"/>
        <pt x="357" y="465" on="1"/>
        <pt x="352" y="465" on="0"/>
        <pt x="340" y="462" on="1"/>
        <pt x="309" y="451" on="0"/>
        <pt x="230" y="432" on="1"/>
        <pt x="195" y="432" on="0"/>
        <pt x="195" y="468" on="1"/>
        <pt x="195" y="489" on="0"/>
        <pt x="216" y="509" on="1"/>
        <pt x="232" y="522" on="0"/>
        <pt x="250" y="525" on="1"/>
        <pt x="407" y="555" on="1"/>
        <pt x="437" y="555" on="0"/>
        <pt x="458" y="527" on="1"/>
        <pt x="473" y="506" on="0"/>
        <pt x="473" y="480" on="1"/>
        <pt x="427" y="258" on="1"/>
        <pt x="528" y="341" on="1"/>
        <pt x="537" y="348" on="0"/>
        <pt x="547" y="348" on="1"/>
        <pt x="559" y="348" on="0"/>
        <pt x="575" y="329" on="0"/>
        <pt x="575" y="319" on="1"/>
        <pt x="575" y="307" on="0"/>
        <pt x="564" y="297" on="1"/>
        <pt x="412" y="176" on="1"/>
        <pt x="379" y="46" on="0"/>
        <pt x="363" y="1" on="1"/>
        <pt x="318" y="-121" on="0"/>
        <pt x="204" y="-217" on="0"/>
      </contour>
    </TTGlyph>
    <TTGlyph name="k" xMin="111" yMin="-5" xMax="584" yMax="800">
      <contour>
        <pt x="470" y="-5" on="1"/>
        <pt x="446" y="-5" on="0"/>
        <pt x="422" y="21" on="1"/>
        <pt x="279" y="232" on="1"/>
        <pt x="273" y="241" on="0"/>
        <pt x="273" y="250" on="1"/>
        <pt x="273" y="259" on="0"/>
        <pt x="284" y="264" on="1"/>
        <pt x="493" y="353" on="0"/>
        <pt x="493" y="427" on="1"/>
        <pt x="493" y="457" on="0"/>
        <pt x="451" y="458" on="1"/>
        <pt x="391" y="458" on="0"/>
        <pt x="279" y="348" on="1"/>
        <pt x="201" y="33" on="1"/>
        <pt x="196" y="17" on="0"/>
        <pt x="168" y="-4" on="0"/>
        <pt x="153" y="-4" on="1"/>
        <pt x="133" y="-4" on="0"/>
        <pt x="111" y="21" on="0"/>
        <pt x="111" y="39" on="1"/>
        <pt x="111" y="44" on="0"/>
        <pt x="287" y="762" on="1"/>
        <pt x="300" y="800" on="0"/>
        <pt x="337" y="800" on="1"/>
        <pt x="357" y="800" on="0"/>
        <pt x="380" y="775" on="0"/>
        <pt x="380" y="759" on="1"/>
        <pt x="379" y="749" on="0"/>
        <pt x="305" y="469" on="1"/>
        <pt x="426" y="555" on="0"/>
        <pt x="500" y="555" on="1"/>
        <pt x="584" y="555" on="0"/>
        <pt x="584" y="471" on="1"/>
        <pt x="581" y="333" on="0"/>
        <pt x="396" y="244" on="1"/>
        <pt x="386" y="238" on="0"/>
        <pt x="386" y="226" on="1"/>
        <pt x="386" y="218" on="0"/>
        <pt x="393" y="209" on="1"/>
        <pt x="472" y="78" on="0"/>
        <pt x="490" y="78" on="1"/>
        <pt x="518" y="78" on="0"/>
        <pt x="526" y="123" on="1"/>
        <pt x="531" y="142" on="0"/>
        <pt x="549" y="142" on="1"/>
        <pt x="570" y="142" on="0"/>
        <pt x="570" y="116" on="1"/>
        <pt x="554" y="50" on="0"/>
        <pt x="515" y="16" on="1"/>
        <pt x="493" y="-5" on="0"/>
      </contour>
    </TTGlyph>
    <TTGlyph name="l" xMin="69" yMin="-5" xMax="664" yMax="800">
      <contour>
        <pt x="284" y="-5" on="1"/>
        <pt x="170" y="-5" on="0"/>
        <pt x="170" y="96" on="1"/>
        <pt x="170" y="135" on="0"/>
        <pt x="179" y="186" on="0"/>
        <pt x="189" y="226" on="1"/>
        <pt x="201" y="275" on="1"/>
        <pt x="118" y="233" on="0"/>
        <pt x="104" y="233" on="1"/>
        <pt x="92" y="233" on="0"/>
        <pt x="69" y="251" on="0"/>
        <pt x="69" y="268" on="1"/>
        <pt x="71" y="289" on="0"/>
        <pt x="92" y="300" on="1"/>
        <pt x="124" y="311" on="0"/>
        <pt x="155" y="324" on="1"/>
        <pt x="219" y="352" on="1"/>
        <pt x="270" y="557" on="1"/>
        <pt x="298" y="674" on="0"/>
        <pt x="433" y="800" on="0"/>
        <pt x="526" y="800" on="1"/>
        <pt x="585" y="800" on="0"/>
        <pt x="664" y="736" on="0"/>
        <pt x="664" y="671" on="1"/>
        <pt x="664" y="553" on="0"/>
        <pt x="546" y="453" on="1"/>
        <pt x="485" y="402" on="0"/>
        <pt x="308" y="308" on="1"/>
        <pt x="294" y="250" on="0"/>
        <pt x="265" y="132" on="0"/>
        <pt x="265" y="109" on="1"/>
        <pt x="265" y="75" on="0"/>
        <pt x="308" y="75" on="1"/>
        <pt x="341" y="75" on="0"/>
        <pt x="393" y="111" on="0"/>
        <pt x="425" y="153" on="1"/>
        <pt x="439" y="169" on="0"/>
        <pt x="455" y="169" on="1"/>
        <pt x="470" y="169" on="0"/>
        <pt x="493" y="147" on="0"/>
        <pt x="493" y="132" on="1"/>
        <pt x="493" y="120" on="0"/>
        <pt x="485" y="109" on="1"/>
        <pt x="423" y="31" on="0"/>
        <pt x="364" y="10" on="1"/>
        <pt x="329" y="-5" on="0"/>
      </contour>
      <contour>
        <pt x="336" y="404" on="1"/>
        <pt x="476" y="473" on="0"/>
        <pt x="592" y="596" on="0"/>
        <pt x="592" y="669" on="1"/>
        <pt x="592" y="723" on="0"/>
        <pt x="526" y="724" on="1"/>
        <pt x="489" y="724" on="0"/>
        <pt x="399" y="663" on="0"/>
        <pt x="377" y="580" on="1"/>
      </contour>
    </TTGlyph>
    <TTGlyph name="left_arrow_single" xMin="-417" yMin="4" xMax="607" yMax="609">
      <contour>
        <pt x="-177" y="4" on="1"/>
        <pt x="-192" y="4" on="0"/>
        <pt x="-202" y="16" on="1"/>
        <pt x="-411" y="281" on="1"/>
        <pt x="-417" y="289" on="0"/>
        <pt x="-417" y="300" on="1"/>
        <pt x="-417" y="321" on="0"/>
        <pt x="-399" y="338" on="1"/>
        <pt x="-84" y="598" on="1"/>
        <pt x="-70" y="609" on="0"/>
        <pt x="-55" y="609" on="1"/>
        <pt x="-37" y="609" on="0"/>
        <pt x="-25" y="595" on="1"/>
        <pt x="-16" y="583" on="0"/>
        <pt x="-16" y="570" on="1"/>
        <pt x="-16" y="550" on="0"/>
        <pt x="-34" y="534" on="1"/>
        <pt x="-132" y="453" on="1"/>
        <pt x="-53" y="355" on="1"/>
        <pt x="571" y="355" on="1"/>
        <pt x="590" y="355" on="0"/>
        <pt x="600" y="342" on="1"/>
        <pt x="607" y="333" on="0"/>
        <pt x="607" y="320" on="1"/>
        <pt x="607" y="295" on="0"/>
        <pt x="586" y="278" on="1"/>
        <pt x="570" y="265" on="0"/>
        <pt x="551" y="265" on="1"/>
        <pt x="-72" y="265" on="1"/>
        <pt x="-194" y="166" on="1"/>
        <pt x="-125" y="79" on="1"/>
        <pt x="-119" y="71" on="0"/>
        <pt x="-119" y="61" on="1"/>
        <pt x="-119" y="36" on="0"/>
        <pt x="-141" y="18" on="1"/>
        <pt x="-159" y="4" on="0"/>
      </contour>
      <contour>
        <pt x="-241" y="239" on="1"/>
        <pt x="-232" y="239" on="0"/>
        <pt x="-223" y="246" on="1"/>
        <pt x="-165" y="293" on="1"/>
        <pt x="-154" y="304" on="0"/>
        <pt x="-154" y="315" on="1"/>
        <pt x="-154" y="322" on="0"/>
        <pt x="-158" y="327" on="1"/>
        <pt x="-196" y="373" on="1"/>
        <pt x="-203" y="380" on="0"/>
        <pt x="-212" y="380" on="1"/>
        <pt x="-221" y="380" on="0"/>
        <pt x="-229" y="373" on="1"/>
        <pt x="-286" y="326" on="1"/>
        <pt x="-297" y="316" on="0"/>
        <pt x="-297" y="305" on="1"/>
        <pt x="-297" y="298" on="0"/>
        <pt x="-293" y="293" on="1"/>
        <pt x="-256" y="246" on="1"/>
        <pt x="-250" y="239" on="0"/>
      </contour>
    </TTGlyph>
    <TTGlyph name="left_right_arrow_double" xMin="-1020" yMin="4" xMax="552" yMax="609">
      <contour>
        <pt x="219" y="250" on="1"/>
        <pt x="238" y="250" on="0"/>
        <pt x="249" y="236" on="1"/>
        <pt x="290" y="187" on="1"/>
        <pt x="418" y="293" on="1"/>
        <pt x="427" y="300" on="0"/>
        <pt x="429" y="310" on="1"/>
        <pt x="431" y="319" on="0"/>
        <pt x="425" y="326" on="1"/>
        <pt x="342" y="432" on="1"/>
        <pt x="280" y="383" on="1"/>
        <pt x="265" y="370" on="0"/>
        <pt x="245" y="370" on="1"/>
        <pt x="-687" y="370" on="1"/>
        <pt x="-707" y="370" on="0"/>
        <pt x="-718" y="383" on="1"/>
        <pt x="-758" y="432" on="1"/>
        <pt x="-887" y="326" on="1"/>
        <pt x="-895" y="319" on="0"/>
        <pt x="-897" y="310" on="1"/>
        <pt x="-899" y="300" on="0"/>
        <pt x="-894" y="293" on="1"/>
        <pt x="-810" y="187" on="1"/>
        <pt x="-749" y="236" on="1"/>
        <pt x="-732" y="250" on="0"/>
        <pt x="-713" y="250" on="1"/>
      </contour>
      <contour>
        <pt x="226" y="460" on="1"/>
        <pt x="245" y="460" on="0"/>
        <pt x="262" y="473" on="1"/>
        <pt x="291" y="496" on="1"/>
        <pt x="262" y="534" on="1"/>
        <pt x="253" y="545" on="0"/>
        <pt x="256" y="562" on="1"/>
        <pt x="260" y="580" on="0"/>
        <pt x="295" y="609" on="0"/>
        <pt x="314" y="609" on="1"/>
        <pt x="329" y="609" on="0"/>
        <pt x="338" y="598" on="1"/>
        <pt x="543" y="338" on="1"/>
        <pt x="552" y="327" on="0"/>
        <pt x="548" y="310" on="1"/>
        <pt x="544" y="292" on="0"/>
        <pt x="531" y="281" on="1"/>
        <pt x="208" y="15" on="1"/>
        <pt x="195" y="4" on="0"/>
        <pt x="179" y="4" on="1"/>
        <pt x="161" y="4" on="0"/>
        <pt x="138" y="32" on="0"/>
        <pt x="142" y="51" on="1"/>
        <pt x="145" y="67" on="0"/>
        <pt x="159" y="78" on="1"/>
        <pt x="212" y="123" on="1"/>
        <pt x="192" y="146" on="1"/>
        <pt x="180" y="160" on="0"/>
        <pt x="162" y="160" on="1"/>
        <pt x="-694" y="160" on="1"/>
        <pt x="-712" y="160" on="0"/>
        <pt x="-730" y="146" on="1"/>
        <pt x="-760" y="123" on="1"/>
        <pt x="-725" y="78" on="1"/>
        <pt x="-717" y="67" on="0"/>
        <pt x="-720" y="51" on="1"/>
        <pt x="-724" y="32" on="0"/>
        <pt x="-759" y="4" on="0"/>
        <pt x="-777" y="4" on="1"/>
        <pt x="-793" y="4" on="0"/>
        <pt x="-802" y="15" on="1"/>
        <pt x="-1011" y="281" on="1"/>
        <pt x="-1020" y="292" on="0"/>
        <pt x="-1016" y="310" on="1"/>
        <pt x="-1012" y="327" on="0"/>
        <pt x="-999" y="338" on="1"/>
        <pt x="-684" y="598" on="1"/>
        <pt x="-671" y="609" on="0"/>
        <pt x="-656" y="609" on="1"/>
        <pt x="-637" y="609" on="0"/>
        <pt x="-614" y="580" on="0"/>
        <pt x="-618" y="562" on="1"/>
        <pt x="-621" y="545" on="0"/>
        <pt x="-634" y="534" on="1"/>
        <pt x="-681" y="496" on="1"/>
        <pt x="-660" y="473" on="1"/>
        <pt x="-649" y="460" on="0"/>
        <pt x="-630" y="460" on="1"/>
      </contour>
    </TTGlyph>
    <TTGlyph name="left_right_arrow_double_long" xMin="-1620" yMin="4" xMax="552" yMax="609">
      <contour>
        <pt x="219" y="250" on="1"/>
        <pt x="238" y="250" on="0"/>
        <pt x="249" y="236" on="1"/>
        <pt x="290" y="187" on="1"/>
        <pt x="418" y="293" on="1"/>
        <pt x="427" y="300" on="0"/>
        <pt x="429" y="310" on="1"/>
        <pt x="431" y="319" on="0"/>
        <pt x="425" y="326" on="1"/>
        <pt x="342" y="432" on="1"/>
        <pt x="280" y="383" on="1"/>
        <pt x="265" y="370" on="0"/>
        <pt x="245" y="370" on="1"/>
        <pt x="-1287" y="370" on="1"/>
        <pt x="-1307" y="370" on="0"/>
        <pt x="-1318" y="383" on="1"/>
        <pt x="-1358" y="432" on="1"/>
        <pt x="-1487" y="326" on="1"/>
        <pt x="-1495" y="319" on="0"/>
        <pt x="-1497" y="310" on="1"/>
        <pt x="-1499" y="300" on="0"/>
        <pt x="-1494" y="293" on="1"/>
        <pt x="-1410" y="187" on="1"/>
        <pt x="-1349" y="236" on="1"/>
        <pt x="-1332" y="250" on="0"/>
        <pt x="-1313" y="250" on="1"/>
      </contour>
      <contour>
        <pt x="226" y="460" on="1"/>
        <pt x="245" y="460" on="0"/>
        <pt x="262" y="473" on="1"/>
        <pt x="291" y="496" on="1"/>
        <pt x="262" y="534" on="1"/>
        <pt x="253" y="545" on="0"/>
        <pt x="256" y="562" on="1"/>
        <pt x="260" y="580" on="0"/>
        <pt x="295" y="609" on="0"/>
        <pt x="314" y="609" on="1"/>
        <pt x="329" y="609" on="0"/>
        <pt x="338" y="598" on="1"/>
        <pt x="543" y="338" on="1"/>
        <pt x="552" y="327" on="0"/>
        <pt x="548" y="310" on="1"/>
        <pt x="544" y="292" on="0"/>
        <pt x="531" y="281" on="1"/>
        <pt x="208" y="15" on="1"/>
        <pt x="195" y="4" on="0"/>
        <pt x="179" y="4" on="1"/>
        <pt x="161" y="4" on="0"/>
        <pt x="138" y="32" on="0"/>
        <pt x="142" y="51" on="1"/>
        <pt x="145" y="67" on="0"/>
        <pt x="159" y="78" on="1"/>
        <pt x="212" y="123" on="1"/>
        <pt x="192" y="146" on="1"/>
        <pt x="180" y="160" on="0"/>
        <pt x="162" y="160" on="1"/>
        <pt x="-1294" y="160" on="1"/>
        <pt x="-1312" y="160" on="0"/>
        <pt x="-1330" y="146" on="1"/>
        <pt x="-1360" y="123" on="1"/>
        <pt x="-1325" y="78" on="1"/>
        <pt x="-1317" y="67" on="0"/>
        <pt x="-1320" y="51" on="1"/>
        <pt x="-1324" y="32" on="0"/>
        <pt x="-1359" y="4" on="0"/>
        <pt x="-1377" y="4" on="1"/>
        <pt x="-1393" y="4" on="0"/>
        <pt x="-1402" y="15" on="1"/>
        <pt x="-1611" y="281" on="1"/>
        <pt x="-1620" y="292" on="0"/>
        <pt x="-1616" y="310" on="1"/>
        <pt x="-1612" y="327" on="0"/>
        <pt x="-1599" y="338" on="1"/>
        <pt x="-1284" y="598" on="1"/>
        <pt x="-1271" y="609" on="0"/>
        <pt x="-1256" y="609" on="1"/>
        <pt x="-1237" y="609" on="0"/>
        <pt x="-1214" y="580" on="0"/>
        <pt x="-1218" y="562" on="1"/>
        <pt x="-1221" y="545" on="0"/>
        <pt x="-1234" y="534" on="1"/>
        <pt x="-1281" y="496" on="1"/>
        <pt x="-1260" y="473" on="1"/>
        <pt x="-1249" y="460" on="0"/>
        <pt x="-1230" y="460" on="1"/>
      </contour>
    </TTGlyph>
    <TTGlyph name="left_right_arrow_single" xMin="-1020" yMin="4" xMax="551" yMax="609">
      <contour>
        <pt x="344" y="239" on="1"/>
        <pt x="353" y="239" on="0"/>
        <pt x="361" y="246" on="1"/>
        <pt x="418" y="293" on="1"/>
        <pt x="427" y="300" on="0"/>
        <pt x="429" y="309" on="1"/>
        <pt x="431" y="318" on="0"/>
        <pt x="425" y="326" on="1"/>
        <pt x="388" y="373" on="1"/>
        <pt x="383" y="380" on="0"/>
        <pt x="374" y="380" on="1"/>
        <pt x="365" y="380" on="0"/>
        <pt x="355" y="373" on="1"/>
        <pt x="298" y="327" on="1"/>
        <pt x="294" y="324" on="0"/>
        <pt x="288" y="315" on="0"/>
        <pt x="287" y="310" on="1"/>
        <pt x="286" y="306" on="0"/>
        <pt x="288" y="296" on="0"/>
        <pt x="290" y="293" on="1"/>
        <pt x="328" y="246" on="1"/>
        <pt x="335" y="239" on="0"/>
      </contour>
      <contour>
        <pt x="-841" y="239" on="1"/>
        <pt x="-832" y="239" on="0"/>
        <pt x="-824" y="246" on="1"/>
        <pt x="-766" y="293" on="1"/>
        <pt x="-762" y="296" on="0"/>
        <pt x="-756" y="306" on="0"/>
        <pt x="-755" y="310" on="1"/>
        <pt x="-754" y="315" on="0"/>
        <pt x="-756" y="324" on="0"/>
        <pt x="-758" y="327" on="1"/>
        <pt x="-797" y="373" on="1"/>
        <pt x="-802" y="380" on="0"/>
        <pt x="-811" y="380" on="1"/>
        <pt x="-820" y="380" on="0"/>
        <pt x="-830" y="373" on="1"/>
        <pt x="-887" y="326" on="1"/>
        <pt x="-895" y="318" on="0"/>
        <pt x="-897" y="309" on="1"/>
        <pt x="-899" y="300" on="0"/>
        <pt x="-894" y="293" on="1"/>
        <pt x="-857" y="246" on="1"/>
        <pt x="-850" y="239" on="0"/>
      </contour>
      <contour>
        <pt x="203" y="355" on="1"/>
        <pt x="325" y="453" on="1"/>
        <pt x="262" y="534" on="1"/>
        <pt x="253" y="546" on="0"/>
        <pt x="256" y="562" on="1"/>
        <pt x="260" y="580" on="0"/>
        <pt x="295" y="609" on="0"/>
        <pt x="314" y="609" on="1"/>
        <pt x="329" y="609" on="0"/>
        <pt x="338" y="598" on="1"/>
        <pt x="543" y="338" on="1"/>
        <pt x="551" y="325" on="0"/>
        <pt x="548" y="310" on="1"/>
        <pt x="544" y="293" on="0"/>
        <pt x="531" y="281" on="1"/>
        <pt x="208" y="16" on="1"/>
        <pt x="194" y="4" on="0"/>
        <pt x="179" y="4" on="1"/>
        <pt x="161" y="4" on="0"/>
        <pt x="138" y="33" on="0"/>
        <pt x="142" y="51" on="1"/>
        <pt x="145" y="67" on="0"/>
        <pt x="159" y="79" on="1"/>
        <pt x="264" y="166" on="1"/>
        <pt x="184" y="265" on="1"/>
        <pt x="-672" y="265" on="1"/>
        <pt x="-794" y="166" on="1"/>
        <pt x="-725" y="79" on="1"/>
        <pt x="-717" y="67" on="0"/>
        <pt x="-720" y="51" on="1"/>
        <pt x="-724" y="33" on="0"/>
        <pt x="-759" y="4" on="0"/>
        <pt x="-777" y="4" on="1"/>
        <pt x="-792" y="4" on="0"/>
        <pt x="-802" y="16" on="1"/>
        <pt x="-1011" y="281" on="1"/>
        <pt x="-1020" y="293" on="0"/>
        <pt x="-1016" y="310" on="1"/>
        <pt x="-1013" y="325" on="0"/>
        <pt x="-999" y="338" on="1"/>
        <pt x="-684" y="598" on="1"/>
        <pt x="-670" y="609" on="0"/>
        <pt x="-655" y="609" on="1"/>
        <pt x="-637" y="609" on="0"/>
        <pt x="-614" y="580" on="0"/>
        <pt x="-618" y="562" on="1"/>
        <pt x="-621" y="546" on="0"/>
        <pt x="-634" y="534" on="1"/>
        <pt x="-732" y="453" on="1"/>
        <pt x="-653" y="355" on="1"/>
      </contour>
    </TTGlyph>
    <TTGlyph name="left_right_arrow_single_long" xMin="-1620" yMin="4" xMax="551" yMax="609">
      <contour>
        <pt x="344" y="239" on="1"/>
        <pt x="353" y="239" on="0"/>
        <pt x="361" y="246" on="1"/>
        <pt x="418" y="293" on="1"/>
        <pt x="427" y="300" on="0"/>
        <pt x="429" y="309" on="1"/>
        <pt x="431" y="318" on="0"/>
        <pt x="425" y="326" on="1"/>
        <pt x="388" y="373" on="1"/>
        <pt x="383" y="380" on="0"/>
        <pt x="374" y="380" on="1"/>
        <pt x="365" y="380" on="0"/>
        <pt x="355" y="373" on="1"/>
        <pt x="298" y="327" on="1"/>
        <pt x="294" y="324" on="0"/>
        <pt x="288" y="315" on="0"/>
        <pt x="287" y="310" on="1"/>
        <pt x="286" y="306" on="0"/>
        <pt x="288" y="296" on="0"/>
        <pt x="290" y="293" on="1"/>
        <pt x="328" y="246" on="1"/>
        <pt x="335" y="239" on="0"/>
      </contour>
      <contour>
        <pt x="-1441" y="239" on="1"/>
        <pt x="-1432" y="239" on="0"/>
        <pt x="-1424" y="246" on="1"/>
        <pt x="-1366" y="293" on="1"/>
        <pt x="-1362" y="296" on="0"/>
        <pt x="-1356" y="306" on="0"/>
        <pt x="-1355" y="310" on="1"/>
        <pt x="-1354" y="315" on="0"/>
        <pt x="-1356" y="324" on="0"/>
        <pt x="-1358" y="327" on="1"/>
        <pt x="-1397" y="373" on="1"/>
        <pt x="-1402" y="380" on="0"/>
        <pt x="-1411" y="380" on="1"/>
        <pt x="-1420" y="380" on="0"/>
        <pt x="-1430" y="373" on="1"/>
        <pt x="-1487" y="326" on="1"/>
        <pt x="-1495" y="318" on="0"/>
        <pt x="-1497" y="309" on="1"/>
        <pt x="-1499" y="300" on="0"/>
        <pt x="-1494" y="293" on="1"/>
        <pt x="-1457" y="246" on="1"/>
        <pt x="-1450" y="239" on="0"/>
      </contour>
      <contour>
        <pt x="203" y="355" on="1"/>
        <pt x="325" y="453" on="1"/>
        <pt x="262" y="534" on="1"/>
        <pt x="253" y="546" on="0"/>
        <pt x="256" y="562" on="1"/>
        <pt x="260" y="580" on="0"/>
        <pt x="295" y="609" on="0"/>
        <pt x="314" y="609" on="1"/>
        <pt x="329" y="609" on="0"/>
        <pt x="338" y="598" on="1"/>
        <pt x="543" y="338" on="1"/>
        <pt x="551" y="325" on="0"/>
        <pt x="548" y="310" on="1"/>
        <pt x="544" y="293" on="0"/>
        <pt x="531" y="281" on="1"/>
        <pt x="208" y="16" on="1"/>
        <pt x="194" y="4" on="0"/>
        <pt x="179" y="4" on="1"/>
        <pt x="161" y="4" on="0"/>
        <pt x="138" y="33" on="0"/>
        <pt x="142" y="51" on="1"/>
        <pt x="145" y="67" on="0"/>
        <pt x="159" y="79" on="1"/>
        <pt x="264" y="166" on="1"/>
        <pt x="184" y="265" on="1"/>
        <pt x="-1272" y="265" on="1"/>
        <pt x="-1394" y="166" on="1"/>
        <pt x="-1325" y="79" on="1"/>
        <pt x="-1317" y="67" on="0"/>
        <pt x="-1320" y="51" on="1"/>
        <pt x="-1324" y="33" on="0"/>
        <pt x="-1359" y="4" on="0"/>
        <pt x="-1377" y="4" on="1"/>
        <pt x="-1392" y="4" on="0"/>
        <pt x="-1402" y="16" on="1"/>
        <pt x="-1611" y="281" on="1"/>
        <pt x="-1620" y="293" on="0"/>
        <pt x="-1616" y="310" on="1"/>
        <pt x="-1613" y="325" on="0"/>
        <pt x="-1599" y="338" on="1"/>
        <pt x="-1284" y="598" on="1"/>
        <pt x="-1270" y="609" on="0"/>
        <pt x="-1255" y="609" on="1"/>
        <pt x="-1237" y="609" on="0"/>
        <pt x="-1214" y="580" on="0"/>
        <pt x="-1218" y="562" on="1"/>
        <pt x="-1221" y="546" on="0"/>
        <pt x="-1234" y="534" on="1"/>
        <pt x="-1332" y="453" on="1"/>
        <pt x="-1253" y="355" on="1"/>
      </contour>
    </TTGlyph>
    <TTGlyph name="less" xMin="143" yMin="79" xMax="630" yMax="539">
      <contour>
        <pt x="496" y="79" on="1"/>
        <pt x="486" y="79" on="0"/>
        <pt x="478" y="83" on="1"/>
        <pt x="160" y="270" on="1"/>
        <pt x="143" y="281" on="0"/>
        <pt x="143" y="300" on="1"/>
        <pt x="143" y="334" on="0"/>
        <pt x="178" y="351" on="1"/>
        <pt x="573" y="534" on="1"/>
        <pt x="584" y="539" on="0"/>
        <pt x="594" y="539" on="1"/>
        <pt x="620" y="539" on="0"/>
        <pt x="629" y="512" on="1"/>
        <pt x="630" y="504" on="1"/>
        <pt x="629" y="495" on="1"/>
        <pt x="622" y="467" on="0"/>
        <pt x="594" y="453" on="1"/>
        <pt x="323" y="324" on="1"/>
        <pt x="311" y="319" on="0"/>
        <pt x="311" y="307" on="1"/>
        <pt x="311" y="300" on="0"/>
        <pt x="317" y="296" on="1"/>
        <pt x="534" y="165" on="1"/>
        <pt x="552" y="154" on="0"/>
        <pt x="552" y="133" on="1"/>
        <pt x="552" y="119" on="0"/>
        <pt x="544" y="106" on="1"/>
        <pt x="522" y="79" on="0"/>
      </contour>
    </TTGlyph>
    <TTGlyph name="less_less" xMin="-397" yMin="79" xMax="570" yMax="539">
      <contour>
        <pt x="436" y="79" on="1"/>
        <pt x="426" y="79" on="0"/>
        <pt x="418" y="83" on="1"/>
        <pt x="100" y="270" on="1"/>
        <pt x="83" y="281" on="0"/>
        <pt x="83" y="300" on="1"/>
        <pt x="83" y="334" on="0"/>
        <pt x="118" y="351" on="1"/>
        <pt x="513" y="534" on="1"/>
        <pt x="524" y="539" on="0"/>
        <pt x="534" y="539" on="1"/>
        <pt x="560" y="539" on="0"/>
        <pt x="569" y="512" on="1"/>
        <pt x="570" y="504" on="1"/>
        <pt x="569" y="495" on="1"/>
        <pt x="562" y="467" on="0"/>
        <pt x="534" y="453" on="1"/>
        <pt x="263" y="324" on="1"/>
        <pt x="251" y="319" on="0"/>
        <pt x="251" y="307" on="1"/>
        <pt x="251" y="300" on="0"/>
        <pt x="257" y="296" on="1"/>
        <pt x="474" y="165" on="1"/>
        <pt x="492" y="154" on="0"/>
        <pt x="492" y="133" on="1"/>
        <pt x="492" y="119" on="0"/>
        <pt x="484" y="106" on="1"/>
        <pt x="462" y="79" on="0"/>
      </contour>
      <contour>
        <pt x="-44" y="79" on="1"/>
        <pt x="-54" y="79" on="0"/>
        <pt x="-62" y="83" on="1"/>
        <pt x="-380" y="270" on="1"/>
        <pt x="-397" y="281" on="0"/>
        <pt x="-397" y="300" on="1"/>
        <pt x="-397" y="334" on="0"/>
        <pt x="-362" y="351" on="1"/>
        <pt x="33" y="534" on="1"/>
        <pt x="44" y="539" on="0"/>
        <pt x="54" y="539" on="1"/>
        <pt x="80" y="539" on="0"/>
        <pt x="89" y="512" on="1"/>
        <pt x="90" y="504" on="1"/>
        <pt x="89" y="495" on="1"/>
        <pt x="82" y="467" on="0"/>
        <pt x="54" y="453" on="1"/>
        <pt x="-217" y="324" on="1"/>
        <pt x="-229" y="319" on="0"/>
        <pt x="-229" y="307" on="1"/>
        <pt x="-229" y="300" on="0"/>
        <pt x="-223" y="296" on="1"/>
        <pt x="-6" y="165" on="1"/>
        <pt x="12" y="154" on="0"/>
        <pt x="12" y="133" on="1"/>
        <pt x="12" y="119" on="0"/>
        <pt x="4" y="106" on="1"/>
        <pt x="-18" y="79" on="0"/>
      </contour>
    </TTGlyph>
    <TTGlyph name="less_less_less" xMin="-937" yMin="79" xMax="510" yMax="539">
      <contour>
        <pt x="376" y="79" on="1"/>
        <pt x="366" y="79" on="0"/>
        <pt x="358" y="83" on="1"/>
        <pt x="40" y="270" on="1"/>
        <pt x="23" y="281" on="0"/>
        <pt x="23" y="300" on="1"/>
        <pt x="23" y="334" on="0"/>
        <pt x="58" y="351" on="1"/>
        <pt x="453" y="534" on="1"/>
        <pt x="464" y="539" on="0"/>
        <pt x="474" y="539" on="1"/>
        <pt x="500" y="539" on="0"/>
        <pt x="509" y="512" on="1"/>
        <pt x="510" y="504" on="1"/>
        <pt x="509" y="495" on="1"/>
        <pt x="502" y="467" on="0"/>
        <pt x="474" y="453" on="1"/>
        <pt x="203" y="324" on="1"/>
        <pt x="191" y="319" on="0"/>
        <pt x="191" y="307" on="1"/>
        <pt x="191" y="300" on="0"/>
        <pt x="197" y="296" on="1"/>
        <pt x="414" y="165" on="1"/>
        <pt x="432" y="154" on="0"/>
        <pt x="432" y="133" on="1"/>
        <pt x="432" y="119" on="0"/>
        <pt x="424" y="106" on="1"/>
        <pt x="402" y="79" on="0"/>
      </contour>
      <contour>
        <pt x="-104" y="79" on="1"/>
        <pt x="-114" y="79" on="0"/>
        <pt x="-122" y="83" on="1"/>
        <pt x="-440" y="270" on="1"/>
        <pt x="-457" y="281" on="0"/>
        <pt x="-457" y="300" on="1"/>
        <pt x="-457" y="334" on="0"/>
        <pt x="-422" y="351" on="1"/>
        <pt x="-27" y="534" on="1"/>
        <pt x="-16" y="539" on="0"/>
        <pt x="-6" y="539" on="1"/>
        <pt x="20" y="539" on="0"/>
        <pt x="29" y="512" on="1"/>
        <pt x="30" y="504" on="1"/>
        <pt x="29" y="495" on="1"/>
        <pt x="22" y="467" on="0"/>
        <pt x="-6" y="453" on="1"/>
        <pt x="-277" y="324" on="1"/>
        <pt x="-289" y="319" on="0"/>
        <pt x="-289" y="307" on="1"/>
        <pt x="-289" y="300" on="0"/>
        <pt x="-283" y="296" on="1"/>
        <pt x="-66" y="165" on="1"/>
        <pt x="-48" y="154" on="0"/>
        <pt x="-48" y="133" on="1"/>
        <pt x="-48" y="119" on="0"/>
        <pt x="-56" y="106" on="1"/>
        <pt x="-78" y="79" on="0"/>
      </contour>
      <contour>
        <pt x="-584" y="79" on="1"/>
        <pt x="-594" y="79" on="0"/>
        <pt x="-602" y="83" on="1"/>
        <pt x="-920" y="270" on="1"/>
        <pt x="-937" y="281" on="0"/>
        <pt x="-937" y="300" on="1"/>
        <pt x="-937" y="334" on="0"/>
        <pt x="-902" y="351" on="1"/>
        <pt x="-507" y="534" on="1"/>
        <pt x="-496" y="539" on="0"/>
        <pt x="-486" y="539" on="1"/>
        <pt x="-460" y="539" on="0"/>
        <pt x="-451" y="512" on="1"/>
        <pt x="-450" y="504" on="1"/>
        <pt x="-451" y="495" on="1"/>
        <pt x="-458" y="467" on="0"/>
        <pt x="-486" y="453" on="1"/>
        <pt x="-757" y="324" on="1"/>
        <pt x="-769" y="319" on="0"/>
        <pt x="-769" y="307" on="1"/>
        <pt x="-769" y="300" on="0"/>
        <pt x="-763" y="296" on="1"/>
        <pt x="-546" y="165" on="1"/>
        <pt x="-528" y="154" on="0"/>
        <pt x="-528" y="133" on="1"/>
        <pt x="-528" y="119" on="0"/>
        <pt x="-536" y="106" on="1"/>
        <pt x="-558" y="79" on="0"/>
      </contour>
    </TTGlyph>
    <TTGlyph name="less_slash" xMin="-411" yMin="-150" xMax="689" yMax="850">
      <contour>
        <pt x="121" y="82" on="1"/>
        <pt x="600" y="823" on="1"/>
        <pt x="621" y="850" on="0"/>
        <pt x="647" y="850" on="1"/>
        <pt x="657" y="850" on="0"/>
        <pt x="665" y="846" on="1"/>
        <pt x="689" y="831" on="0"/>
        <pt x="683" y="805" on="1"/>
        <pt x="681" y="796" on="0"/>
        <pt x="675" y="787" on="1"/>
        <pt x="88" y="-123" on="1"/>
        <pt x="67" y="-150" on="0"/>
        <pt x="41" y="-150" on="1"/>
        <pt x="32" y="-150" on="0"/>
        <pt x="24" y="-146" on="1"/>
        <pt x="-1" y="-131" on="0"/>
        <pt x="5" y="-105" on="1"/>
        <pt x="7" y="-96" on="0"/>
        <pt x="13" y="-87" on="1"/>
        <pt x="69" y="0" on="1"/>
        <pt x="-390" y="270" on="1"/>
        <pt x="-411" y="285" on="0"/>
        <pt x="-406" y="310" on="1"/>
        <pt x="-406" y="311" on="1"/>
        <pt x="-401" y="335" on="0"/>
        <pt x="-372" y="351" on="1"/>
        <pt x="23" y="534" on="1"/>
        <pt x="34" y="539" on="0"/>
        <pt x="45" y="539" on="1"/>
        <pt x="70" y="539" on="0"/>
        <pt x="79" y="512" on="1"/>
        <pt x="81" y="503" on="0"/>
        <pt x="79" y="495" on="1"/>
        <pt x="74" y="469" on="0"/>
        <pt x="44" y="453" on="1"/>
        <pt x="-227" y="324" on="1"/>
        <pt x="-237" y="319" on="0"/>
        <pt x="-239" y="310" on="1"/>
        <pt x="-241" y="302" on="0"/>
        <pt x="-233" y="296" on="1"/>
      </contour>
    </TTGlyph>
    <TTGlyph name="less_slash_uni003E" xMin="-991" yMin="-150" xMax="523" yMax="850">
      <contour>
        <pt x="8" y="637" on="1"/>
        <pt x="502" y="351" on="1"/>
        <pt x="523" y="336" on="0"/>
        <pt x="518" y="311" on="1"/>
        <pt x="518" y="310" on="1"/>
        <pt x="513" y="286" on="0"/>
        <pt x="484" y="270" on="1"/>
        <pt x="89" y="87" on="1"/>
        <pt x="78" y="82" on="0"/>
        <pt x="67" y="82" on="1"/>
        <pt x="42" y="82" on="0"/>
        <pt x="33" y="109" on="1"/>
        <pt x="31" y="117" on="0"/>
        <pt x="33" y="126" on="1"/>
        <pt x="38" y="151" on="0"/>
        <pt x="68" y="168" on="1"/>
        <pt x="339" y="297" on="1"/>
        <pt x="349" y="302" on="0"/>
        <pt x="351" y="310" on="1"/>
        <pt x="353" y="319" on="0"/>
        <pt x="345" y="325" on="1"/>
        <pt x="-44" y="555" on="1"/>
        <pt x="-482" y="-123" on="1"/>
        <pt x="-503" y="-150" on="0"/>
        <pt x="-529" y="-150" on="1"/>
        <pt x="-538" y="-150" on="0"/>
        <pt x="-546" y="-146" on="1"/>
        <pt x="-571" y="-131" on="0"/>
        <pt x="-565" y="-105" on="1"/>
        <pt x="-563" y="-96" on="0"/>
        <pt x="-557" y="-87" on="1"/>
        <pt x="-505" y="-6" on="1"/>
        <pt x="-970" y="270" on="1"/>
        <pt x="-991" y="285" on="0"/>
        <pt x="-986" y="310" on="1"/>
        <pt x="-986" y="311" on="1"/>
        <pt x="-981" y="335" on="0"/>
        <pt x="-952" y="351" on="1"/>
        <pt x="-557" y="534" on="1"/>
        <pt x="-546" y="539" on="0"/>
        <pt x="-535" y="539" on="1"/>
        <pt x="-510" y="539" on="0"/>
        <pt x="-501" y="512" on="1"/>
        <pt x="-499" y="503" on="0"/>
        <pt x="-501" y="495" on="1"/>
        <pt x="-506" y="469" on="0"/>
        <pt x="-536" y="453" on="1"/>
        <pt x="-807" y="324" on="1"/>
        <pt x="-817" y="319" on="0"/>
        <pt x="-819" y="310" on="1"/>
        <pt x="-821" y="302" on="0"/>
        <pt x="-813" y="296" on="1"/>
        <pt x="-452" y="77" on="1"/>
        <pt x="30" y="823" on="1"/>
        <pt x="51" y="850" on="0"/>
        <pt x="77" y="850" on="1"/>
        <pt x="87" y="850" on="0"/>
        <pt x="95" y="846" on="1"/>
        <pt x="119" y="831" on="0"/>
        <pt x="113" y="805" on="1"/>
        <pt x="111" y="796" on="0"/>
        <pt x="105" y="787" on="1"/>
      </contour>
    </TTGlyph>
    <TTGlyph name="less_uni003E" xMin="-421" yMin="35" xMax="556" yMax="582">
      <contour>
        <pt x="7" y="35" on="1"/>
        <pt x="-7" y="35" on="0"/>
        <pt x="-17" y="44" on="1"/>
        <pt x="-400" y="270" on="1"/>
        <pt x="-421" y="285" on="0"/>
        <pt x="-416" y="311" on="1"/>
        <pt x="-411" y="335" on="0"/>
        <pt x="-382" y="351" on="1"/>
        <pt x="97" y="573" on="1"/>
        <pt x="110" y="582" on="0"/>
        <pt x="124" y="582" on="1"/>
        <pt x="127" y="582" on="1"/>
        <pt x="141" y="582" on="0"/>
        <pt x="150" y="573" on="1"/>
        <pt x="535" y="351" on="1"/>
        <pt x="556" y="335" on="0"/>
        <pt x="551" y="311" on="1"/>
        <pt x="546" y="285" on="0"/>
        <pt x="517" y="270" on="1"/>
        <pt x="38" y="44" on="1"/>
        <pt x="25" y="35" on="0"/>
        <pt x="10" y="35" on="1"/>
      </contour>
      <contour>
        <pt x="30" y="132" on="1"/>
        <pt x="372" y="296" on="1"/>
        <pt x="382" y="302" on="0"/>
        <pt x="384" y="310" on="1"/>
        <pt x="386" y="319" on="0"/>
        <pt x="378" y="324" on="1"/>
        <pt x="105" y="486" on="1"/>
        <pt x="-237" y="324" on="1"/>
        <pt x="-247" y="319" on="0"/>
        <pt x="-249" y="310" on="1"/>
        <pt x="-251" y="302" on="0"/>
        <pt x="-243" y="296" on="1"/>
      </contour>
    </TTGlyph>
    <TTGlyph name="m" xMin="39" yMin="-5" xMax="624" yMax="555">
      <contour>
        <pt x="560" y="285" on="1"/>
        <pt x="535" y="163" on="1"/>
        <pt x="523" y="115" on="0"/>
        <pt x="523" y="85" on="1"/>
        <pt x="523" y="51" on="0"/>
        <pt x="548" y="51" on="1"/>
        <pt x="565" y="51" on="0"/>
        <pt x="587" y="66" on="1"/>
        <pt x="597" y="73" on="0"/>
        <pt x="605" y="73" on="1"/>
        <pt x="612" y="73" on="0"/>
        <pt x="624" y="59" on="0"/>
        <pt x="624" y="52" on="1"/>
        <pt x="624" y="37" on="0"/>
        <pt x="572" y="9" on="1"/>
        <pt x="547" y="-5" on="0"/>
        <pt x="514" y="-5" on="1"/>
        <pt x="430" y="-5" on="0"/>
        <pt x="430" y="66" on="1"/>
        <pt x="430" y="90" on="0"/>
        <pt x="470" y="286" on="1"/>
        <pt x="496" y="411" on="1"/>
        <pt x="497" y="427" on="1"/>
        <pt x="497" y="466" on="0"/>
        <pt x="457" y="466" on="1"/>
        <pt x="437" y="466" on="0"/>
        <pt x="403" y="433" on="0"/>
        <pt x="398" y="412" on="1"/>
        <pt x="319" y="40" on="1"/>
        <pt x="314" y="21" on="0"/>
        <pt x="283" y="-5" on="0"/>
        <pt x="264" y="-5" on="1"/>
        <pt x="246" y="-5" on="0"/>
        <pt x="236" y="8" on="1"/>
        <pt x="229" y="17" on="0"/>
        <pt x="229" y="30" on="1"/>
        <pt x="229" y="35" on="0"/>
        <pt x="310" y="421" on="0"/>
        <pt x="310" y="428" on="1"/>
        <pt x="310" y="444" on="0"/>
        <pt x="288" y="467" on="0"/>
        <pt x="269" y="467" on="1"/>
        <pt x="251" y="467" on="0"/>
        <pt x="214" y="433" on="0"/>
        <pt x="207" y="405" on="1"/>
        <pt x="130" y="40" on="1"/>
        <pt x="125" y="21" on="0"/>
        <pt x="94" y="-5" on="0"/>
        <pt x="75" y="-5" on="1"/>
        <pt x="56" y="-5" on="0"/>
        <pt x="46" y="8" on="1"/>
        <pt x="39" y="17" on="0"/>
        <pt x="39" y="30" on="1"/>
        <pt x="39" y="35" on="0"/>
        <pt x="140" y="513" on="1"/>
        <pt x="144" y="531" on="0"/>
        <pt x="174" y="555" on="0"/>
        <pt x="191" y="555" on="1"/>
        <pt x="222" y="555" on="0"/>
        <pt x="222" y="521" on="1"/>
        <pt x="222" y="516" on="0"/>
        <pt x="219" y="495" on="1"/>
        <pt x="220" y="492" on="0"/>
        <pt x="224" y="492" on="1"/>
        <pt x="226" y="492" on="0"/>
        <pt x="229" y="496" on="1"/>
        <pt x="265" y="555" on="0"/>
        <pt x="319" y="555" on="1"/>
        <pt x="395" y="555" on="0"/>
        <pt x="395" y="495" on="1"/>
        <pt x="395" y="492" on="1"/>
        <pt x="395" y="488" on="0"/>
        <pt x="399" y="488" on="1"/>
        <pt x="402" y="488" on="0"/>
        <pt x="404" y="492" on="1"/>
        <pt x="418" y="525" on="0"/>
        <pt x="445" y="539" on="1"/>
        <pt x="470" y="555" on="0"/>
        <pt x="506" y="555" on="1"/>
        <pt x="555" y="555" on="0"/>
        <pt x="579" y="523" on="1"/>
        <pt x="594" y="503" on="0"/>
        <pt x="594" y="469" on="1"/>
        <pt x="594" y="449" on="0"/>
        <pt x="589" y="424" on="1"/>
      </contour>
    </TTGlyph>
    <TTGlyph name="n" xMin="72" yMin="-5" xMax="628" yMax="555">
      <contour>
        <pt x="109" y="-5" on="1"/>
        <pt x="89" y="-5" on="0"/>
        <pt x="79" y="8" on="1"/>
        <pt x="72" y="16" on="0"/>
        <pt x="72" y="28" on="1"/>
        <pt x="72" y="33" on="0"/>
        <pt x="173" y="508" on="1"/>
        <pt x="177" y="528" on="0"/>
        <pt x="210" y="555" on="0"/>
        <pt x="228" y="555" on="1"/>
        <pt x="246" y="555" on="0"/>
        <pt x="257" y="542" on="1"/>
        <pt x="264" y="532" on="0"/>
        <pt x="264" y="519" on="1"/>
        <pt x="264" y="514" on="0"/>
        <pt x="259" y="488" on="0"/>
        <pt x="259" y="485" on="1"/>
        <pt x="259" y="477" on="0"/>
        <pt x="266" y="477" on="1"/>
        <pt x="272" y="477" on="0"/>
        <pt x="280" y="484" on="1"/>
        <pt x="362" y="554" on="0"/>
        <pt x="436" y="555" on="1"/>
        <pt x="582" y="555" on="0"/>
        <pt x="582" y="419" on="1"/>
        <pt x="582" y="389" on="0"/>
        <pt x="575" y="354" on="1"/>
        <pt x="573" y="342" on="1"/>
        <pt x="538" y="163" on="1"/>
        <pt x="525" y="107" on="0"/>
        <pt x="525" y="73" on="1"/>
        <pt x="525" y="51" on="0"/>
        <pt x="546" y="51" on="1"/>
        <pt x="567" y="51" on="0"/>
        <pt x="591" y="66" on="1"/>
        <pt x="602" y="73" on="0"/>
        <pt x="609" y="73" on="1"/>
        <pt x="616" y="73" on="0"/>
        <pt x="628" y="59" on="0"/>
        <pt x="628" y="52" on="1"/>
        <pt x="628" y="37" on="0"/>
        <pt x="576" y="9" on="1"/>
        <pt x="551" y="-5" on="0"/>
        <pt x="529" y="-5" on="1"/>
        <pt x="432" y="-5" on="0"/>
        <pt x="432" y="62" on="1"/>
        <pt x="432" y="81" on="0"/>
        <pt x="483" y="336" on="1"/>
        <pt x="489" y="362" on="0"/>
        <pt x="489" y="383" on="1"/>
        <pt x="489" y="458" on="0"/>
        <pt x="402" y="458" on="1"/>
        <pt x="354" y="457" on="0"/>
        <pt x="298" y="416" on="1"/>
        <pt x="231" y="366" on="0"/>
        <pt x="220" y="315" on="1"/>
        <pt x="162" y="41" on="1"/>
        <pt x="151" y="-5" on="0"/>
      </contour>
    </TTGlyph>
    <TTGlyph name="nine" xMin="122" yMin="-5" xMax="632" yMax="755">
      <contour>
        <pt x="177" y="-5" on="1"/>
        <pt x="157" y="-5" on="1"/>
        <pt x="139" y="-5" on="0"/>
        <pt x="129" y="8" on="1"/>
        <pt x="122" y="17" on="0"/>
        <pt x="122" y="29" on="1"/>
        <pt x="122" y="52" on="0"/>
        <pt x="142" y="68" on="1"/>
        <pt x="157" y="80" on="0"/>
        <pt x="175" y="81" on="1"/>
        <pt x="270" y="87" on="1"/>
        <pt x="295" y="90" on="0"/>
        <pt x="321" y="101" on="1"/>
        <pt x="406" y="135" on="0"/>
        <pt x="459" y="215" on="1"/>
        <pt x="483" y="249" on="0"/>
        <pt x="498" y="300" on="1"/>
        <pt x="498" y="304" on="1"/>
        <pt x="498" y="317" on="0"/>
        <pt x="486" y="317" on="1"/>
        <pt x="482" y="317" on="0"/>
        <pt x="478" y="315" on="1"/>
        <pt x="413" y="284" on="0"/>
        <pt x="339" y="284" on="1"/>
        <pt x="242" y="284" on="0"/>
        <pt x="201" y="342" on="1"/>
        <pt x="176" y="379" on="0"/>
        <pt x="176" y="437" on="1"/>
        <pt x="176" y="471" on="0"/>
        <pt x="184" y="511" on="1"/>
        <pt x="198" y="578" on="0"/>
        <pt x="276" y="689" on="0"/>
        <pt x="394" y="755" on="0"/>
        <pt x="468" y="755" on="1"/>
        <pt x="632" y="755" on="0"/>
        <pt x="632" y="564" on="1"/>
        <pt x="632" y="503" on="0"/>
        <pt x="615" y="422" on="1"/>
        <pt x="528" y="-5" on="0"/>
      </contour>
      <contour>
        <pt x="375" y="369" on="1"/>
        <pt x="404" y="369" on="0"/>
        <pt x="480" y="397" on="0"/>
        <pt x="513" y="423" on="1"/>
        <pt x="541" y="446" on="0"/>
        <pt x="541" y="535" on="1"/>
        <pt x="541" y="665" on="0"/>
        <pt x="442" y="665" on="1"/>
        <pt x="374" y="665" on="0"/>
        <pt x="286" y="580" on="0"/>
        <pt x="273" y="517" on="1"/>
        <pt x="267" y="488" on="0"/>
        <pt x="267" y="464" on="1"/>
        <pt x="267" y="429" on="0"/>
        <pt x="305" y="369" on="0"/>
      </contour>
    </TTGlyph>
    <TTGlyph name="numbersign" xMin="53" yMin="-5" xMax="708" yMax="755">
      <contour>
        <pt x="307" y="360" on="1"/>
        <pt x="217" y="360" on="1"/>
        <pt x="291" y="710" on="1"/>
        <pt x="296" y="729" on="0"/>
        <pt x="327" y="755" on="0"/>
        <pt x="346" y="755" on="1"/>
        <pt x="364" y="755" on="0"/>
        <pt x="382" y="732" on="0"/>
        <pt x="382" y="720" on="1"/>
        <pt x="382" y="715" on="0"/>
      </contour>
      <contour>
        <pt x="184" y="-5" on="1"/>
        <pt x="165" y="-5" on="0"/>
        <pt x="155" y="8" on="1"/>
        <pt x="148" y="17" on="0"/>
        <pt x="148" y="30" on="1"/>
        <pt x="148" y="35" on="0"/>
        <pt x="172" y="150" on="1"/>
        <pt x="262" y="150" on="1"/>
        <pt x="239" y="40" on="1"/>
        <pt x="234" y="21" on="0"/>
        <pt x="203" y="-5" on="0"/>
      </contour>
      <contour>
        <pt x="590" y="610" on="1"/>
        <pt x="500" y="610" on="1"/>
        <pt x="521" y="710" on="1"/>
        <pt x="526" y="729" on="0"/>
        <pt x="557" y="755" on="0"/>
        <pt x="576" y="755" on="1"/>
        <pt x="594" y="755" on="0"/>
        <pt x="612" y="732" on="0"/>
        <pt x="612" y="720" on="1"/>
        <pt x="612" y="715" on="0"/>
      </contour>
      <contour>
        <pt x="414" y="-5" on="1"/>
        <pt x="395" y="-5" on="0"/>
        <pt x="385" y="8" on="1"/>
        <pt x="378" y="17" on="0"/>
        <pt x="378" y="30" on="1"/>
        <pt x="378" y="35" on="0"/>
        <pt x="455" y="400" on="1"/>
        <pt x="545" y="400" on="1"/>
        <pt x="469" y="40" on="1"/>
        <pt x="464" y="21" on="0"/>
        <pt x="433" y="-5" on="0"/>
      </contour>
      <contour>
        <pt x="188" y="460" on="1"/>
        <pt x="143" y="460" on="1"/>
        <pt x="124" y="460" on="0"/>
        <pt x="106" y="483" on="0"/>
        <pt x="106" y="497" on="1"/>
        <pt x="106" y="519" on="0"/>
        <pt x="128" y="537" on="1"/>
        <pt x="143" y="550" on="0"/>
        <pt x="162" y="550" on="1"/>
        <pt x="207" y="550" on="1"/>
      </contour>
      <contour>
        <pt x="653" y="460" on="1"/>
        <pt x="378" y="460" on="1"/>
        <pt x="397" y="550" on="1"/>
        <pt x="672" y="550" on="1"/>
        <pt x="691" y="550" on="0"/>
        <pt x="701" y="537" on="1"/>
        <pt x="708" y="528" on="0"/>
        <pt x="708" y="515" on="1"/>
        <pt x="708" y="490" on="0"/>
        <pt x="687" y="473" on="1"/>
        <pt x="671" y="460" on="0"/>
      </contour>
      <contour>
        <pt x="365" y="210" on="1"/>
        <pt x="90" y="210" on="1"/>
        <pt x="71" y="210" on="0"/>
        <pt x="53" y="233" on="0"/>
        <pt x="53" y="247" on="1"/>
        <pt x="53" y="269" on="0"/>
        <pt x="75" y="287" on="1"/>
        <pt x="90" y="300" on="0"/>
        <pt x="109" y="300" on="1"/>
        <pt x="384" y="300" on="1"/>
      </contour>
      <contour>
        <pt x="600" y="210" on="1"/>
        <pt x="555" y="210" on="1"/>
        <pt x="574" y="300" on="1"/>
        <pt x="619" y="300" on="1"/>
        <pt x="637" y="300" on="0"/>
        <pt x="648" y="287" on="1"/>
        <pt x="655" y="278" on="0"/>
        <pt x="655" y="265" on="1"/>
        <pt x="655" y="240" on="0"/>
        <pt x="634" y="223" on="1"/>
        <pt x="618" y="210" on="0"/>
      </contour>
    </TTGlyph>
    <TTGlyph name="numbersign_expand" xMin="50" yMin="-5" xMax="984" yMax="755">
      <contour>
        <pt x="788" y="460" on="1"/>
        <pt x="378" y="460" on="1"/>
        <pt x="397" y="550" on="1"/>
        <pt x="807" y="550" on="1"/>
      </contour>
      <contour>
        <pt x="965" y="210" on="1"/>
        <pt x="555" y="210" on="1"/>
        <pt x="574" y="300" on="1"/>
        <pt x="984" y="300" on="1"/>
      </contour>
      <contour>
        <pt x="307" y="360" on="1"/>
        <pt x="217" y="360" on="1"/>
        <pt x="291" y="710" on="1"/>
        <pt x="295" y="728" on="0"/>
        <pt x="326" y="755" on="0"/>
        <pt x="345" y="755" on="1"/>
        <pt x="364" y="755" on="0"/>
        <pt x="385" y="728" on="0"/>
        <pt x="381" y="710" on="1"/>
      </contour>
      <contour>
        <pt x="184" y="-5" on="1"/>
        <pt x="165" y="-5" on="0"/>
        <pt x="144" y="21" on="0"/>
        <pt x="149" y="40" on="1"/>
        <pt x="172" y="150" on="1"/>
        <pt x="262" y="150" on="1"/>
        <pt x="239" y="40" on="1"/>
        <pt x="234" y="21" on="0"/>
        <pt x="203" y="-5" on="0"/>
      </contour>
      <contour>
        <pt x="590" y="610" on="1"/>
        <pt x="500" y="610" on="1"/>
        <pt x="521" y="710" on="1"/>
        <pt x="525" y="728" on="0"/>
        <pt x="556" y="755" on="0"/>
        <pt x="575" y="755" on="1"/>
        <pt x="594" y="755" on="0"/>
        <pt x="615" y="728" on="0"/>
        <pt x="611" y="710" on="1"/>
      </contour>
      <contour>
        <pt x="414" y="-5" on="1"/>
        <pt x="395" y="-5" on="0"/>
        <pt x="374" y="21" on="0"/>
        <pt x="379" y="40" on="1"/>
        <pt x="455" y="400" on="1"/>
        <pt x="545" y="400" on="1"/>
        <pt x="469" y="40" on="1"/>
        <pt x="464" y="21" on="0"/>
        <pt x="433" y="-5" on="0"/>
      </contour>
      <contour>
        <pt x="188" y="460" on="1"/>
        <pt x="143" y="460" on="1"/>
        <pt x="124" y="460" on="0"/>
        <pt x="103" y="486" on="0"/>
        <pt x="107" y="505" on="1"/>
        <pt x="111" y="523" on="0"/>
        <pt x="143" y="550" on="0"/>
        <pt x="162" y="550" on="1"/>
        <pt x="207" y="550" on="1"/>
      </contour>
      <contour>
        <pt x="365" y="210" on="1"/>
        <pt x="90" y="210" on="1"/>
        <pt x="71" y="210" on="0"/>
        <pt x="50" y="236" on="0"/>
        <pt x="54" y="255" on="1"/>
        <pt x="58" y="273" on="0"/>
        <pt x="90" y="300" on="0"/>
        <pt x="109" y="300" on="1"/>
        <pt x="384" y="300" on="1"/>
      </contour>
    </TTGlyph>
    <TTGlyph name="o" xMin="106" yMin="-5" xMax="581" yMax="555">
      <contour>
        <pt x="284" y="-5" on="1"/>
        <pt x="223" y="-5" on="0"/>
        <pt x="177" y="28" on="1"/>
        <pt x="106" y="79" on="0"/>
        <pt x="106" y="189" on="1"/>
        <pt x="106" y="229" on="0"/>
        <pt x="116" y="276" on="1"/>
        <pt x="134" y="364" on="0"/>
        <pt x="222" y="489" on="0"/>
        <pt x="342" y="555" on="0"/>
        <pt x="403" y="555" on="1"/>
        <pt x="465" y="555" on="0"/>
        <pt x="511" y="522" on="1"/>
        <pt x="581" y="471" on="0"/>
        <pt x="581" y="360" on="1"/>
        <pt x="581" y="321" on="0"/>
        <pt x="572" y="276" on="1"/>
        <pt x="553" y="186" on="0"/>
        <pt x="465" y="61" on="0"/>
        <pt x="346" y="-5" on="0"/>
      </contour>
      <contour>
        <pt x="300" y="86" on="1"/>
        <pt x="356" y="86" on="0"/>
        <pt x="452" y="176" on="0"/>
        <pt x="478" y="265" on="1"/>
        <pt x="491" y="312" on="0"/>
        <pt x="491" y="352" on="1"/>
        <pt x="491" y="464" on="0"/>
        <pt x="388" y="464" on="1"/>
        <pt x="332" y="464" on="0"/>
        <pt x="233" y="371" on="0"/>
        <pt x="208" y="283" on="1"/>
        <pt x="196" y="237" on="0"/>
        <pt x="196" y="204" on="1"/>
        <pt x="196" y="168" on="0"/>
        <pt x="212" y="129" on="1"/>
        <pt x="231" y="86" on="0"/>
      </contour>
    </TTGlyph>
    <TTGlyph name="one" xMin="89" yMin="0" xMax="531" yMax="755">
      <contour>
        <pt x="475" y="0" on="1"/>
        <pt x="125" y="0" on="1"/>
        <pt x="106" y="0" on="0"/>
        <pt x="96" y="13" on="1"/>
        <pt x="89" y="22" on="0"/>
        <pt x="89" y="35" on="1"/>
        <pt x="89" y="60" on="0"/>
        <pt x="110" y="77" on="1"/>
        <pt x="125" y="90" on="0"/>
        <pt x="144" y="90" on="1"/>
        <pt x="250" y="90" on="1"/>
        <pt x="260" y="90" on="0"/>
        <pt x="277" y="104" on="0"/>
        <pt x="279" y="114" on="1"/>
        <pt x="383" y="604" on="1"/>
        <pt x="383" y="609" on="0"/>
        <pt x="376" y="617" on="0"/>
        <pt x="370" y="617" on="1"/>
        <pt x="365" y="617" on="0"/>
        <pt x="359" y="613" on="1"/>
        <pt x="267" y="534" on="1"/>
        <pt x="250" y="523" on="0"/>
        <pt x="235" y="523" on="1"/>
        <pt x="215" y="523" on="0"/>
        <pt x="204" y="539" on="1"/>
        <pt x="198" y="548" on="0"/>
        <pt x="198" y="558" on="1"/>
        <pt x="198" y="584" on="0"/>
        <pt x="221" y="602" on="1"/>
        <pt x="393" y="739" on="1"/>
        <pt x="416" y="755" on="0"/>
        <pt x="440" y="755" on="1"/>
        <pt x="467" y="755" on="0"/>
        <pt x="482" y="736" on="1"/>
        <pt x="493" y="723" on="0"/>
        <pt x="493" y="703" on="1"/>
        <pt x="492" y="690" on="1"/>
        <pt x="368" y="109" on="1"/>
        <pt x="368" y="102" on="0"/>
        <pt x="377" y="90" on="0"/>
        <pt x="387" y="90" on="1"/>
        <pt x="494" y="90" on="1"/>
        <pt x="513" y="90" on="0"/>
        <pt x="531" y="67" on="0"/>
        <pt x="531" y="53" on="1"/>
        <pt x="531" y="31" on="0"/>
        <pt x="510" y="13" on="1"/>
        <pt x="494" y="0" on="0"/>
      </contour>
    </TTGlyph>
    <TTGlyph name="p" xMin="46" yMin="-250" xMax="595" yMax="555">
      <contour>
        <pt x="336" y="88" on="1"/>
        <pt x="390" y="88" on="0"/>
        <pt x="478" y="189" on="0"/>
        <pt x="501" y="280" on="1"/>
        <pt x="509" y="310" on="0"/>
        <pt x="509" y="352" on="1"/>
        <pt x="509" y="463" on="0"/>
        <pt x="420" y="464" on="1"/>
        <pt x="382" y="464" on="0"/>
        <pt x="272" y="389" on="0"/>
        <pt x="259" y="328" on="1"/>
        <pt x="235" y="208" on="0"/>
        <pt x="235" y="186" on="1"/>
        <pt x="235" y="150" on="0"/>
        <pt x="258" y="117" on="1"/>
        <pt x="278" y="88" on="0"/>
      </contour>
      <contour>
        <pt x="82" y="-250" on="1"/>
        <pt x="65" y="-250" on="0"/>
        <pt x="54" y="-237" on="1"/>
        <pt x="46" y="-228" on="0"/>
        <pt x="46" y="-215" on="1"/>
        <pt x="46" y="-210" on="0"/>
        <pt x="198" y="509" on="1"/>
        <pt x="203" y="530" on="0"/>
        <pt x="233" y="555" on="0"/>
        <pt x="252" y="555" on="1"/>
        <pt x="287" y="555" on="0"/>
        <pt x="287" y="523" on="1"/>
        <pt x="287" y="516" on="1"/>
        <pt x="288" y="500" on="0"/>
        <pt x="297" y="500" on="1"/>
        <pt x="303" y="500" on="0"/>
        <pt x="310" y="506" on="1"/>
        <pt x="368" y="555" on="0"/>
        <pt x="445" y="555" on="1"/>
        <pt x="595" y="555" on="0"/>
        <pt x="595" y="385" on="1"/>
        <pt x="595" y="333" on="0"/>
        <pt x="581" y="268" on="1"/>
        <pt x="555" y="145" on="0"/>
        <pt x="411" y="-5" on="0"/>
        <pt x="325" y="-5" on="1"/>
        <pt x="260" y="-5" on="0"/>
        <pt x="224" y="30" on="1"/>
        <pt x="215" y="39" on="0"/>
        <pt x="206" y="39" on="1"/>
        <pt x="196" y="39" on="0"/>
        <pt x="186" y="28" on="0"/>
        <pt x="137" y="-203" on="1"/>
        <pt x="133" y="-224" on="0"/>
        <pt x="99" y="-250" on="0"/>
      </contour>
    </TTGlyph>
    <TTGlyph name="parenleft" xMin="152" yMin="-187" xMax="660" yMax="887">
      <contour>
        <pt x="276" y="318" on="1"/>
        <pt x="243" y="157" on="0"/>
        <pt x="311" y="35" on="1"/>
        <pt x="357" y="-52" on="0"/>
        <pt x="436" y="-115" on="1"/>
        <pt x="450" y="-126" on="0"/>
        <pt x="446" y="-148" on="1"/>
        <pt x="443" y="-161" on="0"/>
        <pt x="436" y="-169" on="1"/>
        <pt x="419" y="-187" on="0"/>
        <pt x="397" y="-187" on="1"/>
        <pt x="387" y="-187" on="0"/>
        <pt x="380" y="-183" on="1"/>
        <pt x="277" y="-112" on="0"/>
        <pt x="223" y="-4" on="1"/>
        <pt x="152" y="142" on="0"/>
        <pt x="192" y="329" on="1"/>
        <pt x="197" y="353" on="1"/>
        <pt x="241" y="558" on="0"/>
        <pt x="373" y="704" on="1"/>
        <pt x="473" y="812" on="0"/>
        <pt x="607" y="883" on="1"/>
        <pt x="615" y="887" on="0"/>
        <pt x="626" y="887" on="1"/>
        <pt x="649" y="887" on="0"/>
        <pt x="657" y="869" on="1"/>
        <pt x="660" y="860" on="0"/>
        <pt x="657" y="848" on="1"/>
        <pt x="653" y="827" on="0"/>
        <pt x="633" y="815" on="1"/>
        <pt x="528" y="752" on="0"/>
        <pt x="447" y="665" on="1"/>
        <pt x="323" y="533" on="0"/>
        <pt x="285" y="364" on="1"/>
      </contour>
    </TTGlyph>
    <TTGlyph name="parenright" xMin="88" yMin="-187" xMax="596" yMax="887">
      <contour>
        <pt x="459" y="318" on="1"/>
        <pt x="468" y="364" on="1"/>
        <pt x="502" y="533" on="0"/>
        <pt x="435" y="665" on="1"/>
        <pt x="391" y="752" on="0"/>
        <pt x="312" y="815" on="1"/>
        <pt x="298" y="827" on="0"/>
        <pt x="302" y="848" on="1"/>
        <pt x="305" y="860" on="0"/>
        <pt x="312" y="869" on="1"/>
        <pt x="327" y="887" on="0"/>
        <pt x="351" y="887" on="1"/>
        <pt x="361" y="887" on="0"/>
        <pt x="367" y="883" on="1"/>
        <pt x="471" y="812" on="0"/>
        <pt x="525" y="704" on="1"/>
        <pt x="596" y="558" on="0"/>
        <pt x="552" y="353" on="1"/>
        <pt x="547" y="329" on="1"/>
        <pt x="507" y="142" on="0"/>
        <pt x="374" y="-4" on="1"/>
        <pt x="274" y="-112" on="0"/>
        <pt x="141" y="-183" on="1"/>
        <pt x="133" y="-187" on="0"/>
        <pt x="122" y="-187" on="1"/>
        <pt x="100" y="-187" on="0"/>
        <pt x="91" y="-169" on="1"/>
        <pt x="88" y="-161" on="0"/>
        <pt x="91" y="-148" on="1"/>
        <pt x="95" y="-126" on="0"/>
        <pt x="115" y="-115" on="1"/>
        <pt x="220" y="-52" on="0"/>
        <pt x="303" y="35" on="1"/>
        <pt x="422" y="157" on="0"/>
      </contour>
    </TTGlyph>
    <TTGlyph name="percent" xMin="33" yMin="-5" xMax="725" yMax="755">
      <contour>
        <pt x="444" y="-5" on="1"/>
        <pt x="384" y="-5" on="0"/>
        <pt x="317" y="89" on="0"/>
        <pt x="334" y="169" on="1"/>
        <pt x="353" y="255" on="0"/>
        <pt x="449" y="347" on="0"/>
        <pt x="519" y="347" on="1"/>
        <pt x="585" y="347" on="0"/>
        <pt x="645" y="254" on="0"/>
        <pt x="628" y="174" on="1"/>
        <pt x="611" y="93" on="0"/>
        <pt x="510" y="-5" on="0"/>
      </contour>
      <contour>
        <pt x="460" y="68" on="1"/>
        <pt x="523" y="68" on="0"/>
        <pt x="543" y="165" on="1"/>
        <pt x="564" y="268" on="0"/>
        <pt x="502" y="268" on="1"/>
        <pt x="440" y="268" on="0"/>
        <pt x="420" y="170" on="1"/>
        <pt x="398" y="68" on="0"/>
      </contour>
      <contour>
        <pt x="241" y="403" on="1"/>
        <pt x="210" y="403" on="0"/>
        <pt x="168" y="425" on="0"/>
        <pt x="147" y="448" on="0"/>
        <pt x="147" y="450" on="1"/>
        <pt x="115" y="500" on="0"/>
        <pt x="132" y="581" on="1"/>
        <pt x="150" y="664" on="0"/>
        <pt x="253" y="755" on="0"/>
        <pt x="316" y="755" on="1"/>
        <pt x="379" y="755" on="0"/>
        <pt x="444" y="664" on="0"/>
        <pt x="427" y="581" on="1"/>
        <pt x="409" y="500" on="0"/>
        <pt x="358" y="451" on="1"/>
        <pt x="334" y="427" on="0"/>
        <pt x="287" y="404" on="0"/>
      </contour>
      <contour>
        <pt x="257" y="479" on="1"/>
        <pt x="321" y="479" on="0"/>
        <pt x="341" y="575" on="1"/>
        <pt x="362" y="680" on="0"/>
        <pt x="300" y="680" on="1"/>
        <pt x="239" y="680" on="0"/>
        <pt x="218" y="581" on="1"/>
        <pt x="196" y="479" on="0"/>
      </contour>
      <contour>
        <pt x="77" y="79" on="1"/>
        <pt x="49" y="79" on="0"/>
        <pt x="41" y="98" on="1"/>
        <pt x="33" y="115" on="0"/>
        <pt x="36" y="128" on="1"/>
        <pt x="41" y="150" on="0"/>
        <pt x="57" y="162" on="1"/>
        <pt x="265" y="324" on="1"/>
        <pt x="278" y="333" on="0"/>
        <pt x="294" y="333" on="1"/>
        <pt x="310" y="332" on="0"/>
        <pt x="328" y="308" on="0"/>
        <pt x="325" y="294" on="1"/>
        <pt x="322" y="279" on="0"/>
        <pt x="312" y="270" on="1"/>
        <pt x="118" y="94" on="1"/>
        <pt x="100" y="79" on="0"/>
      </contour>
      <contour>
        <pt x="678" y="670" on="1"/>
        <pt x="703" y="670" on="0"/>
        <pt x="716" y="652" on="1"/>
        <pt x="725" y="641" on="0"/>
        <pt x="720" y="621" on="1"/>
        <pt x="716" y="601" on="0"/>
        <pt x="700" y="588" on="1"/>
        <pt x="491" y="425" on="1"/>
        <pt x="480" y="417" on="0"/>
        <pt x="463" y="417" on="1"/>
        <pt x="446" y="418" on="0"/>
        <pt x="427" y="441" on="0"/>
        <pt x="431" y="456" on="1"/>
        <pt x="433" y="468" on="0"/>
        <pt x="445" y="478" on="1"/>
        <pt x="639" y="655" on="1"/>
        <pt x="656" y="670" on="0"/>
      </contour>
    </TTGlyph>
    <TTGlyph name="period" xMin="229" yMin="0" xMax="407" yMax="167">
      <contour>
        <pt x="302" y="0" on="1"/>
        <pt x="267" y="0" on="0"/>
        <pt x="229" y="49" on="0"/>
        <pt x="237" y="83" on="1"/>
        <pt x="244" y="118" on="0"/>
        <pt x="302" y="167" on="0"/>
        <pt x="337" y="167" on="1"/>
        <pt x="370" y="167" on="0"/>
        <pt x="407" y="118" on="0"/>
        <pt x="400" y="83" on="1"/>
        <pt x="392" y="49" on="0"/>
        <pt x="335" y="0" on="0"/>
      </contour>
    </TTGlyph>
    <TTGlyph name="plus" xMin="122" yMin="70" xMax="610" yMax="550">
      <contour>
        <pt x="330" y="355" on="1"/>
        <pt x="362" y="505" on="1"/>
        <pt x="366" y="523" on="0"/>
        <pt x="398" y="550" on="0"/>
        <pt x="417" y="550" on="1"/>
        <pt x="435" y="550" on="0"/>
        <pt x="456" y="523" on="0"/>
        <pt x="452" y="505" on="1"/>
        <pt x="420" y="355" on="1"/>
        <pt x="570" y="355" on="1"/>
        <pt x="588" y="355" on="0"/>
        <pt x="610" y="329" on="0"/>
        <pt x="606" y="310" on="1"/>
        <pt x="602" y="291" on="0"/>
        <pt x="569" y="265" on="0"/>
        <pt x="551" y="265" on="1"/>
        <pt x="401" y="265" on="1"/>
        <pt x="369" y="115" on="1"/>
        <pt x="365" y="96" on="0"/>
        <pt x="333" y="70" on="0"/>
        <pt x="315" y="70" on="1"/>
        <pt x="296" y="70" on="0"/>
        <pt x="275" y="96" on="0"/>
        <pt x="279" y="115" on="1"/>
        <pt x="311" y="265" on="1"/>
        <pt x="161" y="265" on="1"/>
        <pt x="142" y="265" on="0"/>
        <pt x="122" y="291" on="0"/>
        <pt x="126" y="310" on="1"/>
        <pt x="130" y="329" on="0"/>
        <pt x="161" y="355" on="0"/>
        <pt x="180" y="355" on="1"/>
      </contour>
    </TTGlyph>
    <TTGlyph name="plus_plus" xMin="-428" yMin="70" xMax="560" yMax="550">
      <contour>
        <pt x="280" y="355" on="1"/>
        <pt x="312" y="505" on="1"/>
        <pt x="316" y="523" on="0"/>
        <pt x="348" y="550" on="0"/>
        <pt x="367" y="550" on="1"/>
        <pt x="385" y="550" on="0"/>
        <pt x="406" y="523" on="0"/>
        <pt x="402" y="505" on="1"/>
        <pt x="370" y="355" on="1"/>
        <pt x="520" y="355" on="1"/>
        <pt x="538" y="355" on="0"/>
        <pt x="560" y="329" on="0"/>
        <pt x="556" y="310" on="1"/>
        <pt x="552" y="291" on="0"/>
        <pt x="519" y="265" on="0"/>
        <pt x="501" y="265" on="1"/>
        <pt x="351" y="265" on="1"/>
        <pt x="319" y="115" on="1"/>
        <pt x="315" y="96" on="0"/>
        <pt x="283" y="70" on="0"/>
        <pt x="265" y="70" on="1"/>
        <pt x="246" y="70" on="0"/>
        <pt x="225" y="96" on="0"/>
        <pt x="229" y="115" on="1"/>
        <pt x="261" y="265" on="1"/>
        <pt x="-149" y="265" on="1"/>
        <pt x="-181" y="115" on="1"/>
        <pt x="-185" y="96" on="0"/>
        <pt x="-217" y="70" on="0"/>
        <pt x="-235" y="70" on="1"/>
        <pt x="-254" y="70" on="0"/>
        <pt x="-275" y="96" on="0"/>
        <pt x="-271" y="115" on="1"/>
        <pt x="-239" y="265" on="1"/>
        <pt x="-389" y="265" on="1"/>
        <pt x="-408" y="265" on="0"/>
        <pt x="-428" y="291" on="0"/>
        <pt x="-424" y="310" on="1"/>
        <pt x="-420" y="329" on="0"/>
        <pt x="-389" y="355" on="0"/>
        <pt x="-370" y="355" on="1"/>
        <pt x="-220" y="355" on="1"/>
        <pt x="-188" y="505" on="1"/>
        <pt x="-184" y="523" on="0"/>
        <pt x="-152" y="550" on="0"/>
        <pt x="-133" y="550" on="1"/>
        <pt x="-115" y="550" on="0"/>
        <pt x="-94" y="523" on="0"/>
        <pt x="-98" y="505" on="1"/>
        <pt x="-130" y="355" on="1"/>
      </contour>
    </TTGlyph>
</ttFont>
